<?xml version="1.0" standalone="no"?>
<!DOCTYPE svg PUBLIC "-//W3C//DTD SVG 1.1//EN" "http://www.w3.org/Graphics/SVG/1.1/DTD/svg11.dtd" >
<svg>
<metadata>
Created by FontForge 20120731 at Mon Dec 18 13:56:14 2017
 By www-data
Copyright (c) 2013 Schick Toikka. All rights reserved. Noe Text is a trademark of Schick Toikka. Unauthorised copying or modification of any of its data is illegal.
</metadata>
<defs>
<font id="NoeText-Book" horiz-adv-x="600" >
  <font-face 
    font-family="Noe Text"
    font-weight="400"
    font-stretch="normal"
    units-per-em="1000"
    panose-1="2 10 5 0 9 4 0 0 0 2"
    ascent="750"
    descent="-250"
    x-height="490"
    cap-height="703"
    bbox="-202 -279 1174 1090"
    underline-thickness="50"
    underline-position="-50"
    stemh="42"
    stemv="115"
    unicode-range="U+0020-FB02"
  />
<missing-glyph horiz-adv-x="687" 
d="M100 -250v1000h486v-1000h-486zM367 253l174 -416v832zM320 253l-174 416v-832zM343 196l-168 -403h336zM177 707l166 -398l166 398h-332z" />
    <glyph glyph-name="fi" unicode="fi" horiz-adv-x="685" 
d="M120 78v362h-72v50h72v41c0 167 110 219 241 219c47 0 102 -8 144 -20l-31 -142h-12l-67 111c-6 11 -12 15 -33 15c-88 0 -138 -58 -138 -177v-47h132v-50h-132v-352c0 -14 3 -17 14 -22l111 -54v-12h-310v12l71 46c8 6 10 9 10 20zM478 78v312c0 10 -1 13 -7 20l-73 67
v13h185v-412c0 -11 2 -14 10 -20l71 -46v-12h-266v12l70 46c9 6 10 9 10 20z" />
    <glyph glyph-name="fl" unicode="fl" horiz-adv-x="668" 
d="M48 490h72v39c0 156 94 221 210 221c52 0 92 -19 117 -40l118 39v-671c0 -11 2 -14 11 -20l70 -46v-12h-266v12l71 46c8 6 10 9 10 20v560c-30 53 -80 69 -120 69c-69 0 -117 -52 -117 -170v-47h132v-50h-132v-352c0 -14 3 -17 14 -22l102 -54v-12h-301v12l71 46
c8 6 10 9 10 20v362h-72v50z" />
    <glyph glyph-name="f_b" unicode="fb" horiz-adv-x="930" 
d="M532 40l-82 -52h-12v650c-29 54 -64 70 -99 70c-66 0 -115 -54 -115 -171v-47h132v-50h-132v-352c0 -14 3 -17 14 -22l111 -54v-12h-310v12l71 46c8 6 10 9 10 20v362h-72v50h72v39c0 155 98 221 196 221c50 0 86 -19 107 -40l119 40v-323c39 50 85 75 144 75
c115 0 203 -91 203 -245c0 -179 -118 -269 -226 -269c-52 0 -102 20 -131 52zM648 439c-43 0 -79 -21 -106 -65v-284c15 -33 53 -54 94 -54c73 0 140 67 140 212c0 127 -52 191 -128 191z" />
    <glyph glyph-name="f_k" unicode="fk" horiz-adv-x="907" 
d="M461 78v560c-30 53 -80 69 -121 69c-68 0 -116 -52 -116 -170v-47h132v-50h-132v-352c0 -14 3 -17 14 -22l102 -54v-12h-301v12l71 46c8 6 10 9 10 20v362h-72v50h72v39c0 156 94 221 206 221c46 0 96 -19 121 -40l118 40v-479l181 138c8 6 8 12 0 18l-63 50v13h220v-13
l-220 -168c-6 -5 -7 -9 -3 -15l152 -227c6 -10 10 -15 21 -22l57 -33v-12h-157l-156 235c-14 20 -19 24 -32 24v-181c0 -11 2 -14 11 -20l70 -46v-12h-266v12l71 46c8 6 10 9 10 20z" />
    <glyph glyph-name="f_h" unicode="fh" horiz-adv-x="974" 
d="M565 750v-342c39 59 83 94 156 94c104 0 164 -67 164 -205c0 -63 -1 -150 -2 -219c0 -11 2 -14 10 -20l71 -46v-12h-266v12l69 46c11 7 12 9 12 20c0 31 1 157 1 207c0 119 -45 152 -97 152c-51 0 -91 -33 -118 -84v-275c0 -11 2 -14 11 -20l70 -46v-12h-266v12l71 46
c8 6 10 9 10 20v560c-30 53 -80 69 -121 69c-68 0 -116 -52 -116 -170v-47h132v-50h-132v-352c0 -14 3 -17 14 -22l102 -54v-12h-301v12l71 46c8 6 10 9 10 20v362h-72v50h72v39c0 156 94 221 206 221c46 0 96 -19 121 -40z" />
    <glyph glyph-name="f_j" unicode="fj" horiz-adv-x="647" 
d="M39 0v12l71 46c8 6 10 9 10 20v362h-72v50h72v41c0 168 110 219 241 219c47 0 102 -8 144 -20l-31 -142h-12l-67 111c-7 11 -12 15 -33 15c-88 0 -138 -58 -138 -177v-47h132v-50h-132v-352c0 -14 3 -17 14 -22l111 -54v-12h-310zM583 21c0 -177 -95 -264 -235 -266
l-2 15c85 20 132 102 132 238v382c0 10 -1 13 -7 20l-73 67v13h185v-469z" />
    <glyph glyph-name=".notdef" horiz-adv-x="687" 
d="M100 -250v1000h486v-1000h-486zM367 253l174 -416v832zM320 253l-174 416v-832zM343 196l-168 -403h336zM177 707l166 -398l166 398h-332z" />
    <glyph glyph-name="space" unicode=" " horiz-adv-x="229" 
 />
    <glyph glyph-name="exclam" unicode="!" horiz-adv-x="289" 
d="M151 195h-13l-70 508h154zM70 65c0 42 31 75 72 75c42 0 73 -33 73 -75s-31 -75 -73 -75c-41 0 -72 33 -72 75z" />
    <glyph glyph-name="quotedbl" unicode="&#x22;" horiz-adv-x="401" 
d="M111 750c36 0 57 -26 57 -59c0 -13 -2 -24 -5 -33l-47 -175h-12l-47 175c-2 9 -5 20 -5 33c0 33 21 59 59 59zM291 750c37 0 58 -26 58 -59c0 -13 -3 -24 -5 -33l-47 -175h-12l-47 175c-3 9 -5 20 -5 33c0 33 20 59 58 59z" />
    <glyph glyph-name="numbersign" unicode="#" 
d="M546 179h-130v-179h-48v179h-136v-179h-48v179h-130v48h130v201h-130v48h130v177h48v-177h136v177h48v-177h130v-48h-130v-201h130v-48zM232 428v-201h136v201h-136z" />
    <glyph glyph-name="dollar" unicode="$" horiz-adv-x="568" 
d="M267 -15c-69 0 -139 8 -207 32v204h14l93 -174c6 -10 8 -12 19 -15c21 -5 51 -7 81 -7v248l-48 17c-77 27 -154 82 -154 186c0 101 71 174 202 186v75h41v-73c46 0 98 -5 161 -19v-192h-14l-88 156c-6 9 -15 13 -25 14s-23 2 -34 2v-245l44 -13c90 -28 164 -72 164 -178
c0 -107 -75 -185 -208 -201v-76h-41v73zM412 147c0 62 -33 91 -104 114v-232c74 14 104 58 104 118zM160 512c0 -62 41 -97 107 -119v230c-71 -10 -107 -53 -107 -111z" />
    <glyph glyph-name="percent" unicode="%" horiz-adv-x="811" 
d="M588 333c-40 0 -63 -48 -63 -155c0 -108 23 -153 63 -153s63 45 63 152c0 109 -23 156 -63 156zM588 365c92 0 155 -61 155 -188s-61 -185 -155 -185c-91 0 -155 58 -155 185c0 125 64 188 155 188zM194 679c-40 0 -63 -48 -63 -155c0 -109 23 -153 63 -153s63 45 63 152
c0 109 -23 156 -63 156zM194 711c92 0 155 -61 155 -188s-61 -185 -155 -185c-91 0 -155 58 -155 185c0 125 64 188 155 188zM641 694l-448 -709l-38 25l449 708z" />
    <glyph glyph-name="ampersand" unicode="&#x26;" horiz-adv-x="757" 
d="M241 -12c-116 0 -197 78 -197 176c0 89 60 152 154 191c-50 59 -72 120 -72 175c0 105 74 179 186 179c102 0 168 -62 168 -145c0 -76 -55 -141 -163 -184l173 -194c25 35 49 78 70 121c8 16 10 24 0 32l-79 65v12h229v-12l-76 -61c-15 -12 -18 -17 -25 -28
c-31 -63 -64 -118 -92 -159c49 -57 83 -79 118 -79c52 0 93 43 95 109h13c1 -12 3 -25 3 -39c0 -100 -59 -159 -146 -159c-60 0 -104 33 -156 93c-55 -58 -120 -93 -203 -93zM417 110l-196 221c-53 -34 -82 -82 -82 -142c0 -84 63 -142 141 -142c51 0 90 19 137 63zM295 405
c78 44 101 102 101 158c0 69 -39 105 -86 105c-55 0 -93 -45 -93 -105c0 -44 21 -99 78 -158z" />
    <glyph glyph-name="quotesingle" unicode="'" horiz-adv-x="221" 
d="M111 750c36 0 57 -26 57 -59c0 -13 -2 -24 -5 -33l-47 -175h-12l-47 175c-2 9 -5 20 -5 33c0 33 21 59 59 59z" />
    <glyph glyph-name="parenleft" unicode="(" horiz-adv-x="377" 
d="M178 305c0 -195 52 -347 160 -442l-8 -13c-162 70 -246 239 -246 455c0 217 84 386 246 456l8 -13c-108 -95 -160 -247 -160 -443z" />
    <glyph glyph-name="parenright" unicode=")" horiz-adv-x="377" 
d="M199 306c0 195 -51 347 -159 442l8 13c161 -70 246 -239 246 -455c0 -217 -85 -386 -246 -456l-8 13c108 95 159 247 159 443z" />
    <glyph glyph-name="asterisk" unicode="*" horiz-adv-x="444" 
d="M377 382l-88 -65l-68 170l-67 -170l-88 64l139 116l-180 12l34 104l153 -97l-44 176h109l-44 -176l151 96l34 -104l-178 -11z" />
    <glyph glyph-name="plus" unicode="+" 
d="M272 22v193h-192v54h192v193h56v-193h192v-54h-192v-193h-56z" />
    <glyph glyph-name="comma" unicode="," horiz-adv-x="274" 
d="M215 40c0 -93 -66 -173 -159 -193l-5 11c53 30 91 72 91 126c0 14 -3 18 -15 21c-42 10 -60 37 -60 67c0 37 27 68 69 68s79 -31 79 -100z" />
    <glyph glyph-name="hyphen" unicode="-" horiz-adv-x="403" 
d="M58 215v69h287v-69h-287z" />
    <glyph glyph-name="period" unicode="." horiz-adv-x="274" 
d="M64 65c0 42 31 75 73 75s73 -33 73 -75s-31 -75 -73 -75s-73 33 -73 75z" />
    <glyph glyph-name="slash" unicode="/" horiz-adv-x="391" 
d="M370 735l-297 -886l-52 16l297 885z" />
    <glyph glyph-name="zero" unicode="0" horiz-adv-x="592" 
d="M296 -12c-142 0 -253 96 -253 262c0 167 114 268 253 268c142 0 252 -96 252 -262c0 -167 -113 -268 -252 -268zM296 31c86 0 135 85 135 218c0 140 -49 226 -135 226s-135 -86 -135 -219c0 -140 48 -225 135 -225z" />
    <glyph glyph-name="one" unicode="1" horiz-adv-x="416" 
d="M186 79v315c0 12 -3 15 -14 19l-105 34v12l224 59v-439c0 -11 1 -15 12 -20l90 -47v-12h-318v12l99 47c10 5 12 9 12 20z" />
    <glyph glyph-name="two" unicode="2" horiz-adv-x="520" 
d="M461 0h-421v15c36 35 97 89 141 129c82 76 152 156 152 232c0 63 -38 100 -103 100c-9 0 -23 -1 -33 -2c-11 -2 -14 -3 -20 -14l-65 -123h-12l-40 141c60 26 122 40 185 40c133 0 202 -65 202 -149c0 -127 -173 -225 -289 -285h219c22 0 25 0 37 18l52 73h13z" />
    <glyph glyph-name="three" unicode="3" horiz-adv-x="479" 
d="M15 -157l-2 21c142 25 299 95 299 219c0 73 -57 106 -128 106c-16 0 -31 -2 -45 -5v22c78 19 157 69 157 167c0 70 -45 103 -106 103c-11 0 -23 -1 -31 -2c-10 -2 -13 -3 -18 -14l-66 -121h-12l-40 139c57 26 122 40 180 40c132 0 204 -59 204 -142
c0 -74 -61 -128 -137 -151c75 -1 157 -46 157 -140c0 -102 -84 -172 -186 -209c-54 -19 -127 -36 -188 -36c-17 0 -29 1 -38 3z" />
    <glyph glyph-name="four" unicode="4" horiz-adv-x="523" 
d="M401 -148h-100v177h-289v12l286 465h103v-430h94v-47h-94v-177zM89 76h212v348z" />
    <glyph glyph-name="five" unicode="5" horiz-adv-x="491" 
d="M249 -123c-55 -21 -118 -34 -187 -37c-14 0 -27 1 -38 3l-2 21c161 25 303 107 303 227c0 80 -56 116 -127 116c-43 0 -82 -14 -106 -33h-14l8 329c47 -1 177 -1 230 -1c40 0 51 7 69 29l23 28h13l-9 -91c-5 -43 -20 -57 -59 -57c-67 0 -149 0 -220 1l-6 -187
c23 17 74 38 133 38c110 0 179 -65 179 -164c0 -104 -68 -178 -190 -222z" />
    <glyph glyph-name="six" unicode="6" horiz-adv-x="556" 
d="M287 -13c-149 0 -238 115 -238 278c0 248 194 399 409 399c17 0 27 -1 37 -3l2 -21c-194 -34 -338 -153 -338 -377c0 -143 56 -234 129 -234c60 0 111 61 111 171c0 109 -52 162 -119 162c-23 0 -44 -7 -66 -23l-8 11c30 37 71 61 131 61c93 0 175 -71 175 -200
c0 -133 -95 -224 -225 -224z" />
    <glyph glyph-name="seven" unicode="7" horiz-adv-x="477" 
d="M237 -148h-120v12c96 228 208 465 253 551h-236c-19 0 -21 0 -32 -15l-59 -72h-12l17 178h415v-13l-49 -67c-11 -13 -15 -24 -19 -37c-48 -141 -101 -330 -158 -537z" />
    <glyph glyph-name="eight" unicode="8" horiz-adv-x="540" 
d="M267 -12c-113 0 -219 65 -219 162c0 82 78 136 154 167l-34 20c-53 30 -97 85 -97 157c0 103 91 169 199 169c103 0 189 -59 189 -150c0 -79 -67 -131 -134 -152l42 -24c64 -36 123 -81 123 -166c0 -104 -90 -183 -223 -183zM298 261l-71 41c-45 -30 -86 -78 -86 -145
c0 -76 53 -129 127 -129s122 53 122 113c0 45 -26 81 -92 120zM161 521c0 -45 26 -82 84 -115l55 -31c51 37 72 84 72 134c0 73 -47 113 -104 113c-59 0 -107 -40 -107 -101z" />
    <glyph glyph-name="nine" unicode="9" horiz-adv-x="556" 
d="M269 518c150 0 238 -115 238 -278c0 -248 -194 -399 -409 -399c-17 0 -27 1 -37 3l-2 21c194 34 338 153 338 377c0 143 -55 234 -129 234c-60 0 -111 -61 -111 -171c0 -109 52 -162 119 -162c23 0 44 6 66 22l8 -10c-30 -37 -71 -61 -131 -61c-93 0 -175 70 -175 200
c0 133 95 224 225 224z" />
    <glyph glyph-name="colon" unicode=":" horiz-adv-x="290" 
d="M72 65c0 42 31 75 73 75s73 -33 73 -75s-31 -75 -73 -75s-73 33 -73 75zM72 376c0 42 31 75 73 75s73 -33 73 -75c0 -41 -31 -74 -73 -74s-73 33 -73 74z" />
    <glyph glyph-name="semicolon" unicode=";" horiz-adv-x="290" 
d="M223 40c0 -93 -66 -173 -159 -193l-5 11c53 30 91 72 91 126c0 14 -3 18 -15 21c-42 10 -60 37 -60 67c0 37 27 68 69 68s79 -31 79 -100zM72 376c0 42 31 75 73 75s73 -33 73 -75c0 -41 -31 -74 -73 -74s-73 33 -73 74z" />
    <glyph glyph-name="less" unicode="&#x3c;" 
d="M477 55l-398 182v12l398 182l20 -50l-302 -137v-2l302 -137z" />
    <glyph glyph-name="equal" unicode="=" 
d="M520 304h-440v54h440v-54zM520 129h-440v54h440v-54z" />
    <glyph glyph-name="greater" unicode="&#x3e;" 
d="M123 55l-20 51l302 137v2l-302 137l20 50l398 -182v-12z" />
    <glyph glyph-name="question" unicode="?" horiz-adv-x="432" 
d="M198 219h-13c-17 19 -28 39 -28 68c0 38 22 71 59 107l43 40c33 32 54 67 54 118c0 71 -44 126 -121 126c-12 0 -23 -1 -34 -3c-12 -4 -14 -7 -20 -19l-60 -124h-13l-52 138c59 32 129 47 190 47c135 0 220 -72 220 -175c0 -65 -34 -111 -79 -149l-93 -80
c-33 -29 -59 -63 -53 -94zM193 -10c-42 0 -73 33 -73 75s31 75 73 75c41 0 72 -33 72 -75s-31 -75 -72 -75z" />
    <glyph glyph-name="at" unicode="@" horiz-adv-x="1053" 
d="M447 51c36 0 78 42 113 121c33 63 57 138 81 235c-3 31 -22 48 -52 48c-83 0 -189 -154 -189 -314c0 -63 17 -90 47 -90zM760 500l-79 -323c-6 -24 -8 -43 -8 -74c0 -41 19 -74 59 -74c82 0 172 130 172 293c0 206 -135 332 -327 332c-236 0 -423 -210 -423 -469
c0 -247 175 -372 375 -372c94 0 181 28 241 72l8 -9c-54 -71 -153 -118 -284 -118c-234 0 -428 149 -428 423c0 301 230 514 517 514c241 0 406 -145 406 -360c0 -204 -150 -346 -283 -346c-84 0 -140 47 -118 170l-5 2c-42 -100 -101 -172 -179 -172
c-63 0 -107 54 -107 153c0 204 154 360 278 360c45 0 74 -21 83 -56l91 54h11z" />
    <glyph glyph-name="A" unicode="A" horiz-adv-x="692" 
d="M496 86l-50 131h-254l-40 -109c-5 -13 -4 -17 9 -27l86 -67v-14h-253v14l85 65c12 10 16 12 22 28l178 481c5 14 6 19 -1 31l-38 73v11h140l235 -615c6 -15 8 -18 19 -26l60 -48v-14h-283v14l80 53c8 5 8 8 5 19zM317 560l-111 -301h224z" />
    <glyph glyph-name="B" unicode="B" horiz-adv-x="654" 
d="M352 0h-322v14l85 52c8 5 10 8 10 20v531c0 12 -2 15 -10 20l-85 52v14h315c135 0 232 -60 232 -176c0 -87 -63 -148 -151 -156c108 -14 183 -72 183 -177c0 -124 -104 -194 -257 -194zM338 41c91 0 146 51 146 154c0 101 -66 143 -148 143h-96v-282c0 -12 3 -15 14 -15
h84zM240 647v-269h92c66 0 121 42 121 146c0 90 -47 138 -121 138h-78c-11 0 -14 -3 -14 -15z" />
    <glyph glyph-name="C" unicode="C" horiz-adv-x="645" 
d="M390 -15c-237 0 -351 159 -351 367c0 212 134 366 357 366c55 0 118 -8 184 -24v-207h-13l-102 169c-7 12 -11 13 -24 16c-15 3 -33 4 -47 4c-154 0 -222 -133 -222 -319c0 -201 69 -330 224 -330c13 0 29 1 43 3c16 3 19 4 25 15l105 173h13v-208
c-58 -17 -135 -25 -192 -25z" />
    <glyph glyph-name="D" unicode="D" horiz-adv-x="719" 
d="M322 0h-292v14l85 52c8 5 10 8 10 20v531c0 12 -2 15 -10 20l-85 52v14h306c206 0 345 -125 345 -340c0 -257 -198 -363 -359 -363zM318 41c119 0 229 89 229 317c0 196 -81 304 -221 304h-72c-11 0 -14 -3 -14 -15v-591c0 -12 3 -15 14 -15h64z" />
    <glyph glyph-name="E" unicode="E" horiz-adv-x="635" 
d="M470 238h-12l-60 81c-9 11 -13 13 -26 13h-132v-276c0 -13 3 -15 14 -15h189c14 0 16 2 24 14l94 146h14v-201h-545v14l85 52c8 5 10 8 10 20v531c0 12 -2 15 -10 20l-85 52v14h539v-201h-14l-88 146c-7 12 -10 14 -24 14h-189c-11 0 -14 -2 -14 -15v-273h132
c13 0 17 2 26 13l60 81h12v-230z" />
    <glyph glyph-name="F" unicode="F" horiz-adv-x="592" 
d="M470 238h-12l-60 81c-9 11 -13 13 -26 13h-132v-240c0 -12 2 -16 12 -21l121 -57v-14h-343v14l85 52c8 5 10 8 10 20v531c0 12 -2 15 -10 20l-85 52v14h539v-201h-14l-88 146c-7 12 -10 14 -24 14h-189c-11 0 -14 -2 -14 -15v-273h132c13 0 17 2 26 13l60 81h12v-230z
" />
    <glyph glyph-name="G" unicode="G" horiz-adv-x="710" 
d="M373 -15c-222 0 -334 150 -334 371c0 209 131 362 371 362c60 0 128 -6 197 -24v-207h-13l-102 169c-6 11 -9 13 -23 16c-12 2 -37 4 -57 4c-162 0 -241 -122 -241 -315c0 -209 68 -334 226 -334c30 0 54 4 79 11c17 5 19 7 19 21v167c0 12 -2 15 -10 20l-76 50v14h286
v-14l-74 -49c-8 -5 -11 -8 -11 -21v-241l-105 19c-34 -9 -78 -19 -132 -19z" />
    <glyph glyph-name="H" unicode="H" horiz-adv-x="792" 
d="M667 617v-531c0 -12 2 -15 10 -20l85 -52v-14h-305v14l84 52c9 5 11 8 11 20v251h-312v-251c0 -12 2 -15 11 -20l85 -52v-14h-306v14l85 52c8 5 10 8 10 20v531c0 12 -2 15 -10 20l-85 52v14h306v-14l-85 -52c-9 -5 -11 -8 -11 -20v-236h312v236c0 12 -2 15 -11 20
l-84 52v14h305v-14l-85 -52c-8 -5 -10 -8 -10 -20z" />
    <glyph glyph-name="I" unicode="I" horiz-adv-x="366" 
d="M336 0h-306v14l85 52c8 5 10 8 10 20v531c0 12 -2 15 -10 20l-85 52v14h306v-14l-85 -52c-9 -5 -11 -8 -11 -20v-531c0 -12 2 -15 11 -20l85 -52v-14z" />
    <glyph glyph-name="J" unicode="J" horiz-adv-x="331" 
d="M224 29c0 -147 -87 -217 -226 -244l-5 13c86 38 116 120 116 221v598c0 12 -2 15 -11 20l-85 52v14h306v-14l-85 -52c-8 -5 -10 -8 -10 -20v-588z" />
    <glyph glyph-name="K" unicode="K" horiz-adv-x="680" 
d="M240 365v-279c0 -12 2 -15 11 -20l85 -52v-14h-306v14l85 52c8 5 10 8 10 20v531c0 12 -2 15 -10 20l-85 52v14h306v-14l-85 -52c-9 -5 -11 -8 -11 -20v-252l235 240c11 11 12 16 2 25l-61 59v14h268v-14l-118 -66c-22 -12 -26 -14 -43 -32l-176 -179l223 -315
c13 -19 17 -23 35 -34l81 -47v-16h-184z" />
    <glyph glyph-name="L" unicode="L" horiz-adv-x="573" 
d="M254 41h161c16 0 19 2 27 14l92 153h13v-208h-517v14l85 52c8 5 10 8 10 20v531c0 12 -2 15 -10 20l-85 52v14h306v-14l-85 -52c-9 -5 -11 -8 -11 -20v-561c0 -13 3 -15 14 -15z" />
    <glyph glyph-name="M" unicode="M" horiz-adv-x="913" 
d="M131 114v496c0 12 -2 16 -11 21l-86 58v14h212l221 -528l207 528h209v-14l-85 -52c-8 -5 -10 -8 -10 -20v-531c0 -12 2 -15 10 -20l85 -52v-14h-304v14l85 52c9 5 10 8 10 20v495l-228 -581h-23l-245 584v-470c0 -13 3 -18 11 -25l93 -75v-14h-253v14l91 75
c9 7 11 12 11 25z" />
    <glyph glyph-name="N" unicode="N" horiz-adv-x="747" 
d="M637 589v-589h-58l-400 581v-467c0 -13 2 -18 11 -25l93 -75v-14h-253v14l91 75c8 7 11 12 11 25v487c0 13 -2 16 -10 21l-91 67v14h200l359 -524v410c0 12 -2 18 -11 25l-93 75v14h253v-14l-91 -75c-8 -7 -11 -13 -11 -25z" />
    <glyph glyph-name="O" unicode="O" horiz-adv-x="736" 
d="M368 718c187 0 330 -132 330 -364c0 -223 -142 -369 -330 -369c-187 0 -329 131 -329 363c0 224 142 370 329 370zM365 676c-111 0 -192 -104 -192 -320c0 -215 80 -329 198 -329c112 0 192 103 192 320c0 215 -80 329 -198 329z" />
    <glyph glyph-name="P" unicode="P" horiz-adv-x="621" 
d="M329 262h-89v-170c0 -12 2 -16 12 -21l121 -57v-14h-343v14l85 52c8 5 10 8 10 20v531c0 12 -2 15 -10 20l-85 52v14h311c148 0 256 -71 256 -213c0 -144 -119 -228 -268 -228zM240 647v-343h85c85 0 147 62 147 180c0 117 -56 178 -138 178h-79c-13 0 -15 -3 -15 -15z
" />
    <glyph glyph-name="Q" unicode="Q" horiz-adv-x="736" 
d="M368 718c187 0 330 -132 330 -364c0 -223 -142 -369 -330 -369c-25 0 -50 3 -73 7l-70 -65l218 -53c37 -9 71 -16 111 -16c51 0 85 13 115 42l40 39l11 -6l-27 -58c-33 -70 -77 -111 -164 -111c-42 0 -84 9 -138 22l-210 51c-20 5 -40 10 -55 10c-13 0 -25 -2 -36 -8
l-7 13l172 151c-128 42 -216 163 -216 345c0 224 142 370 329 370zM365 676c-111 0 -192 -104 -192 -320c0 -215 80 -329 198 -329c112 0 192 103 192 320c0 215 -80 329 -198 329z" />
    <glyph glyph-name="R" unicode="R" horiz-adv-x="681" 
d="M670 0h-163l-155 297c-7 13 -12 13 -25 13h-87v-224c0 -12 3 -15 11 -21l84 -51v-14h-305v14l85 52c8 5 10 8 10 20v531c0 12 -2 15 -10 20l-85 52v14h313c143 0 249 -61 249 -182c0 -96 -61 -160 -140 -181l139 -252c9 -13 15 -23 25 -31l54 -43v-14zM240 647v-296h92
c69 0 135 48 135 159c0 104 -64 152 -135 152h-78c-11 0 -14 -3 -14 -15z" />
    <glyph glyph-name="S" unicode="S" horiz-adv-x="571" 
d="M259 -15c-66 0 -137 10 -200 32v205h14l92 -172c6 -11 9 -15 21 -18c25 -5 45 -7 71 -7c103 0 168 52 168 129c0 70 -49 102 -123 133l-84 35c-79 33 -155 89 -155 195c0 125 106 201 256 201c54 0 108 -5 164 -19v-192h-13l-88 153c-6 10 -12 14 -21 15
c-13 2 -27 3 -43 3c-99 0 -154 -56 -154 -127c0 -54 32 -92 105 -123l92 -38c93 -39 169 -82 169 -190c0 -127 -100 -215 -271 -215z" />
    <glyph glyph-name="T" unicode="T" horiz-adv-x="644" 
d="M619 703v-208h-14l-89 151c-9 15 -12 16 -27 16h-110v-576c0 -12 2 -15 11 -20l85 -52v-14h-306v14l85 52c8 5 10 8 10 20v576h-110c-14 0 -17 -1 -27 -16l-89 -151h-13v208h594z" />
    <glyph glyph-name="U" unicode="U" horiz-adv-x="724" 
d="M370 -15c-184 0 -259 93 -259 255v376c0 11 -2 15 -11 20l-84 53v14h304v-14l-84 -53c-8 -5 -10 -8 -10 -20v-361c0 -134 59 -218 169 -218c103 0 177 69 177 215v337c0 12 -3 18 -12 25l-93 75v14h254v-14l-92 -75c-8 -7 -11 -13 -11 -25v-342
c0 -154 -74 -262 -248 -262z" />
    <glyph glyph-name="V" unicode="V" horiz-adv-x="665" 
d="M300 0l-226 615c-6 16 -8 18 -20 27l-58 47v14h281v-14l-79 -53c-7 -5 -8 -8 -4 -19l168 -469l167 447c4 13 2 17 -9 26l-87 68v14h254v-14l-85 -64c-13 -10 -17 -13 -23 -29l-224 -596h-55z" />
    <glyph glyph-name="W" unicode="W" horiz-adv-x="994" 
d="M291 0l-217 615c-6 16 -8 18 -19 27l-59 47v14h281v-14l-79 -53c-7 -5 -8 -8 -4 -19l158 -466l128 355l-34 109c-5 15 -10 20 -20 28l-55 46v14h275v-14l-78 -53c-8 -5 -8 -8 -5 -19l137 -462l158 440c4 14 2 17 -9 26l-87 68v14h254v-14l-85 -64
c-13 -10 -17 -13 -23 -29l-216 -596h-54l-136 434l-156 -434h-55z" />
    <glyph glyph-name="X" unicode="X" horiz-adv-x="676" 
d="M13 0v14l97 70c11 7 17 13 27 28l150 226l-187 272c-9 13 -14 18 -27 27l-69 52v14h278v-14l-59 -41c-10 -7 -9 -14 -2 -23l139 -213l125 190c7 10 7 16 -1 23l-76 64v14h250v-14l-97 -70c-11 -8 -18 -13 -27 -27l-147 -221l190 -278c9 -13 15 -18 28 -28l67 -51v-14
h-277v14l59 41c9 7 8 14 1 24l-140 217l-129 -195c-7 -10 -7 -16 0 -23l77 -64v-14h-250z" />
    <glyph glyph-name="Y" unicode="Y" horiz-adv-x="652" 
d="M479 0h-305v14l84 52c9 5 11 8 11 20v170c0 16 -2 24 -8 35l-186 323c-9 15 -14 22 -26 31l-56 44v14h289v-14l-78 -50c-8 -6 -9 -11 -4 -21l161 -287l146 271c5 10 4 14 -3 20l-86 67v14h251v-14l-89 -66c-14 -11 -16 -13 -25 -30l-163 -302c-6 -11 -8 -18 -8 -34v-171
c0 -12 2 -15 10 -20l85 -52v-14z" />
    <glyph glyph-name="Z" unicode="Z" horiz-adv-x="575" 
d="M535 0h-505v14l381 648h-236c-14 0 -16 -1 -24 -13l-89 -157h-13v211h504v-14l-383 -648h241c14 0 16 1 24 13l95 164h13z" />
    <glyph glyph-name="bracketleft" unicode="[" horiz-adv-x="377" 
d="M337 -146l-212 -9v921l212 -8v-14l-122 -34c-11 -3 -14 -7 -14 -18v-771c0 -11 3 -16 14 -18l122 -35v-14z" />
    <glyph glyph-name="backslash" unicode="\" horiz-adv-x="391" 
d="M318 -151l-297 886l52 15l297 -885z" />
    <glyph glyph-name="bracketright" unicode="]" horiz-adv-x="377" 
d="M253 -155l-213 9v14l123 35c10 2 13 7 13 18v771c0 11 -3 15 -13 18l-123 34v14l213 8v-921z" />
    <glyph glyph-name="asciicircum" unicode="^" horiz-adv-x="548" 
d="M128 304l-50 21l189 411h12l190 -412l-49 -21l-146 316h-2z" />
    <glyph glyph-name="underscore" unicode="_" horiz-adv-x="550" 
d="M520 -106h-490v57h490v-57z" />
    <glyph glyph-name="grave" unicode="`" horiz-adv-x="308" 
d="M253 569h-14l-184 145v12h138z" />
    <glyph glyph-name="a" unicode="a" horiz-adv-x="522" 
d="M249 276c27 0 58 -4 84 -10c0 34 1 65 1 78c0 79 -36 119 -105 119c-10 0 -18 -1 -23 -2c-7 -1 -13 -4 -17 -12l-65 -118h-13l-38 137c57 24 109 34 167 34c140 0 193 -63 193 -173c0 -79 -5 -162 -5 -225c0 -35 14 -54 35 -54c15 0 29 9 39 22l9 -8
c-10 -47 -49 -75 -95 -75c-50 0 -83 33 -86 86c-27 -48 -79 -86 -147 -86c-79 0 -138 49 -138 128c0 93 83 159 204 159zM227 50c41 0 82 27 103 80c1 28 2 64 2 100c-19 4 -39 6 -54 6c-78 0 -128 -44 -128 -106c0 -52 35 -80 77 -80z" />
    <glyph glyph-name="b" unicode="b" horiz-adv-x="568" 
d="M76 -12v646c0 10 -1 14 -9 21l-57 50v12l170 33v-323c39 50 84 75 147 75c112 0 200 -94 200 -242c0 -182 -118 -272 -225 -272c-54 0 -102 20 -132 52l-82 -52h-12zM286 439c-43 0 -78 -21 -106 -65v-284c16 -33 53 -54 93 -54c74 0 141 64 141 216
c0 120 -52 187 -128 187z" />
    <glyph glyph-name="c" unicode="c" horiz-adv-x="479" 
d="M150 258c0 -136 74 -199 161 -199c55 0 94 24 125 58l11 -10c-27 -69 -96 -119 -183 -119c-128 0 -225 87 -225 246c0 170 112 268 262 268c45 0 92 -7 142 -25l-44 -148h-13l-61 118c-4 8 -6 11 -12 12c-3 0 -10 1 -16 1c-81 0 -147 -70 -147 -202z" />
    <glyph glyph-name="d" unicode="d" horiz-adv-x="591" 
d="M279 51c40 0 86 23 108 74v286c-21 26 -60 43 -95 43c-65 0 -138 -57 -138 -206c0 -134 58 -197 125 -197zM567 0h-169v86c-29 -61 -86 -98 -154 -98c-104 0 -204 87 -204 250c0 172 112 264 230 264c43 0 84 -13 117 -40v172c0 10 0 14 -8 21l-58 50v12l171 33v-653
c0 -10 1 -12 10 -21l65 -64v-12z" />
    <glyph glyph-name="e" unicode="e" horiz-adv-x="510" 
d="M461 257h-313c1 -151 82 -198 159 -198c51 0 108 20 152 69l10 -8c-35 -89 -109 -132 -201 -132c-127 0 -229 83 -229 252c0 174 104 262 226 262c110 0 196 -60 196 -221v-24zM260 460c-60 0 -106 -55 -112 -163h209c-4 105 -34 163 -97 163z" />
    <glyph glyph-name="f" unicode="f" horiz-adv-x="373" 
d="M39 0v12l71 46c8 6 10 9 10 20v362h-72v50h72v94c0 110 64 166 166 166c38 0 93 -8 127 -20l-51 -139h-12l-46 106c-5 12 -7 13 -16 13c-52 0 -68 -45 -68 -124c0 -22 1 -63 3 -96h133v-50h-132v-352c0 -14 3 -17 14 -22l111 -54v-12h-310z" />
    <glyph glyph-name="g" unicode="g" horiz-adv-x="549" 
d="M251 -245c-101 0 -222 41 -222 125c0 50 45 89 115 106c-49 10 -84 46 -84 90c0 51 48 89 108 105c-58 19 -113 74 -113 154c0 104 90 167 205 167c53 0 95 -14 123 -29c12 -7 17 -8 27 0l112 100h12v-132h-109c22 -16 48 -55 48 -107c0 -104 -95 -168 -211 -168
c-21 0 -42 2 -59 5c-35 -8 -55 -28 -55 -50c0 -24 20 -43 87 -43h110c102 0 166 -48 166 -133c0 -116 -124 -190 -260 -190zM264 206c58 0 104 47 104 131s-47 124 -104 124c-58 0 -104 -40 -104 -124c0 -85 47 -131 104 -131zM267 -201c90 0 167 42 167 107
c0 43 -30 66 -106 69l-131 5c-19 1 -12 1 -24 2c-34 -16 -54 -46 -54 -83c0 -67 67 -100 148 -100z" />
    <glyph glyph-name="h" unicode="h" horiz-adv-x="612" 
d="M418 285c0 119 -44 152 -97 152c-50 0 -90 -33 -117 -84v-275c0 -11 2 -14 10 -20l71 -46v-12h-266v12l70 46c9 6 11 9 11 20v556c0 10 -1 14 -9 21l-58 50v12l171 33v-342c38 59 82 94 156 94c103 0 164 -67 164 -205c0 -63 -2 -150 -3 -219c0 -11 2 -14 11 -20l70 -46
v-12h-266v12l70 46c10 7 11 9 11 20c1 31 1 157 1 207z" />
    <glyph glyph-name="i" unicode="i" horiz-adv-x="322" 
d="M89 660c0 41 31 71 68 71c40 0 70 -30 70 -71c0 -39 -30 -70 -70 -70c-37 0 -68 31 -68 70zM120 78v312c0 10 -1 13 -8 20l-73 67v13h185v-412c0 -11 2 -14 10 -20l71 -46v-12h-266v12l70 46c9 6 11 9 11 20z" />
    <glyph glyph-name="j" unicode="j" horiz-adv-x="284" 
d="M207 21c0 -177 -94 -264 -235 -266l-2 15c86 20 133 102 133 238v382c0 10 -1 13 -8 20l-73 67v13h185v-469zM71 661c0 40 31 70 69 70s69 -30 69 -70s-30 -71 -69 -71s-69 31 -69 71z" />
    <glyph glyph-name="k" unicode="k" horiz-adv-x="548" 
d="M557 0h-157l-165 235c-14 20 -19 24 -31 24v-181c0 -11 2 -14 10 -20l71 -46v-12h-266v12l70 46c9 6 11 9 11 20v556c0 10 -1 14 -9 21l-58 50v12l171 33v-479l174 137c9 7 9 12 1 18l-66 51v13h220v-13l-212 -168c-6 -5 -6 -9 -2 -15l155 -221c6 -10 13 -16 24 -23
l59 -38v-12z" />
    <glyph glyph-name="l" unicode="l" horiz-adv-x="303" 
d="M285 0h-266v12l70 46c9 6 11 9 11 20v556c0 10 -1 14 -9 21l-58 50v12l171 33v-672c0 -11 2 -14 10 -20l71 -46v-12z" />
    <glyph glyph-name="m" unicode="m" horiz-adv-x="950" 
d="M622 0h-266v12l70 46c10 7 11 9 11 20c1 31 1 157 1 207c0 121 -44 152 -97 152c-50 0 -90 -33 -117 -84v-275c0 -11 2 -14 10 -20l71 -46v-12h-266v12l70 46c9 6 11 9 11 20v312c0 10 -1 13 -8 20l-73 67v13h174v-96c29 58 81 108 165 108c76 0 129 -36 152 -109
c37 70 88 109 168 109c101 0 163 -68 163 -205c0 -63 -1 -150 -2 -219c0 -11 2 -14 10 -20l71 -46v-12h-266v12l69 46c11 7 11 9 11 20c1 31 2 157 2 207c0 121 -45 152 -96 152c-53 0 -93 -35 -120 -87c2 -16 4 -34 4 -53c0 -63 -2 -150 -2 -219c0 -11 1 -14 10 -20l70 -46
v-12z" />
    <glyph glyph-name="n" unicode="n" horiz-adv-x="632" 
d="M622 0h-266v12l70 46c10 7 11 9 11 20c1 31 1 157 1 207c0 121 -44 152 -97 152c-50 0 -90 -33 -117 -84v-275c0 -11 2 -14 10 -20l71 -46v-12h-266v12l70 46c9 6 11 9 11 20v312c0 10 -1 13 -8 20l-73 67v13h174v-96c29 58 81 108 165 108c105 0 166 -67 166 -205
c0 -63 -2 -150 -2 -219c0 -11 1 -14 10 -20l70 -46v-12z" />
    <glyph glyph-name="o" unicode="o" horiz-adv-x="564" 
d="M279 -12c-134 0 -241 91 -241 253c0 164 110 261 247 261c133 0 240 -91 240 -253c0 -164 -110 -261 -246 -261zM285 30c81 0 121 92 121 214c0 120 -41 216 -126 216c-83 0 -123 -92 -123 -214c0 -121 41 -216 128 -216z" />
    <glyph glyph-name="p" unicode="p" horiz-adv-x="592" 
d="M332 -235h-311v12l71 46c8 6 10 9 10 20v547c0 10 -1 13 -8 20l-73 67v13h175v-88c37 73 95 100 158 100c109 0 198 -87 198 -243c0 -176 -111 -271 -225 -271c-51 0 -94 19 -120 47v-182c0 -14 2 -17 13 -22l112 -54v-12zM300 35c70 0 138 63 138 216
c0 115 -50 190 -124 190c-40 0 -80 -22 -107 -78v-276c22 -34 54 -52 93 -52z" />
    <glyph glyph-name="q" unicode="q" horiz-adv-x="569" 
d="M246 -12c-108 0 -206 89 -206 243c0 189 121 271 228 271c55 0 102 -22 129 -51l84 51h12v-658c0 -11 0 -14 11 -22l57 -45v-12h-268v12l84 47c9 6 11 9 11 20v214c-32 -47 -87 -70 -142 -70zM282 47c34 0 80 17 105 57v295c-19 38 -62 56 -97 56
c-67 0 -136 -61 -136 -209c0 -131 56 -199 128 -199z" />
    <glyph glyph-name="r" unicode="r" horiz-adv-x="445" 
d="M349 0h-310v12l70 46c9 6 11 9 11 20v312c0 10 -1 13 -8 20l-73 67v13h174v-131c36 103 86 143 145 143c20 0 41 -6 63 -19l-37 -148h-12l-54 85c-4 6 -6 7 -12 7c-7 0 -15 -3 -25 -13c-21 -22 -43 -57 -57 -100v-226c0 -14 2 -17 13 -22l112 -54v-12z" />
    <glyph glyph-name="s" unicode="s" horiz-adv-x="470" 
d="M333 115c0 41 -33 58 -80 73l-81 27c-63 21 -116 63 -116 138c0 90 82 149 193 149c45 0 102 -9 157 -26l-38 -134h-12l-58 109c-4 7 -5 8 -13 10s-23 3 -35 3c-61 0 -105 -33 -105 -83c0 -42 40 -64 86 -78l87 -28c61 -19 108 -55 108 -127c0 -104 -89 -160 -207 -160
c-60 0 -126 14 -176 32l44 142h13l47 -109c6 -15 9 -18 18 -21c14 -4 33 -6 54 -6c58 0 113 29 114 89z" />
    <glyph glyph-name="t" unicode="t" horiz-adv-x="386" 
d="M195 664h12v-174h157v-50h-157v-307c0 -51 28 -79 71 -79c34 0 63 19 82 44l11 -7c-20 -66 -74 -103 -143 -103c-78 0 -125 48 -125 139v313h-76v50h56c16 0 18 0 27 17z" />
    <glyph glyph-name="u" unicode="u" horiz-adv-x="602" 
d="M578 0h-168v96c-33 -58 -87 -108 -169 -108c-96 0 -152 62 -152 196c0 71 2 137 2 206c0 12 -1 15 -10 22l-71 65v13h186c-2 -48 -2 -243 -2 -287c0 -74 4 -150 87 -150c48 0 90 34 118 83v254c0 12 -1 15 -10 22l-71 65v13h185v-393c0 -10 1 -12 11 -21l64 -64v-12z" />
    <glyph glyph-name="v" unicode="v" horiz-adv-x="501" 
d="M170 429c-7 -6 -8 -9 -5 -18l112 -304l119 293c4 10 2 14 -3 18l-76 59v13h195v-13l-58 -61c-8 -9 -11 -15 -16 -27l-160 -389h-66l-159 410c-5 12 -8 16 -15 25l-38 42v13h233v-13z" />
    <glyph glyph-name="w" unicode="w" horiz-adv-x="784" 
d="M167 428c-7 -5 -8 -9 -5 -17l110 -303l97 247l-19 55c-5 12 -8 17 -15 26l-38 41v13h230v-13l-63 -48c-8 -6 -9 -9 -6 -18l103 -301l118 290c3 9 3 13 -4 18l-76 59v13h196v-13l-59 -61c-8 -9 -11 -15 -16 -27l-157 -389h-61l-111 297l-119 -297h-61l-158 410
c-5 12 -8 16 -15 25l-38 42v13h232v-13z" />
    <glyph glyph-name="x" unicode="x" horiz-adv-x="523" 
d="M13 0v12l63 49c14 11 21 18 31 30l108 140l-131 180c-6 9 -12 16 -18 21l-56 45v13h231v-13l-45 -33c-10 -8 -11 -12 -4 -22l92 -128l90 117c5 7 4 13 -2 18l-63 48v13h201v-13l-64 -48c-15 -11 -21 -18 -30 -30l-108 -139l132 -181c7 -10 13 -17 19 -22l56 -45v-12h-232
v12l45 34c10 7 11 12 5 21l-93 130l-91 -118c-5 -6 -6 -13 1 -18l63 -49v-12h-200z" />
    <glyph glyph-name="y" unicode="y" horiz-adv-x="502" 
d="M73 -245c-24 0 -37 4 -47 12l37 151h12l55 -70c4 -6 7 -10 13 -10c8 0 17 8 26 21c25 34 38 61 54 103c3 8 5 14 1 23l-171 425c-5 12 -8 17 -14 25l-39 42v13h234v-13l-63 -49c-7 -6 -9 -8 -6 -17l116 -308l116 298c3 8 3 12 -3 17l-76 59v13h195v-13l-58 -62
c-8 -8 -12 -15 -17 -26l-151 -386c-25 -63 -63 -147 -109 -197c-34 -36 -65 -51 -105 -51z" />
    <glyph glyph-name="z" unicode="z" horiz-adv-x="473" 
d="M340 52l81 127h12l-11 -179h-384v12l275 435h-142c-13 0 -15 -1 -20 -10l-80 -124h-12v177h383v-12l-276 -436h153c13 0 15 1 21 10z" />
    <glyph glyph-name="braceleft" unicode="{" horiz-adv-x="377" 
d="M273 -154c-84 0 -156 44 -156 154c0 2 3 65 18 213c6 55 -26 85 -85 86v15c59 1 91 31 85 85c-18 179 -18 207 -18 214c0 112 72 154 156 154c22 0 44 -3 64 -9v-14c-98 -1 -133 -48 -133 -113c0 -10 1 -53 17 -219c6 -61 -21 -92 -87 -104v-3c66 -12 93 -44 87 -105
c-16 -166 -17 -208 -17 -217c0 -69 38 -114 133 -115v-14c-20 -5 -42 -8 -64 -8z" />
    <glyph glyph-name="bar" unicode="|" horiz-adv-x="335" 
d="M196 -235h-57v974h57v-974z" />
    <glyph glyph-name="braceright" unicode="}" horiz-adv-x="377" 
d="M104 -154c-21 0 -44 3 -64 8v14c95 1 133 46 133 115c0 9 -2 51 -17 217c-5 61 21 93 88 105v3c-67 12 -93 43 -88 104c15 166 17 209 17 219c0 65 -35 112 -133 113v14c20 6 43 9 64 9c84 0 156 -42 156 -154c0 -7 -1 -35 -18 -214c-5 -54 26 -84 85 -85v-15
c-59 -1 -90 -31 -85 -86c15 -148 18 -211 18 -213c0 -110 -72 -154 -156 -154z" />
    <glyph glyph-name="asciitilde" unicode="~" 
d="M413 180c-89 0 -152 71 -223 71c-43 0 -72 -23 -91 -53l-44 30c26 42 70 77 132 77c89 0 152 -71 222 -71c44 0 73 23 92 54l44 -31c-27 -42 -71 -77 -132 -77z" />
    <glyph glyph-name="uni00A0" unicode="&#xa0;" horiz-adv-x="0" 
 />
    <glyph glyph-name="exclamdown" unicode="&#xa1;" horiz-adv-x="289" 
d="M138 297h13l70 -508h-154zM219 427c0 -42 -31 -75 -73 -75c-41 0 -73 33 -73 75s32 75 73 75c42 0 73 -33 73 -75z" />
    <glyph glyph-name="cent" unicode="&#xa2;" horiz-adv-x="488" 
d="M256 -111v100h-9c-115 8 -203 94 -203 245c0 150 87 245 212 264v103h41v-101h13c43 0 90 -7 139 -24l-45 -147h-13l-59 114c-4 9 -9 14 -15 15s-9 1 -20 1v-399c2 -1 17 -1 18 -1c57 0 97 26 126 58l11 -10c-24 -60 -78 -107 -155 -116v-102h-41zM155 258
c0 -103 43 -164 101 -188v385c-57 -21 -101 -95 -101 -197z" />
    <glyph glyph-name="sterling" unicode="&#xa3;" horiz-adv-x="551" 
d="M46 306h69c-18 39 -37 82 -37 141c0 134 107 217 236 217c54 0 108 -10 148 -25l-37 -157h-12l-69 125c-6 12 -9 15 -29 15c-81 0 -133 -60 -133 -147c0 -60 30 -114 47 -169h141v-42h-133c3 -13 4 -28 4 -42c-3 -68 -47 -104 -91 -136h270c17 0 22 1 33 15l57 76h13
l-14 -177h-465v15l64 65c24 25 42 63 42 108c0 27 -8 51 -17 76h-87v42z" />
    <glyph glyph-name="Euro" unicode="&#x20ac;" horiz-adv-x="664" 
d="M416 -15c-197 0 -294 115 -317 268h-74v41h69c-1 11 -1 25 -1 37c0 9 0 20 1 31h-69v41h74c26 153 131 261 323 261c42 0 112 -5 176 -23v-200h-13l-97 161c-6 11 -12 15 -25 16c-16 3 -30 4 -42 4c-128 0 -192 -92 -208 -219h225v-41h-229v-27c0 -13 1 -29 2 -41h227
v-41h-223c19 -136 79 -226 208 -226c13 0 23 1 36 3c18 2 21 4 27 15l100 165h12v-202c-57 -16 -133 -23 -182 -23z" />
    <glyph glyph-name="yen" unicode="&#xa5;" horiz-adv-x="635" 
d="M462 0h-305v14l85 52c9 5 10 8 10 20v57h-138v41h138v62h-138v41h115l-156 278c-9 16 -15 22 -26 32l-47 43v14h269v-14l-68 -49c-9 -6 -9 -10 -4 -21l147 -269l143 256c4 8 4 14 -3 19l-84 64v14h248v-14l-88 -64c-15 -11 -18 -15 -27 -31l-144 -258h117v-41h-139v-62
h139v-41h-139v-57c0 -12 2 -15 11 -20l84 -52v-14z" />
    <glyph glyph-name="Scaron" unicode="&#x160;" horiz-adv-x="571" 
d="M306 767h-12l-142 159l8 10l140 -63l141 63l7 -10zM259 -15c-66 0 -137 10 -200 32v205h14l92 -172c6 -11 9 -15 21 -18c25 -5 45 -7 71 -7c103 0 168 52 168 129c0 70 -49 102 -123 133l-84 35c-79 33 -155 89 -155 195c0 125 106 201 256 201c54 0 108 -5 164 -19v-192
h-13l-88 153c-6 10 -12 14 -21 15c-13 2 -27 3 -43 3c-99 0 -154 -56 -154 -127c0 -54 32 -92 105 -123l92 -38c93 -39 169 -82 169 -190c0 -127 -100 -215 -271 -215z" />
    <glyph glyph-name="section" unicode="&#xa7;" horiz-adv-x="485" 
d="M436 261c0 -72 -45 -122 -95 -143c33 -33 51 -70 51 -121c0 -94 -69 -156 -175 -156c-41 0 -94 6 -134 24l47 139h12l61 -110c7 -13 9 -16 28 -16c46 0 82 37 82 89c0 45 -23 78 -73 112l-103 70c-59 40 -87 83 -87 145c0 71 44 121 94 142c-33 32 -50 67 -50 117
c0 97 69 161 175 161c41 0 94 -7 134 -25l-47 -138h-12l-61 110c-7 13 -9 16 -28 16c-46 0 -82 -39 -82 -94c0 -43 24 -74 73 -108l103 -69c59 -40 87 -83 87 -145zM286 329l-124 91c-18 -17 -33 -50 -33 -85s13 -67 71 -109l123 -91c19 16 34 48 34 85c0 35 -13 66 -71 109
z" />
    <glyph glyph-name="scaron" unicode="&#x161;" horiz-adv-x="470" 
d="M240 569h-12l-142 159l8 10l140 -63l141 63l7 -10zM333 115c0 41 -33 58 -80 73l-81 27c-63 21 -116 63 -116 138c0 90 82 149 193 149c45 0 102 -9 157 -26l-38 -134h-12l-58 109c-4 7 -5 8 -13 10s-23 3 -35 3c-61 0 -105 -33 -105 -83c0 -42 40 -64 86 -78l87 -28
c61 -19 108 -55 108 -127c0 -104 -89 -160 -207 -160c-60 0 -126 14 -176 32l44 142h13l47 -109c6 -15 9 -18 18 -21c14 -4 33 -6 54 -6c58 0 113 29 114 89z" />
    <glyph glyph-name="copyright" unicode="&#xa9;" horiz-adv-x="829" 
d="M415 -15c-205 0 -360 149 -360 365s155 365 360 365s359 -149 359 -365s-154 -365 -359 -365zM415 27c179 0 311 124 311 323c0 201 -133 323 -311 323s-312 -122 -312 -323c0 -199 133 -323 312 -323zM437 129c-156 0 -231 97 -231 218c0 134 87 224 234 224
c38 0 80 -5 123 -14v-142h-13l-68 108c-4 6 -7 7 -19 9c-8 1 -14 1 -17 1c-97 0 -130 -77 -130 -179c0 -111 37 -185 129 -185h21c8 0 14 3 19 11l66 106h13v-143c-44 -9 -92 -14 -127 -14z" />
    <glyph glyph-name="ordfeminine" unicode="&#xaa;" horiz-adv-x="447" 
d="M203 583c19 0 39 -2 57 -6c1 25 1 48 1 57c0 54 -23 83 -82 83c-10 0 -11 -2 -15 -10l-45 -82h-9l-31 100c45 16 85 25 133 25c35 0 90 -4 115 -56c10 -22 13 -48 13 -87c0 -45 -2 -106 -2 -151c0 -26 10 -38 25 -38c12 0 20 3 28 12l7 -6c-12 -35 -35 -54 -66 -54
c-35 0 -63 25 -65 63c-19 -36 -58 -63 -109 -63c-56 0 -101 38 -101 95c0 69 63 118 146 118zM195 419c19 0 46 13 63 39c0 18 1 59 2 88c-11 3 -23 4 -33 4c-55 0 -88 -32 -88 -77c0 -34 23 -54 56 -54z" />
    <glyph glyph-name="guillemotleft" unicode="&#xab;" horiz-adv-x="444" 
d="M218 60l-184 196v9l184 196l10 -9l-91 -192l91 -191zM389 60l-184 196v9l184 196l10 -9l-91 -192l91 -191z" />
    <glyph glyph-name="logicalnot" unicode="&#xac;" 
d="M530 97h-55v189h-415v53h470v-242z" />
    <glyph glyph-name="uni00AD" unicode="&#xad;" horiz-adv-x="0" 
 />
    <glyph glyph-name="registered" unicode="&#xae;" horiz-adv-x="501" 
d="M250 303c-126 0 -224 92 -224 221c0 130 98 222 224 222c127 0 225 -92 225 -222c0 -129 -98 -221 -225 -221zM250 341c107 0 184 68 184 183s-78 184 -184 184c-104 0 -182 -69 -182 -184s77 -183 182 -183zM170 454v154c0 6 0 9 -5 11l-28 20v10h129
c51 0 88 -21 88 -67c0 -31 -21 -51 -48 -60l4 -5l12 -19l32 -51c3 -6 8 -11 13 -14l19 -7v-12h-77l-46 83c-6 11 -8 11 -26 11h-12v-54c0 -6 1 -8 5 -11l29 -19v-10h-122v10l28 19c5 3 5 5 5 11zM225 615v-80h21c27 0 49 11 49 45c0 30 -20 43 -41 43h-23c-4 0 -6 -2 -6 -8z
" />
    <glyph glyph-name="macron" unicode="&#xaf;" horiz-adv-x="388" 
d="M328 603h-269v59h269v-59z" />
    <glyph glyph-name="degree" unicode="&#xb0;" horiz-adv-x="393" 
d="M196 447c-77 0 -147 56 -147 142c0 87 70 144 147 144s147 -56 147 -142c0 -87 -70 -144 -147 -144zM196 694c-54 0 -104 -44 -104 -104s50 -104 104 -104c55 0 104 44 104 104s-49 104 -104 104z" />
    <glyph glyph-name="plusminus" unicode="&#xb1;" 
d="M273 134v145h-193v55h193v141h56v-141h191v-55h-191v-145h-56zM520 16h-440v55h440v-55z" />
    <glyph glyph-name="twosuperior" unicode="&#xb2;" horiz-adv-x="346" 
d="M149 678c-13 0 -16 -3 -20 -10l-43 -80h-12l-31 99c34 14 77 24 121 24c91 0 132 -42 132 -101c0 -80 -86 -139 -174 -199h119c14 0 18 0 26 11l27 35h12l-17 -111h-251v12l68 74c59 65 101 118 101 178c0 44 -22 68 -58 68z" />
    <glyph glyph-name="threesuperior" unicode="&#xb3;" horiz-adv-x="346" 
d="M162 711c89 0 134 -37 134 -89c0 -51 -40 -78 -88 -86c58 -5 101 -36 101 -88c0 -64 -56 -110 -159 -110c-41 0 -87 7 -116 18l36 104h11l41 -81c4 -8 10 -8 22 -8c48 0 74 40 74 75c0 51 -30 74 -86 77v13c55 8 78 42 78 84c0 36 -23 58 -61 58c-13 0 -19 -1 -22 -7
l-44 -83h-12l-31 100c34 14 79 23 122 23z" />
    <glyph glyph-name="Zcaron" unicode="&#x17d;" horiz-adv-x="575" 
d="M311 767h-12l-142 159l8 10l140 -63l141 63l7 -10zM535 0h-505v14l381 648h-236c-14 0 -16 -1 -24 -13l-89 -157h-13v211h504v-14l-383 -648h241c14 0 16 1 24 13l95 164h13z" />
    <glyph glyph-name="mu" unicode="&#xb5;" horiz-adv-x="608" 
d="M20 -235v12l70 46c9 6 11 9 11 20v547c0 12 -1 15 -9 22l-71 65v13h184c0 -53 -1 -245 -1 -290c0 -82 10 -147 86 -147c49 0 91 34 118 83v254c0 12 -1 15 -9 22l-72 65v13h186v-393c0 -10 0 -12 10 -21l64 -64v-12h-168v96c-31 -56 -88 -107 -158 -107
c-20 0 -43 7 -57 18v-154c0 -14 2 -17 13 -22l113 -54v-12h-310z" />
    <glyph glyph-name="paragraph" unicode="&#xb6;" horiz-adv-x="576" 
d="M543 703v-14l-85 -52c-8 -5 -10 -8 -10 -20v-852h-54v938h149zM260 -235v548h-8c-135 0 -214 73 -214 195c0 107 68 195 213 195h62v-938h-53z" />
    <glyph glyph-name="periodcentered" unicode="&#xb7;" horiz-adv-x="274" 
d="M64 292c0 42 31 75 73 75s73 -33 73 -75s-31 -75 -73 -75s-73 33 -73 75z" />
    <glyph glyph-name="zcaron" unicode="&#x17e;" horiz-adv-x="473" 
d="M256 569h-12l-142 159l8 10l140 -63l141 63l7 -10zM340 52l81 127h12l-11 -179h-384v12l275 435h-142c-13 0 -15 -1 -20 -10l-80 -124h-12v177h383v-12l-276 -436h153c13 0 15 1 21 10z" />
    <glyph glyph-name="onesuperior" unicode="&#xb9;" horiz-adv-x="346" 
d="M292 346h-232v10l69 38c4 3 5 6 5 11v230c0 4 -1 7 -6 9l-67 31v10l156 27v-307c0 -6 1 -8 5 -11l70 -38v-10z" />
    <glyph glyph-name="ordmasculine" unicode="&#xba;" horiz-adv-x="443" 
d="M222 406c55 0 82 66 82 153c0 88 -27 154 -82 154c-56 0 -82 -66 -82 -154c0 -86 28 -153 82 -153zM221 369c-92 0 -173 68 -173 188c0 123 83 193 178 193s169 -66 169 -187c0 -123 -81 -194 -174 -194z" />
    <glyph glyph-name="guillemotright" unicode="&#xbb;" horiz-adv-x="444" 
d="M239 256l-184 -196l-9 9l90 191l-91 192l10 9l184 -196v-9zM410 256l-184 -196l-9 9l90 191l-90 192l9 9l184 -196v-9z" />
    <glyph glyph-name="OE" unicode="&#x152;" horiz-adv-x="1003" 
d="M945 0h-406c-55 0 -111 -9 -161 -9c-204 0 -339 134 -339 357c0 227 139 364 339 364c50 0 106 -9 160 -9h393v-195h-13l-89 140c-8 12 -10 14 -23 14h-181c-11 0 -14 -2 -14 -15v-274h129c14 0 17 2 26 13l60 80h13v-228h-13l-60 80c-9 12 -12 13 -26 13h-129v-275
c0 -13 3 -15 14 -15h188c14 0 16 2 24 14l94 142h14v-197zM392 33c29 0 65 5 90 17c10 6 14 11 14 26v552c0 15 -4 19 -14 25c-22 12 -64 17 -93 17c-132 0 -216 -98 -216 -317c0 -216 80 -320 219 -320z" />
    <glyph glyph-name="oe" unicode="&#x153;" horiz-adv-x="878" 
d="M637 -12c-75 0 -139 28 -179 87c-41 -56 -104 -87 -180 -87c-133 0 -240 91 -240 253c0 164 110 261 248 261c74 0 137 -30 176 -87c43 58 108 87 172 87c110 0 197 -60 197 -221v-24h-314c1 -151 82 -198 159 -198c52 0 109 20 152 69l10 -8
c-35 -89 -109 -132 -201 -132zM284 30c82 0 122 91 122 211c0 123 -41 219 -125 219s-124 -92 -124 -213c0 -123 42 -217 127 -217zM629 460c-60 0 -105 -56 -111 -163h208c-4 105 -33 163 -97 163z" />
    <glyph glyph-name="Ydieresis" unicode="&#x178;" horiz-adv-x="652" 
d="M479 0h-305v14l84 52c9 5 11 8 11 20v170c0 16 -2 24 -8 35l-186 323c-9 15 -14 22 -26 31l-56 44v14h289v-14l-78 -50c-8 -6 -9 -11 -4 -21l161 -287l146 271c5 10 4 14 -3 20l-86 67v14h251v-14l-89 -66c-14 -11 -16 -13 -25 -30l-163 -302c-6 -11 -8 -18 -8 -34v-171
c0 -12 2 -15 10 -20l85 -52v-14zM188 843c0 36 28 64 61 64s61 -28 61 -64c0 -34 -28 -62 -61 -62s-61 28 -61 62zM382 843c0 36 28 64 60 64c33 0 61 -28 61 -64c0 -34 -28 -62 -61 -62c-32 0 -60 28 -60 62z" />
    <glyph glyph-name="questiondown" unicode="&#xbf;" horiz-adv-x="432" 
d="M240 273h12c17 -19 28 -39 28 -68c0 -38 -22 -71 -59 -106l-43 -41c-33 -32 -54 -67 -54 -118c0 -71 45 -126 121 -126c12 0 23 1 34 4c12 3 15 6 21 18l60 124h12l52 -138c-59 -32 -128 -47 -190 -47c-135 0 -220 73 -220 176c0 64 34 110 79 148l93 80
c34 29 59 63 54 94zM245 502c41 0 73 -33 73 -75s-32 -75 -73 -75c-42 0 -73 33 -73 75s31 75 73 75z" />
    <glyph glyph-name="Agrave" unicode="&#xc0;" horiz-adv-x="692" 
d="M496 86l-50 131h-254l-40 -109c-5 -13 -4 -17 9 -27l86 -67v-14h-253v14l85 65c12 10 16 12 22 28l178 481c5 14 6 19 -1 31l-38 73v11h140l235 -615c6 -15 8 -18 19 -26l60 -48v-14h-283v14l80 53c8 5 8 8 5 19zM317 560l-111 -301h224zM385 767h-14l-184 145v12h138z
" />
    <glyph glyph-name="Aacute" unicode="&#xc1;" horiz-adv-x="692" 
d="M496 86l-50 131h-254l-40 -109c-5 -13 -4 -17 9 -27l86 -67v-14h-253v14l85 65c12 10 16 12 22 28l178 481c5 14 6 19 -1 31l-38 73v11h140l235 -615c6 -15 8 -18 19 -26l60 -48v-14h-283v14l80 53c8 5 8 8 5 19zM317 560l-111 -301h224zM291 765h-14l61 158h138v-12z
" />
    <glyph glyph-name="Acircumflex" unicode="&#xc2;" horiz-adv-x="692" 
d="M496 86l-50 131h-254l-40 -109c-5 -13 -4 -17 9 -27l86 -67v-14h-253v14l85 65c12 10 16 12 22 28l178 481c5 14 6 19 -1 31l-38 73v11h140l235 -615c6 -15 8 -18 19 -26l60 -48v-14h-283v14l80 53c8 5 8 8 5 19zM317 560l-111 -301h224zM322 826l-140 -62l-8 9l142 159
h12l142 -159l-7 -9z" />
    <glyph glyph-name="Atilde" unicode="&#xc3;" horiz-adv-x="692" 
d="M496 86l-50 131h-254l-40 -109c-5 -13 -4 -17 9 -27l86 -67v-14h-253v14l85 65c12 10 16 12 22 28l178 481c5 14 6 19 -1 31l-38 73v11h140l235 -615c6 -15 8 -18 19 -26l60 -48v-14h-283v14l80 53c8 5 8 8 5 19zM317 560l-111 -301h224zM371 774c-43 0 -83 53 -119 53
c-25 0 -40 -17 -63 -50h-12c10 64 36 124 97 124c43 0 82 -53 119 -53c24 0 39 17 62 50h13c-11 -64 -37 -124 -97 -124z" />
    <glyph glyph-name="Adieresis" unicode="&#xc4;" horiz-adv-x="692" 
d="M496 86l-50 131h-254l-40 -109c-5 -13 -4 -17 9 -27l86 -67v-14h-253v14l85 65c12 10 16 12 22 28l178 481c5 14 6 19 -1 31l-38 73v11h140l235 -615c6 -15 8 -18 19 -26l60 -48v-14h-283v14l80 53c8 5 8 8 5 19zM317 560l-111 -301h224zM165 843c0 36 28 64 61 64
s61 -28 61 -64c0 -34 -28 -62 -61 -62s-61 28 -61 62zM359 843c0 36 28 64 60 64c33 0 61 -28 61 -64c0 -34 -28 -62 -61 -62c-32 0 -60 28 -60 62z" />
    <glyph glyph-name="Aring" unicode="&#xc5;" horiz-adv-x="692" 
d="M496 86l-50 131h-254l-40 -109c-5 -13 -4 -17 9 -27l86 -67v-14h-253v14l85 65c12 10 16 12 22 28l178 481c5 14 6 19 -1 31l-38 73v11h140l235 -615c6 -15 8 -18 19 -26l60 -48v-14h-283v14l80 53c8 5 8 8 5 19zM317 560l-111 -301h224zM389 863c0 37 -29 68 -66 68
c-39 0 -67 -31 -67 -68c0 -38 28 -69 67 -69c37 0 66 31 66 69zM211 863c0 67 55 108 112 108c56 0 110 -41 110 -108c0 -68 -54 -108 -110 -108c-57 0 -112 40 -112 108z" />
    <glyph glyph-name="AE" unicode="&#xc6;" horiz-adv-x="985" 
d="M-15 0v14l85 60c16 11 22 18 33 34l340 511c7 11 4 16 -3 22l-55 48v14h530v-201h-14l-88 146c-8 12 -10 14 -24 14h-184c-12 0 -14 -2 -14 -15v-291h131c14 0 17 2 26 13l60 81h13v-230h-13l-60 81c-9 11 -12 13 -26 13h-131v-258c0 -13 2 -15 14 -15h188
c14 0 17 2 24 14l95 146h13v-201h-542v14l86 52c9 5 11 8 11 20v131h-247l-77 -116c-10 -14 -7 -19 6 -29l80 -58v-14h-257zM259 259h221v334z" />
    <glyph glyph-name="Ccedilla" unicode="&#xc7;" horiz-adv-x="645" 
d="M471 -145c0 -63 -53 -93 -113 -93c-54 0 -98 30 -112 73l9 6c23 -25 50 -34 77 -34c28 0 57 16 57 48c0 37 -38 53 -86 42l-5 4l50 86c-209 17 -309 169 -309 365c0 212 134 366 357 366c55 0 118 -8 184 -24v-207h-13l-102 169c-7 12 -11 13 -24 16c-15 3 -33 4 -47 4
c-154 0 -222 -133 -222 -319c0 -201 69 -330 224 -330c13 0 29 1 43 3c16 3 19 4 25 15l105 173h13v-208c-58 -17 -135 -25 -192 -25c-8 0 -16 0 -24 1l-2 -53c55 7 107 -23 107 -78z" />
    <glyph glyph-name="Egrave" unicode="&#xc8;" horiz-adv-x="635" 
d="M470 238h-12l-60 81c-9 11 -13 13 -26 13h-132v-276c0 -13 3 -15 14 -15h189c14 0 16 2 24 14l94 146h14v-201h-545v14l85 52c8 5 10 8 10 20v531c0 12 -2 15 -10 20l-85 52v14h539v-201h-14l-88 146c-7 12 -10 14 -24 14h-189c-11 0 -14 -2 -14 -15v-273h132
c13 0 17 2 26 13l60 81h12v-230zM391 767h-14l-184 145v12h138z" />
    <glyph glyph-name="Eacute" unicode="&#xc9;" horiz-adv-x="635" 
d="M298 765h-14l61 158h138v-12zM470 238h-12l-60 81c-9 11 -13 13 -26 13h-132v-276c0 -13 3 -15 14 -15h189c14 0 16 2 24 14l94 146h14v-201h-545v14l85 52c8 5 10 8 10 20v531c0 12 -2 15 -10 20l-85 52v14h539v-201h-14l-88 146c-7 12 -10 14 -24 14h-189
c-11 0 -14 -2 -14 -15v-273h132c13 0 17 2 26 13l60 81h12v-230z" />
    <glyph glyph-name="Ecircumflex" unicode="&#xca;" horiz-adv-x="635" 
d="M329 826l-140 -62l-8 9l142 159h12l142 -159l-7 -9zM470 238h-12l-60 81c-9 11 -13 13 -26 13h-132v-276c0 -13 3 -15 14 -15h189c14 0 16 2 24 14l94 146h14v-201h-545v14l85 52c8 5 10 8 10 20v531c0 12 -2 15 -10 20l-85 52v14h539v-201h-14l-88 146
c-7 12 -10 14 -24 14h-189c-11 0 -14 -2 -14 -15v-273h132c13 0 17 2 26 13l60 81h12v-230z" />
    <glyph glyph-name="Edieresis" unicode="&#xcb;" horiz-adv-x="635" 
d="M171 843c0 36 28 64 61 64s61 -28 61 -64c0 -34 -28 -62 -61 -62s-61 28 -61 62zM365 843c0 36 28 64 60 64c33 0 61 -28 61 -64c0 -34 -28 -62 -61 -62c-32 0 -60 28 -60 62zM470 238h-12l-60 81c-9 11 -13 13 -26 13h-132v-276c0 -13 3 -15 14 -15h189c14 0 16 2 24 14
l94 146h14v-201h-545v14l85 52c8 5 10 8 10 20v531c0 12 -2 15 -10 20l-85 52v14h539v-201h-14l-88 146c-7 12 -10 14 -24 14h-189c-11 0 -14 -2 -14 -15v-273h132c13 0 17 2 26 13l60 81h12v-230z" />
    <glyph glyph-name="Igrave" unicode="&#xcc;" horiz-adv-x="366" 
d="M336 0h-306v14l85 52c8 5 10 8 10 20v531c0 12 -2 15 -10 20l-85 52v14h306v-14l-85 -52c-9 -5 -11 -8 -11 -20v-531c0 -12 2 -15 11 -20l85 -52v-14zM245 767h-14l-184 145v12h138z" />
    <glyph glyph-name="Iacute" unicode="&#xcd;" horiz-adv-x="366" 
d="M336 0h-306v14l85 52c8 5 10 8 10 20v531c0 12 -2 15 -10 20l-85 52v14h306v-14l-85 -52c-9 -5 -11 -8 -11 -20v-531c0 -12 2 -15 11 -20l85 -52v-14zM151 765h-14l61 158h138v-12z" />
    <glyph glyph-name="Icircumflex" unicode="&#xce;" horiz-adv-x="366" 
d="M336 0h-306v14l85 52c8 5 10 8 10 20v531c0 12 -2 15 -10 20l-85 52v14h306v-14l-85 -52c-9 -5 -11 -8 -11 -20v-531c0 -12 2 -15 11 -20l85 -52v-14zM183 826l-140 -62l-8 9l142 159h12l142 -159l-7 -9z" />
    <glyph glyph-name="Idieresis" unicode="&#xcf;" horiz-adv-x="366" 
d="M336 0h-306v14l85 52c8 5 10 8 10 20v531c0 12 -2 15 -10 20l-85 52v14h306v-14l-85 -52c-9 -5 -11 -8 -11 -20v-531c0 -12 2 -15 11 -20l85 -52v-14zM26 843c0 36 28 64 61 64s61 -28 61 -64c0 -34 -28 -62 -61 -62s-61 28 -61 62zM220 843c0 36 28 64 60 64
c33 0 61 -28 61 -64c0 -34 -28 -62 -61 -62c-32 0 -60 28 -60 62z" />
    <glyph glyph-name="Eth" unicode="&#xd0;" horiz-adv-x="741" 
d="M344 0h-292v14l84 52c9 5 11 8 11 20v248h-88v41h88v242c0 12 -2 15 -11 20l-84 52v14h306c206 0 344 -125 344 -340c0 -257 -197 -363 -358 -363zM340 41c118 0 228 89 228 317c0 196 -80 304 -220 304h-73c-11 0 -13 -3 -13 -15v-272h132v-41h-132v-278
c0 -12 2 -15 14 -15h64z" />
    <glyph glyph-name="Ntilde" unicode="&#xd1;" horiz-adv-x="747" 
d="M637 589v-589h-58l-400 581v-467c0 -13 2 -18 11 -25l93 -75v-14h-253v14l91 75c8 7 11 12 11 25v487c0 13 -2 16 -10 21l-91 67v14h200l359 -524v410c0 12 -2 18 -11 25l-93 75v14h253v-14l-91 -75c-8 -7 -11 -13 -11 -25zM432 774c-43 0 -83 53 -119 53
c-25 0 -40 -17 -63 -50h-12c10 64 36 124 97 124c43 0 82 -53 119 -53c24 0 39 17 62 50h13c-11 -64 -37 -124 -97 -124z" />
    <glyph glyph-name="Ograve" unicode="&#xd2;" horiz-adv-x="736" 
d="M368 718c187 0 330 -132 330 -364c0 -223 -142 -369 -330 -369c-187 0 -329 131 -329 363c0 224 142 370 329 370zM365 676c-111 0 -192 -104 -192 -320c0 -215 80 -329 198 -329c112 0 192 103 192 320c0 215 -80 329 -198 329zM429 767h-14l-184 145v12h138z" />
    <glyph glyph-name="Oacute" unicode="&#xd3;" horiz-adv-x="736" 
d="M336 765h-14l61 158h138v-12zM368 718c187 0 330 -132 330 -364c0 -223 -142 -369 -330 -369c-187 0 -329 131 -329 363c0 224 142 370 329 370zM365 676c-111 0 -192 -104 -192 -320c0 -215 80 -329 198 -329c112 0 192 103 192 320c0 215 -80 329 -198 329z" />
    <glyph glyph-name="Ocircumflex" unicode="&#xd4;" horiz-adv-x="736" 
d="M367 826l-140 -62l-8 9l142 159h12l142 -159l-7 -9zM368 718c187 0 330 -132 330 -364c0 -223 -142 -369 -330 -369c-187 0 -329 131 -329 363c0 224 142 370 329 370zM365 676c-111 0 -192 -104 -192 -320c0 -215 80 -329 198 -329c112 0 192 103 192 320
c0 215 -80 329 -198 329z" />
    <glyph glyph-name="Otilde" unicode="&#xd5;" horiz-adv-x="736" 
d="M368 718c187 0 330 -132 330 -364c0 -223 -142 -369 -330 -369c-187 0 -329 131 -329 363c0 224 142 370 329 370zM365 676c-111 0 -192 -104 -192 -320c0 -215 80 -329 198 -329c112 0 192 103 192 320c0 215 -80 329 -198 329zM417 774c-43 0 -83 53 -119 53
c-25 0 -40 -17 -63 -50h-12c10 64 36 124 97 124c43 0 82 -53 119 -53c24 0 39 17 62 50h13c-11 -64 -37 -124 -97 -124z" />
    <glyph glyph-name="Odieresis" unicode="&#xd6;" horiz-adv-x="736" 
d="M210 843c0 36 28 64 61 64s61 -28 61 -64c0 -34 -28 -62 -61 -62s-61 28 -61 62zM404 843c0 36 28 64 60 64c33 0 61 -28 61 -64c0 -34 -28 -62 -61 -62c-32 0 -60 28 -60 62zM368 718c187 0 330 -132 330 -364c0 -223 -142 -369 -330 -369c-187 0 -329 131 -329 363
c0 224 142 370 329 370zM365 676c-111 0 -192 -104 -192 -320c0 -215 80 -329 198 -329c112 0 192 103 192 320c0 215 -80 329 -198 329z" />
    <glyph glyph-name="multiply" unicode="&#xd7;" 
d="M462 40l-163 163l-162 -162l-38 38l162 162l-163 163l40 40l163 -163l162 162l38 -38l-162 -162l163 -163z" />
    <glyph glyph-name="Oslash" unicode="&#xd8;" horiz-adv-x="736" 
d="M368 718c45 0 88 -8 126 -23l40 89l39 -15l-41 -92c100 -55 166 -167 166 -323c0 -223 -142 -369 -330 -369c-47 0 -91 9 -131 25l-41 -92l-39 16l42 94c-97 56 -160 166 -160 320c0 224 142 370 329 370zM563 347c0 114 -24 200 -65 254l-235 -531
c30 -28 66 -43 108 -43c112 0 192 103 192 320zM365 676c-111 0 -192 -104 -192 -320c0 -111 22 -194 61 -248l235 529c-30 26 -64 39 -104 39z" />
    <glyph glyph-name="Ugrave" unicode="&#xd9;" horiz-adv-x="724" 
d="M370 -15c-184 0 -259 93 -259 255v376c0 11 -2 15 -11 20l-84 53v14h304v-14l-84 -53c-8 -5 -10 -8 -10 -20v-361c0 -134 59 -218 169 -218c103 0 177 69 177 215v337c0 12 -3 18 -12 25l-93 75v14h254v-14l-92 -75c-8 -7 -11 -13 -11 -25v-342
c0 -154 -74 -262 -248 -262zM449 767h-14l-184 145v12h138z" />
    <glyph glyph-name="Uacute" unicode="&#xda;" horiz-adv-x="724" 
d="M357 765h-14l61 158h138v-12zM370 -15c-184 0 -259 93 -259 255v376c0 11 -2 15 -11 20l-84 53v14h304v-14l-84 -53c-8 -5 -10 -8 -10 -20v-361c0 -134 59 -218 169 -218c103 0 177 69 177 215v337c0 12 -3 18 -12 25l-93 75v14h254v-14l-92 -75c-8 -7 -11 -13 -11 -25
v-342c0 -154 -74 -262 -248 -262z" />
    <glyph glyph-name="Ucircumflex" unicode="&#xdb;" horiz-adv-x="724" 
d="M388 826l-140 -62l-8 9l142 159h12l142 -159l-7 -9zM370 -15c-184 0 -259 93 -259 255v376c0 11 -2 15 -11 20l-84 53v14h304v-14l-84 -53c-8 -5 -10 -8 -10 -20v-361c0 -134 59 -218 169 -218c103 0 177 69 177 215v337c0 12 -3 18 -12 25l-93 75v14h254v-14l-92 -75
c-8 -7 -11 -13 -11 -25v-342c0 -154 -74 -262 -248 -262z" />
    <glyph glyph-name="Udieresis" unicode="&#xdc;" horiz-adv-x="724" 
d="M230 843c0 36 28 64 61 64s61 -28 61 -64c0 -34 -28 -62 -61 -62s-61 28 -61 62zM424 843c0 36 28 64 60 64c33 0 61 -28 61 -64c0 -34 -28 -62 -61 -62c-32 0 -60 28 -60 62zM370 -15c-184 0 -259 93 -259 255v376c0 11 -2 15 -11 20l-84 53v14h304v-14l-84 -53
c-8 -5 -10 -8 -10 -20v-361c0 -134 59 -218 169 -218c103 0 177 69 177 215v337c0 12 -3 18 -12 25l-93 75v14h254v-14l-92 -75c-8 -7 -11 -13 -11 -25v-342c0 -154 -74 -262 -248 -262z" />
    <glyph glyph-name="Yacute" unicode="&#xdd;" horiz-adv-x="652" 
d="M479 0h-305v14l84 52c9 5 11 8 11 20v170c0 16 -2 24 -8 35l-186 323c-9 15 -14 22 -26 31l-56 44v14h289v-14l-78 -50c-8 -6 -9 -11 -4 -21l161 -287l146 271c5 10 4 14 -3 20l-86 67v14h251v-14l-89 -66c-14 -11 -16 -13 -25 -30l-163 -302c-6 -11 -8 -18 -8 -34v-171
c0 -12 2 -15 10 -20l85 -52v-14zM314 765h-14l61 158h138v-12z" />
    <glyph glyph-name="Thorn" unicode="&#xde;" horiz-adv-x="621" 
d="M240 193h85c84 0 147 63 147 180s-56 178 -138 178h-94v-358zM329 152h-89v-66c0 -12 2 -15 11 -20l85 -52v-14h-306v14l85 52c8 5 10 8 10 20v531c0 12 -2 15 -10 20l-85 52v14h210v-111h101c148 0 256 -71 256 -213c0 -144 -119 -227 -268 -227z" />
    <glyph glyph-name="germandbls" unicode="&#xdf;" horiz-adv-x="632" 
d="M39 0v12l71 46c8 6 10 9 10 20v362h-72v50h72v52c0 141 85 208 209 208c101 0 189 -48 189 -140c0 -26 -9 -60 -68 -110l-48 -40c-26 -22 -39 -43 -39 -66c0 -29 22 -46 63 -63l80 -34c62 -26 106 -66 106 -143c0 -105 -82 -166 -196 -166c-49 0 -99 10 -147 29l39 138
h12l48 -110c4 -11 9 -14 17 -17c8 -2 17 -4 30 -4c56 0 104 44 104 101c0 44 -29 69 -80 90l-74 32c-50 22 -87 56 -87 104c0 41 26 69 65 104l42 38c31 29 48 62 48 105c0 65 -39 116 -104 116c-62 0 -105 -47 -105 -145v-569h-185z" />
    <glyph glyph-name="agrave" unicode="&#xe0;" horiz-adv-x="522" 
d="M249 276c27 0 58 -4 84 -10c0 34 1 65 1 78c0 79 -36 119 -105 119c-10 0 -18 -1 -23 -2c-7 -1 -13 -4 -17 -12l-65 -118h-13l-38 137c57 24 109 34 167 34c140 0 193 -63 193 -173c0 -79 -5 -162 -5 -225c0 -35 14 -54 35 -54c15 0 29 9 39 22l9 -8
c-10 -47 -49 -75 -95 -75c-50 0 -83 33 -86 86c-27 -48 -79 -86 -147 -86c-79 0 -138 49 -138 128c0 93 83 159 204 159zM227 50c41 0 82 27 103 80c1 28 2 64 2 100c-19 4 -39 6 -54 6c-78 0 -128 -44 -128 -106c0 -52 35 -80 77 -80zM313 569h-14l-184 145v12h138z" />
    <glyph glyph-name="aacute" unicode="&#xe1;" horiz-adv-x="522" 
d="M249 276c27 0 58 -4 84 -10c0 34 1 65 1 78c0 79 -36 119 -105 119c-10 0 -18 -1 -23 -2c-7 -1 -13 -4 -17 -12l-65 -118h-13l-38 137c57 24 109 34 167 34c140 0 193 -63 193 -173c0 -79 -5 -162 -5 -225c0 -35 14 -54 35 -54c15 0 29 9 39 22l9 -8
c-10 -47 -49 -75 -95 -75c-50 0 -83 33 -86 86c-27 -48 -79 -86 -147 -86c-79 0 -138 49 -138 128c0 93 83 159 204 159zM227 50c41 0 82 27 103 80c1 28 2 64 2 100c-19 4 -39 6 -54 6c-78 0 -128 -44 -128 -106c0 -52 35 -80 77 -80zM220 567h-14l61 158h138v-12z" />
    <glyph glyph-name="acircumflex" unicode="&#xe2;" horiz-adv-x="522" 
d="M249 276c27 0 58 -4 84 -10c0 34 1 65 1 78c0 79 -36 119 -105 119c-10 0 -18 -1 -23 -2c-7 -1 -13 -4 -17 -12l-65 -118h-13l-38 137c57 24 109 34 167 34c140 0 193 -63 193 -173c0 -79 -5 -162 -5 -225c0 -35 14 -54 35 -54c15 0 29 9 39 22l9 -8
c-10 -47 -49 -75 -95 -75c-50 0 -83 33 -86 86c-27 -48 -79 -86 -147 -86c-79 0 -138 49 -138 128c0 93 83 159 204 159zM227 50c41 0 82 27 103 80c1 28 2 64 2 100c-19 4 -39 6 -54 6c-78 0 -128 -44 -128 -106c0 -52 35 -80 77 -80zM251 628l-140 -62l-8 9l142 159h12
l142 -159l-7 -9z" />
    <glyph glyph-name="atilde" unicode="&#xe3;" horiz-adv-x="522" 
d="M249 276c27 0 58 -4 84 -10c0 34 1 65 1 78c0 79 -36 119 -105 119c-10 0 -18 -1 -23 -2c-7 -1 -13 -4 -17 -12l-65 -118h-13l-38 137c57 24 109 34 167 34c140 0 193 -63 193 -173c0 -79 -5 -162 -5 -225c0 -35 14 -54 35 -54c15 0 29 9 39 22l9 -8
c-10 -47 -49 -75 -95 -75c-50 0 -83 33 -86 86c-27 -48 -79 -86 -147 -86c-79 0 -138 49 -138 128c0 93 83 159 204 159zM227 50c41 0 82 27 103 80c1 28 2 64 2 100c-19 4 -39 6 -54 6c-78 0 -128 -44 -128 -106c0 -52 35 -80 77 -80zM301 576c-43 0 -83 53 -119 53
c-25 0 -40 -17 -63 -50h-12c10 64 36 124 97 124c43 0 82 -53 119 -53c24 0 39 17 62 50h13c-11 -64 -37 -124 -97 -124z" />
    <glyph glyph-name="adieresis" unicode="&#xe4;" horiz-adv-x="522" 
d="M249 276c27 0 58 -4 84 -10c0 34 1 65 1 78c0 79 -36 119 -105 119c-10 0 -18 -1 -23 -2c-7 -1 -13 -4 -17 -12l-65 -118h-13l-38 137c57 24 109 34 167 34c140 0 193 -63 193 -173c0 -79 -5 -162 -5 -225c0 -35 14 -54 35 -54c15 0 29 9 39 22l9 -8
c-10 -47 -49 -75 -95 -75c-50 0 -83 33 -86 86c-27 -48 -79 -86 -147 -86c-79 0 -138 49 -138 128c0 93 83 159 204 159zM227 50c41 0 82 27 103 80c1 28 2 64 2 100c-19 4 -39 6 -54 6c-78 0 -128 -44 -128 -106c0 -52 35 -80 77 -80zM94 645c0 36 28 64 61 64
s61 -28 61 -64c0 -34 -28 -62 -61 -62s-61 28 -61 62zM288 645c0 36 28 64 60 64c33 0 61 -28 61 -64c0 -34 -28 -62 -61 -62c-32 0 -60 28 -60 62z" />
    <glyph glyph-name="aring" unicode="&#xe5;" horiz-adv-x="522" 
d="M249 276c27 0 58 -4 84 -10c0 34 1 65 1 78c0 79 -36 119 -105 119c-10 0 -18 -1 -23 -2c-7 -1 -13 -4 -17 -12l-65 -118h-13l-38 137c57 24 109 34 167 34c140 0 193 -63 193 -173c0 -79 -5 -162 -5 -225c0 -35 14 -54 35 -54c15 0 29 9 39 22l9 -8
c-10 -47 -49 -75 -95 -75c-50 0 -83 33 -86 86c-27 -48 -79 -86 -147 -86c-79 0 -138 49 -138 128c0 93 83 159 204 159zM227 50c41 0 82 27 103 80c1 28 2 64 2 100c-19 4 -39 6 -54 6c-78 0 -128 -44 -128 -106c0 -52 35 -80 77 -80zM318 665c0 37 -29 68 -66 68
c-39 0 -67 -31 -67 -68c0 -38 28 -69 67 -69c37 0 66 31 66 69zM140 665c0 67 55 108 112 108c56 0 110 -41 110 -108c0 -68 -54 -108 -110 -108c-57 0 -112 40 -112 108z" />
    <glyph glyph-name="ae" unicode="&#xe6;" horiz-adv-x="795" 
d="M434 297h208c-4 105 -33 163 -97 163c-58 0 -105 -55 -111 -163zM184 -11c-79 0 -139 50 -139 128c0 93 82 159 203 159c26 0 54 -3 78 -8c1 23 8 52 8 83c0 69 -36 112 -105 112c-10 0 -18 -1 -23 -2c-7 -1 -13 -4 -17 -12l-65 -118h-13l-38 137c57 24 109 34 167 34
c69 0 127 -15 159 -62c43 41 92 62 151 62c110 0 197 -60 197 -221c0 -2 0 -22 -1 -24h-313c1 -144 76 -198 159 -198c52 0 109 20 152 69l10 -8c-35 -89 -109 -132 -201 -132c-85 0 -157 36 -195 106c-27 -64 -104 -105 -174 -105zM226 50c43 0 91 27 115 80
c-9 28 -15 62 -16 101c-17 3 -33 5 -47 5c-77 0 -128 -43 -128 -106c0 -52 35 -80 76 -80z" />
    <glyph glyph-name="ccedilla" unicode="&#xe7;" horiz-adv-x="479" 
d="M350 -145c0 -63 -53 -93 -113 -93c-54 0 -98 30 -112 73l9 6c23 -25 50 -34 77 -34c28 0 57 16 57 48c0 37 -38 53 -86 42l-5 4l52 89c-110 14 -190 99 -190 244c0 170 112 268 262 268c45 0 92 -7 142 -25l-44 -148h-13l-61 118c-4 8 -6 11 -12 12c-3 0 -10 1 -16 1
c-81 0 -147 -70 -147 -202c0 -136 74 -199 161 -199c55 0 94 24 125 58l11 -10c-27 -69 -96 -119 -183 -119c-6 0 -12 0 -18 1l-3 -56c55 7 107 -23 107 -78z" />
    <glyph glyph-name="egrave" unicode="&#xe8;" horiz-adv-x="510" 
d="M461 257h-313c1 -151 82 -198 159 -198c51 0 108 20 152 69l10 -8c-35 -89 -109 -132 -201 -132c-127 0 -229 83 -229 252c0 174 104 262 226 262c110 0 196 -60 196 -221v-24zM260 460c-60 0 -106 -55 -112 -163h209c-4 105 -34 163 -97 163zM331 569h-14l-184 145v12
h138z" />
    <glyph glyph-name="eacute" unicode="&#xe9;" horiz-adv-x="510" 
d="M461 257h-313c1 -151 82 -198 159 -198c51 0 108 20 152 69l10 -8c-35 -89 -109 -132 -201 -132c-127 0 -229 83 -229 252c0 174 104 262 226 262c110 0 196 -60 196 -221v-24zM260 460c-60 0 -106 -55 -112 -163h209c-4 105 -34 163 -97 163zM238 567h-14l61 158h138
v-12z" />
    <glyph glyph-name="ecircumflex" unicode="&#xea;" horiz-adv-x="510" 
d="M461 257h-313c1 -151 82 -198 159 -198c51 0 108 20 152 69l10 -8c-35 -89 -109 -132 -201 -132c-127 0 -229 83 -229 252c0 174 104 262 226 262c110 0 196 -60 196 -221v-24zM260 460c-60 0 -106 -55 -112 -163h209c-4 105 -34 163 -97 163zM269 628l-140 -62l-8 9
l142 159h12l142 -159l-7 -9z" />
    <glyph glyph-name="edieresis" unicode="&#xeb;" horiz-adv-x="510" 
d="M461 257h-313c1 -151 82 -198 159 -198c51 0 108 20 152 69l10 -8c-35 -89 -109 -132 -201 -132c-127 0 -229 83 -229 252c0 174 104 262 226 262c110 0 196 -60 196 -221v-24zM260 460c-60 0 -106 -55 -112 -163h209c-4 105 -34 163 -97 163zM111 645c0 36 28 64 61 64
s61 -28 61 -64c0 -34 -28 -62 -61 -62s-61 28 -61 62zM305 645c0 36 28 64 60 64c33 0 61 -28 61 -64c0 -34 -28 -62 -61 -62c-32 0 -60 28 -60 62z" />
    <glyph glyph-name="igrave" unicode="&#xec;" horiz-adv-x="322" 
d="M120 78v312c0 10 -1 13 -8 20l-73 67v13h185v-412c0 -11 2 -14 10 -20l71 -46v-12h-266v12l70 46c9 6 11 9 11 20zM233 569h-14l-184 145v12h138z" />
    <glyph glyph-name="iacute" unicode="&#xed;" horiz-adv-x="322" 
d="M139 567h-14l61 158h138v-12zM120 78v312c0 10 -1 13 -8 20l-73 67v13h185v-412c0 -11 2 -14 10 -20l71 -46v-12h-266v12l70 46c9 6 11 9 11 20z" />
    <glyph glyph-name="icircumflex" unicode="&#xee;" horiz-adv-x="322" 
d="M171 628l-140 -62l-8 9l142 159h12l142 -159l-7 -9zM120 78v312c0 10 -1 13 -8 20l-73 67v13h185v-412c0 -11 2 -14 10 -20l71 -46v-12h-266v12l70 46c9 6 11 9 11 20z" />
    <glyph glyph-name="idieresis" unicode="&#xef;" horiz-adv-x="322" 
d="M14 645c0 36 28 64 61 64s61 -28 61 -64c0 -34 -28 -62 -61 -62s-61 28 -61 62zM208 645c0 36 28 64 60 64c33 0 61 -28 61 -64c0 -34 -28 -62 -61 -62c-32 0 -60 28 -60 62zM120 78v312c0 10 -1 13 -8 20l-73 67v13h185v-412c0 -11 2 -14 10 -20l71 -46v-12h-266v12
l70 46c9 6 11 9 11 20z" />
    <glyph glyph-name="eth" unicode="&#xf0;" horiz-adv-x="570" 
d="M467 718l-99 -61c97 -81 162 -208 162 -363c0 -182 -88 -306 -247 -306c-131 0 -245 84 -245 252c0 171 119 262 235 262c54 0 106 -21 129 -68c-18 76 -48 139 -89 189l-119 -73l-20 34l112 68c-44 45 -83 63 -123 77l5 20c49 -8 103 -24 166 -67l112 70zM418 257
c0 142 -64 203 -130 203c-87 0 -130 -85 -130 -213c0 -141 53 -217 126 -217c76 0 134 81 134 227z" />
    <glyph glyph-name="ntilde" unicode="&#xf1;" horiz-adv-x="632" 
d="M622 0h-266v12l70 46c10 7 11 9 11 20c1 31 1 157 1 207c0 121 -44 152 -97 152c-50 0 -90 -33 -117 -84v-275c0 -11 2 -14 10 -20l71 -46v-12h-266v12l70 46c9 6 11 9 11 20v312c0 10 -1 13 -8 20l-73 67v13h174v-96c29 58 81 108 165 108c105 0 166 -67 166 -205
c0 -63 -2 -150 -2 -219c0 -11 1 -14 10 -20l70 -46v-12zM379 576c-43 0 -83 53 -119 53c-25 0 -40 -17 -63 -50h-12c10 64 36 124 97 124c43 0 82 -53 119 -53c24 0 39 17 62 50h13c-11 -64 -37 -124 -97 -124z" />
    <glyph glyph-name="ograve" unicode="&#xf2;" horiz-adv-x="564" 
d="M279 -12c-134 0 -241 91 -241 253c0 164 110 261 247 261c133 0 240 -91 240 -253c0 -164 -110 -261 -246 -261zM285 30c81 0 121 92 121 214c0 120 -41 216 -126 216c-83 0 -123 -92 -123 -214c0 -121 41 -216 128 -216zM343 569h-14l-184 145v12h138z" />
    <glyph glyph-name="oacute" unicode="&#xf3;" horiz-adv-x="564" 
d="M250 567h-14l61 158h138v-12zM279 -12c-134 0 -241 91 -241 253c0 164 110 261 247 261c133 0 240 -91 240 -253c0 -164 -110 -261 -246 -261zM285 30c81 0 121 92 121 214c0 120 -41 216 -126 216c-83 0 -123 -92 -123 -214c0 -121 41 -216 128 -216z" />
    <glyph glyph-name="ocircumflex" unicode="&#xf4;" horiz-adv-x="564" 
d="M280 628l-140 -62l-8 9l142 159h12l142 -159l-7 -9zM279 -12c-134 0 -241 91 -241 253c0 164 110 261 247 261c133 0 240 -91 240 -253c0 -164 -110 -261 -246 -261zM285 30c81 0 121 92 121 214c0 120 -41 216 -126 216c-83 0 -123 -92 -123 -214
c0 -121 41 -216 128 -216z" />
    <glyph glyph-name="otilde" unicode="&#xf5;" horiz-adv-x="564" 
d="M279 -12c-134 0 -241 91 -241 253c0 164 110 261 247 261c133 0 240 -91 240 -253c0 -164 -110 -261 -246 -261zM285 30c81 0 121 92 121 214c0 120 -41 216 -126 216c-83 0 -123 -92 -123 -214c0 -121 41 -216 128 -216zM330 576c-43 0 -83 53 -119 53
c-25 0 -40 -17 -63 -50h-12c10 64 36 124 97 124c43 0 82 -53 119 -53c24 0 39 17 62 50h13c-11 -64 -37 -124 -97 -124z" />
    <glyph glyph-name="odieresis" unicode="&#xf6;" horiz-adv-x="564" 
d="M124 645c0 36 28 64 61 64s61 -28 61 -64c0 -34 -28 -62 -61 -62s-61 28 -61 62zM318 645c0 36 28 64 60 64c33 0 61 -28 61 -64c0 -34 -28 -62 -61 -62c-32 0 -60 28 -60 62zM279 -12c-134 0 -241 91 -241 253c0 164 110 261 247 261c133 0 240 -91 240 -253
c0 -164 -110 -261 -246 -261zM285 30c81 0 121 92 121 214c0 120 -41 216 -126 216c-83 0 -123 -92 -123 -214c0 -121 41 -216 128 -216z" />
    <glyph glyph-name="divide" unicode="&#xf7;" 
d="M235 390c0 40 27 65 65 65s64 -25 64 -64c0 -40 -26 -67 -64 -67s-65 26 -65 66zM520 215h-440v54h440v-54zM235 94c0 40 27 66 65 66s64 -25 64 -65s-26 -66 -64 -66s-65 25 -65 65z" />
    <glyph glyph-name="oslash" unicode="&#xf8;" horiz-adv-x="568" 
d="M279 -12c-30 0 -59 5 -85 14l-38 -88l-35 15l39 87c-74 39 -122 115 -122 225c0 164 110 261 247 261c29 0 57 -5 83 -13l36 83l35 -15l-37 -83c74 -38 123 -115 123 -225c0 -164 -110 -261 -246 -261zM285 30c82 0 122 92 122 214c0 61 -13 118 -37 157l-152 -346
c18 -16 40 -25 67 -25zM157 246c0 -62 11 -117 35 -157l152 346c-17 16 -39 25 -64 25c-83 0 -123 -92 -123 -214z" />
    <glyph glyph-name="ugrave" unicode="&#xf9;" horiz-adv-x="602" 
d="M578 0h-168v96c-33 -58 -87 -108 -169 -108c-96 0 -152 62 -152 196c0 71 2 137 2 206c0 12 -1 15 -10 22l-71 65v13h186c-2 -48 -2 -243 -2 -287c0 -74 4 -150 87 -150c48 0 90 34 118 83v254c0 12 -1 15 -10 22l-71 65v13h185v-393c0 -10 1 -12 11 -21l64 -64v-12z
M350 569h-14l-184 145v12h138z" />
    <glyph glyph-name="uacute" unicode="&#xfa;" horiz-adv-x="602" 
d="M257 567h-14l61 158h138v-12zM578 0h-168v96c-33 -58 -87 -108 -169 -108c-96 0 -152 62 -152 196c0 71 2 137 2 206c0 12 -1 15 -10 22l-71 65v13h186c-2 -48 -2 -243 -2 -287c0 -74 4 -150 87 -150c48 0 90 34 118 83v254c0 12 -1 15 -10 22l-71 65v13h185v-393
c0 -10 1 -12 11 -21l64 -64v-12z" />
    <glyph glyph-name="ucircumflex" unicode="&#xfb;" horiz-adv-x="602" 
d="M288 628l-140 -62l-8 9l142 159h12l142 -159l-7 -9zM578 0h-168v96c-33 -58 -87 -108 -169 -108c-96 0 -152 62 -152 196c0 71 2 137 2 206c0 12 -1 15 -10 22l-71 65v13h186c-2 -48 -2 -243 -2 -287c0 -74 4 -150 87 -150c48 0 90 34 118 83v254c0 12 -1 15 -10 22
l-71 65v13h185v-393c0 -10 1 -12 11 -21l64 -64v-12z" />
    <glyph glyph-name="udieresis" unicode="&#xfc;" horiz-adv-x="602" 
d="M131 645c0 36 28 64 61 64s61 -28 61 -64c0 -34 -28 -62 -61 -62s-61 28 -61 62zM325 645c0 36 28 64 60 64c33 0 61 -28 61 -64c0 -34 -28 -62 -61 -62c-32 0 -60 28 -60 62zM578 0h-168v96c-33 -58 -87 -108 -169 -108c-96 0 -152 62 -152 196c0 71 2 137 2 206
c0 12 -1 15 -10 22l-71 65v13h186c-2 -48 -2 -243 -2 -287c0 -74 4 -150 87 -150c48 0 90 34 118 83v254c0 12 -1 15 -10 22l-71 65v13h185v-393c0 -10 1 -12 11 -21l64 -64v-12z" />
    <glyph glyph-name="yacute" unicode="&#xfd;" horiz-adv-x="502" 
d="M73 -245c-24 0 -37 4 -47 12l37 151h12l55 -70c4 -6 7 -10 13 -10c8 0 17 8 26 21c25 34 38 61 54 103c3 8 5 14 1 23l-171 425c-5 12 -8 17 -14 25l-39 42v13h234v-13l-63 -49c-7 -6 -9 -8 -6 -17l116 -308l116 298c3 8 3 12 -3 17l-76 59v13h195v-13l-58 -62
c-8 -8 -12 -15 -17 -26l-151 -386c-25 -63 -63 -147 -109 -197c-34 -36 -65 -51 -105 -51zM242 567h-14l61 158h138v-12z" />
    <glyph glyph-name="thorn" unicode="&#xfe;" horiz-adv-x="581" 
d="M289 35c70 0 138 63 138 216c0 117 -52 188 -125 188c-43 0 -80 -21 -107 -65v-287c23 -34 54 -52 94 -52zM195 750v-324c35 47 84 76 147 76c109 0 198 -86 198 -243c0 -176 -111 -271 -225 -271c-51 0 -94 19 -120 47v-182c0 -14 2 -17 13 -22l112 -54v-12h-310v12
l70 46c9 6 11 9 11 20v791c0 10 -1 14 -9 21l-58 50v12z" />
    <glyph glyph-name="ydieresis" unicode="&#xff;" horiz-adv-x="502" 
d="M73 -245c-24 0 -37 4 -47 12l37 151h12l55 -70c4 -6 7 -10 13 -10c8 0 17 8 26 21c25 34 38 61 54 103c3 8 5 14 1 23l-171 425c-5 12 -8 17 -14 25l-39 42v13h234v-13l-63 -49c-7 -6 -9 -8 -6 -17l116 -308l116 298c3 8 3 12 -3 17l-76 59v13h195v-13l-58 -62
c-8 -8 -12 -15 -17 -26l-151 -386c-25 -63 -63 -147 -109 -197c-34 -36 -65 -51 -105 -51zM116 645c0 36 28 64 61 64s61 -28 61 -64c0 -34 -28 -62 -61 -62s-61 28 -61 62zM310 645c0 36 28 64 60 64c33 0 61 -28 61 -64c0 -34 -28 -62 -61 -62c-32 0 -60 28 -60 62z" />
    <glyph glyph-name="cent.alt" horiz-adv-x="488" 
d="M44 234c0 150 87 244 212 263v104h41v-100h13c43 0 90 -8 139 -25l-45 -147h-13l-61 118c-5 10 -11 13 -18 13h-16c-74 0 -141 -73 -141 -202c0 -137 73 -199 160 -199c57 0 97 26 126 58l11 -10c-24 -60 -78 -107 -155 -116v-102h-41v100h-9c-115 8 -203 94 -203 245z
" />
    <glyph glyph-name="dollar.alt" horiz-adv-x="568" 
d="M255 -15c-55 0 -131 8 -195 32v204h14l93 -174c6 -10 8 -12 19 -15c21 -5 51 -7 68 -7c114 0 158 50 158 122c0 67 -39 94 -117 119l-76 24c-78 25 -154 82 -154 186c0 101 71 174 202 186v75h41v-73c46 0 98 -5 161 -19v-192h-14l-88 156c-6 9 -15 12 -25 13
c-13 2 -28 3 -42 3c-93 0 -140 -47 -140 -113c0 -64 44 -99 115 -121l77 -24c90 -28 164 -72 164 -178c0 -107 -75 -185 -208 -201v-76h-41v73h-12z" />
    <glyph glyph-name="florin" unicode="&#x192;" horiz-adv-x="408" 
d="M58 335h79l23 124c29 159 97 291 230 291c46 0 78 -6 113 -23l-54 -137h-13l-35 105c-5 14 -8 17 -22 17c-34 0 -68 -26 -92 -95c-8 -25 -15 -56 -26 -119l-28 -163h125v-43h-132l-39 -224c-25 -145 -90 -313 -246 -313c-37 0 -74 7 -99 23l55 136h12l35 -100
c6 -19 8 -22 21 -22c33 0 58 31 80 87c15 36 28 88 38 146l46 267h-71v43z" />
    <glyph glyph-name="currency" unicode="&#xa4;" horiz-adv-x="662" 
d="M328 129c-45 0 -87 9 -121 30l-90 -91l-37 37l86 86c-31 32 -49 76 -49 131c0 52 17 96 46 129l-83 84l37 37l86 -87c37 24 82 36 131 36c47 0 91 -11 127 -34l84 85l37 -37l-81 -82c27 -31 44 -74 44 -126c0 -55 -19 -101 -51 -134l88 -88l-37 -37l-92 93
c-36 -22 -78 -32 -125 -32zM335 174c69 0 102 64 102 150c0 85 -34 151 -108 151c-71 0 -104 -63 -104 -150c0 -84 34 -151 110 -151z" />
    <glyph glyph-name="ellipsis" unicode="&#x2026;" horiz-adv-x="823" 
d="M64 65c0 42 31 75 73 75s73 -33 73 -75s-31 -75 -73 -75s-73 33 -73 75zM338 65c0 42 32 75 73 75c42 0 73 -33 73 -75s-31 -75 -73 -75c-41 0 -73 33 -73 75zM613 65c0 42 31 75 73 75c41 0 72 -33 72 -75s-31 -75 -72 -75c-42 0 -73 33 -73 75z" />
    <glyph glyph-name="endash" unicode="&#x2013;" horiz-adv-x="550" 
d="M520 220h-490v58h490v-58z" />
    <glyph glyph-name="emdash" unicode="&#x2014;" horiz-adv-x="1050" 
d="M1020 220h-990v58h990v-58z" />
    <glyph glyph-name="brokenbar" unicode="&#xa6;" horiz-adv-x="335" 
d="M196 322h-57v417h57v-417zM196 -235h-57v422h57v-422z" />
    <glyph glyph-name="dagger" unicode="&#x2020;" horiz-adv-x="412" 
d="M40 498v48h138v157h56v-157h138v-48h-138v-369h-56v369h-138z" />
    <glyph glyph-name="daggerdbl" unicode="&#x2021;" horiz-adv-x="412" 
d="M372 284h-138v-155h-56v155h-138v49h138v165h-138v48h138v157h56v-157h138v-48h-138v-165h138v-49z" />
    <glyph glyph-name="quotesinglbase" unicode="&#x201a;" horiz-adv-x="247" 
d="M198 41c0 -88 -60 -167 -148 -184l-5 11c49 29 83 69 83 119c0 16 -4 19 -14 22c-41 10 -59 37 -59 65c0 36 27 65 67 65c41 0 76 -31 76 -98z" />
    <glyph glyph-name="quotedblbase" unicode="&#x201e;" horiz-adv-x="444" 
d="M198 41c0 -88 -60 -167 -148 -184l-5 11c49 29 83 69 83 119c0 16 -4 19 -14 22c-41 10 -59 37 -59 65c0 36 27 65 67 65c41 0 76 -31 76 -98zM395 41c0 -88 -60 -167 -148 -184l-5 11c48 29 83 69 83 119c0 16 -4 19 -14 22c-41 10 -59 37 -59 65c0 36 27 65 67 65
c41 0 76 -31 76 -98z" />
    <glyph glyph-name="quoteleft" unicode="&#x2018;" horiz-adv-x="247" 
d="M49 573c0 88 60 167 148 184l5 -11c-49 -29 -83 -70 -83 -119c0 -17 4 -19 14 -22c40 -10 58 -37 58 -66c0 -35 -26 -64 -66 -64c-41 0 -76 31 -76 98z" />
    <glyph glyph-name="quotedblleft" unicode="&#x201c;" horiz-adv-x="444" 
d="M246 569c2 97 54 166 148 188l5 -11c-49 -29 -83 -70 -83 -119c0 -17 4 -19 14 -22c40 -10 58 -37 58 -66c0 -35 -26 -64 -65 -64c-42 0 -77 32 -77 94zM49 569c2 97 54 166 148 188l5 -11c-49 -29 -83 -70 -83 -119c0 -17 4 -19 14 -22c40 -10 58 -37 58 -66
c0 -35 -26 -64 -65 -64c-42 0 -77 32 -77 94z" />
    <glyph glyph-name="quoteright" unicode="&#x2019;" horiz-adv-x="247" 
d="M198 652c0 -88 -60 -167 -148 -184l-5 11c49 29 83 69 83 119c0 16 -4 19 -14 22c-41 10 -59 37 -59 66c0 35 27 64 67 64c41 0 76 -31 76 -98z" />
    <glyph glyph-name="quotedblright" unicode="&#x201d;" horiz-adv-x="444" 
d="M198 652c0 -88 -60 -167 -148 -184l-5 11c49 29 83 69 83 119c0 16 -4 19 -14 22c-41 10 -59 37 -59 66c0 35 27 64 67 64c41 0 76 -31 76 -98zM395 652c0 -88 -60 -167 -148 -184l-5 11c48 29 83 69 83 119c0 16 -4 19 -14 22c-41 10 -59 37 -59 66c0 35 27 64 67 64
c41 0 76 -31 76 -98z" />
    <glyph glyph-name="guilsinglleft" unicode="&#x2039;" horiz-adv-x="273" 
d="M218 60l-184 196v9l184 196l10 -9l-91 -192l91 -191z" />
    <glyph glyph-name="guilsinglright" unicode="&#x203a;" horiz-adv-x="273" 
d="M239 256l-184 -196l-9 9l90 191l-91 192l10 9l184 -196v-9z" />
    <glyph glyph-name="bullet" unicode="&#x2022;" horiz-adv-x="355" 
d="M62 313c0 66 49 119 115 119c67 0 115 -53 115 -119s-48 -118 -115 -118c-66 0 -115 52 -115 118z" />
    <glyph glyph-name="trademark" unicode="&#x2122;" horiz-adv-x="798" 
d="M749 405h-152v11l39 23c6 3 5 5 5 13v192l-99 -239h-6l-103 237v-174c0 -11 1 -16 9 -24l36 -28v-11h-124v11l36 28c9 9 10 12 10 24v185c0 6 0 9 -5 13l-39 24v13h118l80 -183l78 183h117v-12l-39 -23c-5 -3 -5 -6 -5 -11v-205c0 -8 -1 -10 4 -13l40 -23v-11zM259 405
h-152v11l37 24c6 3 7 6 7 14v215h-44c-6 0 -7 -1 -10 -5l-40 -62h-12v101h276v-101h-13l-40 62c-2 5 -3 5 -10 5h-43v-215c0 -8 1 -11 6 -14l38 -24v-11z" />
    <glyph glyph-name="minus" unicode="&#x2212;" 
d="M520 215h-440v54h440v-54z" />
    <glyph glyph-name="lessequal" unicode="&#x2264;" 
d="M486 152l-406 144v12l406 145l19 -52l-283 -97v-4l283 -97zM520 16h-440v55h440v-55z" />
    <glyph glyph-name="greaterequal" unicode="&#x2265;" 
d="M114 152l-19 51l283 97v4l-283 97l19 52l406 -145v-12zM520 16h-440v55h440v-55z" />
    <glyph glyph-name="notequal" unicode="&#x2260;" 
d="M520 129h-254l-57 -101l-44 25l42 76h-127v54h157l68 121h-225v54h255l60 107l45 -27l-45 -80h125v-54h-156l-68 -121h224v-54z" />
    <glyph glyph-name="approxequal" unicode="&#x2248;" 
d="M413 282c-89 0 -152 71 -223 71c-43 0 -72 -23 -91 -53l-44 30c26 42 70 77 132 77c89 0 152 -71 222 -71c44 0 73 23 92 54l44 -31c-27 -42 -71 -77 -132 -77zM413 105c-89 0 -152 71 -223 71c-43 0 -72 -23 -91 -54l-44 31c26 42 70 77 132 77c89 0 152 -71 222 -71
c44 0 73 23 92 53l44 -30c-27 -42 -71 -77 -132 -77z" />
    <glyph glyph-name="infinity" unicode="&#x221e;" horiz-adv-x="757" 
d="M87 245c0 -50 39 -103 101 -103c61 0 111 51 159 103c-48 51 -98 103 -159 103c-62 0 -101 -53 -101 -103zM670 245c0 50 -39 103 -101 103c-61 0 -111 -52 -159 -103c48 -52 98 -103 159 -103c62 0 101 53 101 103zM378 283c57 59 110 113 189 113
c74 0 156 -49 156 -151s-82 -152 -156 -152c-79 0 -132 55 -189 114c-56 -59 -109 -114 -188 -114c-74 0 -156 50 -156 152s82 151 156 151c79 0 132 -54 188 -113z" />
    <glyph glyph-name="lozenge" unicode="&#x25ca;" horiz-adv-x="506" 
d="M260 731l190 -407l-190 -408h-12l-191 408l191 407h12zM252 623l-139 -299l139 -300h4l138 300l-138 299h-4z" />
    <glyph glyph-name="radical" unicode="&#x221a;" 
d="M520 735l-261 -750h-12l-155 444l83 31l98 -277l199 566z" />
    <glyph glyph-name="acute" unicode="&#xb4;" horiz-adv-x="308" 
d="M68 567h-14l61 158h138v-12z" />
    <glyph glyph-name="hungarumlaut" unicode="&#x2dd;" horiz-adv-x="430" 
d="M104 734h116v-12l-153 -152h-12zM258 734h117v-12l-153 -152h-13z" />
    <glyph glyph-name="dotaccent" unicode="&#x2d9;" horiz-adv-x="248" 
d="M57 660c0 40 29 70 66 70c39 0 68 -30 68 -70c0 -38 -29 -68 -68 -68c-37 0 -66 30 -66 68z" />
    <glyph glyph-name="dieresis" unicode="&#xa8;" horiz-adv-x="425" 
d="M55 645c0 36 28 64 61 64s61 -28 61 -64c0 -34 -28 -62 -61 -62s-61 28 -61 62zM249 645c0 36 28 64 60 64c33 0 61 -28 61 -64c0 -34 -28 -62 -61 -62c-32 0 -60 28 -60 62z" />
    <glyph glyph-name="circumflex" unicode="&#x2c6;" horiz-adv-x="406" 
d="M203 628l-140 -62l-8 9l142 159h12l142 -159l-7 -9z" />
    <glyph glyph-name="caron" unicode="&#x2c7;" horiz-adv-x="406" 
d="M209 569h-12l-142 159l8 10l140 -63l141 63l7 -10z" />
    <glyph glyph-name="tilde" unicode="&#x2dc;" horiz-adv-x="406" 
d="M252 576c-43 0 -83 53 -119 53c-25 0 -40 -17 -63 -50h-12c10 64 36 124 97 124c43 0 82 -53 119 -53c24 0 39 17 62 50h13c-11 -64 -37 -124 -97 -124z" />
    <glyph glyph-name="breve" unicode="&#x2d8;" horiz-adv-x="370" 
d="M184 567c-69 0 -127 47 -122 154h12c13 -56 58 -79 110 -79s98 23 111 79h13c5 -107 -55 -154 -124 -154z" />
    <glyph glyph-name="ring" unicode="&#x2da;" horiz-adv-x="332" 
d="M233 665c0 37 -29 68 -66 68c-39 0 -67 -31 -67 -68c0 -38 28 -69 67 -69c37 0 66 31 66 69zM55 665c0 67 55 108 112 108c56 0 110 -41 110 -108c0 -68 -54 -108 -110 -108c-57 0 -112 40 -112 108z" />
    <glyph glyph-name="ringacute" horiz-adv-x="332" 
d="M55 665c0 30 12 55 23 78l73 149h129v-12l-158 -118c13 7 30 11 45 11c56 0 110 -41 110 -108c0 -68 -54 -108 -110 -108c-57 0 -112 40 -112 108zM233 665c0 37 -29 68 -66 68c-39 0 -67 -31 -67 -68c0 -38 28 -69 67 -69c37 0 66 31 66 69z" />
    <glyph glyph-name="commaaccent" unicode="&#xf6c3;" horiz-adv-x="234" 
d="M60 -279l-4 12c31 20 55 55 55 72c0 8 -3 10 -9 11c-27 4 -44 25 -44 55c0 33 25 58 59 58c35 0 62 -24 62 -73c0 -64 -52 -118 -119 -135z" />
    <glyph glyph-name="commatop" horiz-adv-x="234" 
d="M174 774l4 -12c-31 -20 -54 -55 -54 -72c0 -8 3 -10 9 -11c27 -4 44 -25 44 -55c0 -33 -26 -58 -60 -58c-35 0 -62 24 -62 73c0 64 53 118 119 135z" />
    <glyph glyph-name="caron.slovak" horiz-adv-x="233" 
d="M178 703v-12l-111 -214h-12l9 226h114z" />
    <glyph glyph-name="cedilla" unicode="&#xb8;" horiz-adv-x="335" 
d="M280 -145c0 -63 -53 -93 -113 -93c-54 0 -98 30 -112 73l9 6c23 -25 50 -34 77 -34c28 0 57 16 57 48c0 37 -38 53 -86 42l-5 4l64 109h6l-4 -77c55 7 107 -23 107 -78z" />
    <glyph glyph-name="ogonek" unicode="&#x2db;" horiz-adv-x="315" 
d="M251 -156l9 -6c-19 -47 -60 -76 -111 -76s-94 37 -94 92c0 56 45 112 136 146h17c-52 -30 -75 -85 -75 -123c0 -39 28 -62 58 -62c24 0 44 10 60 29z" />
    <glyph glyph-name="perthousand" unicode="&#x2030;" horiz-adv-x="1175" 
d="M588 333c-40 0 -63 -48 -63 -155c0 -108 23 -153 63 -153s63 45 63 152c0 109 -23 156 -63 156zM588 365c92 0 155 -61 155 -188s-61 -185 -155 -185c-91 0 -155 58 -155 185c0 125 64 188 155 188zM951 333c-40 0 -63 -48 -63 -155c0 -108 23 -153 63 -153s63 45 63 152
c0 109 -23 156 -63 156zM951 365c92 0 155 -61 155 -188s-61 -185 -155 -185c-91 0 -155 58 -155 185c0 125 64 188 155 188zM194 679c-40 0 -63 -48 -63 -155c0 -109 23 -153 63 -153s63 45 63 152c0 109 -23 156 -63 156zM194 711c92 0 155 -61 155 -188
s-61 -185 -155 -185c-91 0 -155 58 -155 185c0 125 64 188 155 188zM641 694l-448 -709l-38 25l449 708z" />
    <glyph glyph-name="fraction" unicode="&#x2044;" horiz-adv-x="83" 
d="M284 694l-448 -709l-38 25l449 708z" />
    <glyph glyph-name="Aringacute" unicode="&#x1fa;" horiz-adv-x="692" 
d="M496 86l-50 131h-254l-40 -109c-5 -13 -4 -17 9 -27l86 -67v-14h-253v14l85 65c12 10 16 12 22 28l178 481c5 14 6 19 -1 31l-38 73v11h140l235 -615c6 -15 8 -18 19 -26l60 -48v-14h-283v14l80 53c8 5 8 8 5 19zM317 560l-111 -301h224zM211 863c0 30 12 55 23 78
l73 149h129v-12l-158 -118c13 7 30 11 45 11c56 0 110 -41 110 -108c0 -68 -54 -108 -110 -108c-57 0 -112 40 -112 108zM389 863c0 37 -29 68 -66 68c-39 0 -67 -31 -67 -68c0 -38 28 -69 67 -69c37 0 66 31 66 69z" />
    <glyph glyph-name="Abreve" unicode="&#x102;" horiz-adv-x="692" 
d="M496 86l-50 131h-254l-40 -109c-5 -13 -4 -17 9 -27l86 -67v-14h-253v14l85 65c12 10 16 12 22 28l178 481c5 14 6 19 -1 31l-38 73v11h140l235 -615c6 -15 8 -18 19 -26l60 -48v-14h-283v14l80 53c8 5 8 8 5 19zM317 560l-111 -301h224zM323 765c-69 0 -127 47 -122 154
h12c13 -56 58 -79 110 -79s98 23 111 79h13c5 -107 -55 -154 -124 -154z" />
    <glyph glyph-name="Amacron" unicode="&#x100;" horiz-adv-x="692" 
d="M496 86l-50 131h-254l-40 -109c-5 -13 -4 -17 9 -27l86 -67v-14h-253v14l85 65c12 10 16 12 22 28l178 481c5 14 6 19 -1 31l-38 73v11h140l235 -615c6 -15 8 -18 19 -26l60 -48v-14h-283v14l80 53c8 5 8 8 5 19zM317 560l-111 -301h224zM457 801h-269v59h269v-59z" />
    <glyph glyph-name="Aogonek" unicode="&#x104;" horiz-adv-x="692" 
d="M685 -156l9 -6c-19 -47 -60 -76 -111 -76s-94 37 -94 92c0 56 44 112 134 146h-212v14l80 53c8 5 9 8 5 19l-50 131h-254l-40 -109c-5 -13 -4 -17 9 -27l86 -67v-14h-253v14l85 65c12 10 16 12 22 28l178 481c5 14 6 19 -1 31l-38 73v11h140l235 -615c6 -15 8 -18 19 -26
l60 -48v-14c-90 -1 -127 -75 -127 -123c0 -39 28 -62 58 -62c24 0 44 10 60 29zM317 560l-111 -301h224z" />
    <glyph glyph-name="AEacute" unicode="&#x1fc;" horiz-adv-x="985" 
d="M613 767h-14l61 158h138v-12zM-15 0v14l85 60c16 11 22 18 33 34l340 511c7 11 4 16 -3 22l-55 48v14h530v-201h-14l-88 146c-8 12 -10 14 -24 14h-184c-12 0 -14 -2 -14 -15v-291h131c14 0 17 2 26 13l60 81h13v-230h-13l-60 81c-9 11 -12 13 -26 13h-131v-258
c0 -13 2 -15 14 -15h188c14 0 17 2 24 14l95 146h13v-201h-542v14l86 52c9 5 11 8 11 20v131h-247l-77 -116c-10 -14 -7 -19 6 -29l80 -58v-14h-257zM259 259h221v334z" />
    <glyph glyph-name="Cacute" unicode="&#x106;" horiz-adv-x="645" 
d="M349 765h-14l61 158h138v-12zM390 -15c-237 0 -351 159 -351 367c0 212 134 366 357 366c55 0 118 -8 184 -24v-207h-13l-102 169c-7 12 -11 13 -24 16c-15 3 -33 4 -47 4c-154 0 -222 -133 -222 -319c0 -201 69 -330 224 -330c13 0 29 1 43 3c16 3 19 4 25 15l105 173
h13v-208c-58 -17 -135 -25 -192 -25z" />
    <glyph glyph-name="Ccaron" unicode="&#x10c;" horiz-adv-x="645" 
d="M386 767h-12l-142 159l8 10l140 -63l141 63l7 -10zM390 -15c-237 0 -351 159 -351 367c0 212 134 366 357 366c55 0 118 -8 184 -24v-207h-13l-102 169c-7 12 -11 13 -24 16c-15 3 -33 4 -47 4c-154 0 -222 -133 -222 -319c0 -201 69 -330 224 -330c13 0 29 1 43 3
c16 3 19 4 25 15l105 173h13v-208c-58 -17 -135 -25 -192 -25z" />
    <glyph glyph-name="Ccircumflex" unicode="&#x108;" horiz-adv-x="645" 
d="M380 826l-140 -62l-8 9l142 159h12l142 -159l-7 -9zM390 -15c-237 0 -351 159 -351 367c0 212 134 366 357 366c55 0 118 -8 184 -24v-207h-13l-102 169c-7 12 -11 13 -24 16c-15 3 -33 4 -47 4c-154 0 -222 -133 -222 -319c0 -201 69 -330 224 -330c13 0 29 1 43 3
c16 3 19 4 25 15l105 173h13v-208c-58 -17 -135 -25 -192 -25z" />
    <glyph glyph-name="Cdotaccent" unicode="&#x10a;" horiz-adv-x="645" 
d="M390 -15c-237 0 -351 159 -351 367c0 212 134 366 357 366c55 0 118 -8 184 -24v-207h-13l-102 169c-7 12 -11 13 -24 16c-15 3 -33 4 -47 4c-154 0 -222 -133 -222 -319c0 -201 69 -330 224 -330c13 0 29 1 43 3c16 3 19 4 25 15l105 173h13v-208
c-58 -17 -135 -25 -192 -25zM314 858c0 40 29 70 66 70c39 0 68 -30 68 -70c0 -38 -29 -68 -68 -68c-37 0 -66 30 -66 68z" />
    <glyph glyph-name="Dcaron" unicode="&#x10e;" horiz-adv-x="719" 
d="M340 767h-12l-142 159l8 10l140 -63l141 63l7 -10zM322 0h-292v14l85 52c8 5 10 8 10 20v531c0 12 -2 15 -10 20l-85 52v14h306c206 0 345 -125 345 -340c0 -257 -198 -363 -359 -363zM318 41c119 0 229 89 229 317c0 196 -81 304 -221 304h-72c-11 0 -14 -3 -14 -15
v-591c0 -12 3 -15 14 -15h64z" />
    <glyph glyph-name="Dcroat" unicode="&#x110;" horiz-adv-x="741" 
d="M344 0h-292v14l84 52c9 5 11 8 11 20v248h-88v41h88v242c0 12 -2 15 -11 20l-84 52v14h306c206 0 344 -125 344 -340c0 -257 -197 -363 -358 -363zM340 41c118 0 228 89 228 317c0 196 -80 304 -220 304h-73c-11 0 -13 -3 -13 -15v-272h132v-41h-132v-278
c0 -12 2 -15 14 -15h64z" />
    <glyph glyph-name="Ebreve" unicode="&#x114;" horiz-adv-x="635" 
d="M470 238h-12l-60 81c-9 11 -13 13 -26 13h-132v-276c0 -13 3 -15 14 -15h189c14 0 16 2 24 14l94 146h14v-201h-545v14l85 52c8 5 10 8 10 20v531c0 12 -2 15 -10 20l-85 52v14h539v-201h-14l-88 146c-7 12 -10 14 -24 14h-189c-11 0 -14 -2 -14 -15v-273h132
c13 0 17 2 26 13l60 81h12v-230zM329 765c-69 0 -127 47 -122 154h12c13 -56 58 -79 110 -79s98 23 111 79h13c5 -107 -55 -154 -124 -154z" />
    <glyph glyph-name="Ecaron" unicode="&#x11a;" horiz-adv-x="635" 
d="M335 767h-12l-142 159l8 10l140 -63l141 63l7 -10zM470 238h-12l-60 81c-9 11 -13 13 -26 13h-132v-276c0 -13 3 -15 14 -15h189c14 0 16 2 24 14l94 146h14v-201h-545v14l85 52c8 5 10 8 10 20v531c0 12 -2 15 -10 20l-85 52v14h539v-201h-14l-88 146
c-7 12 -10 14 -24 14h-189c-11 0 -14 -2 -14 -15v-273h132c13 0 17 2 26 13l60 81h12v-230z" />
    <glyph glyph-name="Edotaccent" unicode="&#x116;" horiz-adv-x="635" 
d="M470 238h-12l-60 81c-9 11 -13 13 -26 13h-132v-276c0 -13 3 -15 14 -15h189c14 0 16 2 24 14l94 146h14v-201h-545v14l85 52c8 5 10 8 10 20v531c0 12 -2 15 -10 20l-85 52v14h539v-201h-14l-88 146c-7 12 -10 14 -24 14h-189c-11 0 -14 -2 -14 -15v-273h132
c13 0 17 2 26 13l60 81h12v-230zM263 858c0 40 29 70 66 70c39 0 68 -30 68 -70c0 -38 -29 -68 -68 -68c-37 0 -66 30 -66 68z" />
    <glyph glyph-name="Emacron" unicode="&#x112;" horiz-adv-x="635" 
d="M470 238h-12l-60 81c-9 11 -13 13 -26 13h-132v-276c0 -13 3 -15 14 -15h189c14 0 16 2 24 14l94 146h14v-201h-545v14l85 52c8 5 10 8 10 20v531c0 12 -2 15 -10 20l-85 52v14h539v-201h-14l-88 146c-7 12 -10 14 -24 14h-189c-11 0 -14 -2 -14 -15v-273h132
c13 0 17 2 26 13l60 81h12v-230zM464 801h-269v59h269v-59z" />
    <glyph glyph-name="Eogonek" unicode="&#x118;" horiz-adv-x="635" 
d="M565 -156l9 -6c-19 -47 -59 -76 -111 -76c-51 0 -94 37 -94 92c0 56 45 111 135 146h-474v14l85 52c8 5 10 8 10 20v531c0 12 -2 15 -10 20l-85 52v14h539v-201h-14l-88 146c-7 12 -10 14 -24 14h-189c-11 0 -14 -2 -14 -15v-273h132c13 0 17 2 26 13l60 81h12v-230h-12
l-60 81c-9 11 -13 13 -26 13h-132v-276c0 -13 3 -15 14 -15h189c14 0 16 2 24 14l94 146h14v-201c-95 -1 -128 -73 -128 -123c0 -39 29 -62 59 -62c23 0 43 10 59 29z" />
    <glyph glyph-name="Gbreve" unicode="&#x11e;" horiz-adv-x="710" 
d="M373 -15c-222 0 -334 150 -334 371c0 209 131 362 371 362c60 0 128 -6 197 -24v-207h-13l-102 169c-6 11 -9 13 -23 16c-12 2 -37 4 -57 4c-162 0 -241 -122 -241 -315c0 -209 68 -334 226 -334c30 0 54 4 79 11c17 5 19 7 19 21v167c0 12 -2 15 -10 20l-76 50v14h286
v-14l-74 -49c-8 -5 -11 -8 -11 -21v-241l-105 19c-34 -9 -78 -19 -132 -19zM382 765c-69 0 -127 47 -122 154h12c13 -56 58 -79 110 -79s98 23 111 79h13c5 -107 -55 -154 -124 -154z" />
    <glyph glyph-name="Gcircumflex" unicode="&#x11c;" horiz-adv-x="710" 
d="M382 826l-140 -62l-8 9l142 159h12l142 -159l-7 -9zM373 -15c-222 0 -334 150 -334 371c0 209 131 362 371 362c60 0 128 -6 197 -24v-207h-13l-102 169c-6 11 -9 13 -23 16c-12 2 -37 4 -57 4c-162 0 -241 -122 -241 -315c0 -209 68 -334 226 -334c30 0 54 4 79 11
c17 5 19 7 19 21v167c0 12 -2 15 -10 20l-76 50v14h286v-14l-74 -49c-8 -5 -11 -8 -11 -21v-241l-105 19c-34 -9 -78 -19 -132 -19z" />
    <glyph glyph-name="Gcommaaccent" unicode="&#x122;" horiz-adv-x="710" 
d="M310 -279l-4 12c31 20 55 55 55 72c0 8 -3 10 -9 11c-27 4 -44 25 -44 55c0 33 25 58 59 58c35 0 62 -24 62 -73c0 -64 -52 -118 -119 -135zM373 -15c-222 0 -334 150 -334 371c0 209 131 362 371 362c60 0 128 -6 197 -24v-207h-13l-102 169c-6 11 -9 13 -23 16
c-12 2 -37 4 -57 4c-162 0 -241 -122 -241 -315c0 -209 68 -334 226 -334c30 0 54 4 79 11c17 5 19 7 19 21v167c0 12 -2 15 -10 20l-76 50v14h286v-14l-74 -49c-8 -5 -11 -8 -11 -21v-241l-105 19c-34 -9 -78 -19 -132 -19z" />
    <glyph glyph-name="Gdotaccent" unicode="&#x120;" horiz-adv-x="710" 
d="M373 -15c-222 0 -334 150 -334 371c0 209 131 362 371 362c60 0 128 -6 197 -24v-207h-13l-102 169c-6 11 -9 13 -23 16c-12 2 -37 4 -57 4c-162 0 -241 -122 -241 -315c0 -209 68 -334 226 -334c30 0 54 4 79 11c17 5 19 7 19 21v167c0 12 -2 15 -10 20l-76 50v14h286
v-14l-74 -49c-8 -5 -11 -8 -11 -21v-241l-105 19c-34 -9 -78 -19 -132 -19zM316 858c0 40 29 70 66 70c39 0 68 -30 68 -70c0 -38 -29 -68 -68 -68c-37 0 -66 30 -66 68z" />
    <glyph glyph-name="Hcircumflex" unicode="&#x124;" horiz-adv-x="792" 
d="M395 826l-140 -62l-8 9l142 159h12l142 -159l-7 -9zM667 617v-531c0 -12 2 -15 10 -20l85 -52v-14h-305v14l84 52c9 5 11 8 11 20v251h-312v-251c0 -12 2 -15 11 -20l85 -52v-14h-306v14l85 52c8 5 10 8 10 20v531c0 12 -2 15 -10 20l-85 52v14h306v-14l-85 -52
c-9 -5 -11 -8 -11 -20v-236h312v236c0 12 -2 15 -11 20l-84 52v14h305v-14l-85 -52c-8 -5 -10 -8 -10 -20z" />
    <glyph glyph-name="Hbar" unicode="&#x126;" horiz-adv-x="792" 
d="M667 617v-108h85v-41h-85v-382c0 -12 2 -15 10 -20l85 -52v-14h-305v14l84 52c9 5 11 8 11 20v210h-312v-210c0 -12 2 -15 11 -20l85 -52v-14h-306v14l85 52c8 5 10 8 10 20v382h-85v41h85v108c0 12 -2 15 -10 20l-85 52v14h306v-14l-85 -52c-9 -5 -11 -8 -11 -20v-108
h312v108c0 12 -2 15 -11 20l-84 52v14h305v-14l-85 -52c-8 -5 -10 -8 -10 -20zM240 468v-128h312v128h-312z" />
    <glyph glyph-name="Ibreve" unicode="&#x12c;" horiz-adv-x="366" 
d="M336 0h-306v14l85 52c8 5 10 8 10 20v531c0 12 -2 15 -10 20l-85 52v14h306v-14l-85 -52c-9 -5 -11 -8 -11 -20v-531c0 -12 2 -15 11 -20l85 -52v-14zM183 765c-69 0 -127 47 -122 154h12c13 -56 58 -79 110 -79s98 23 111 79h13c5 -107 -55 -154 -124 -154z" />
    <glyph glyph-name="Idotaccent" unicode="&#x130;" horiz-adv-x="366" 
d="M336 0h-306v14l85 52c8 5 10 8 10 20v531c0 12 -2 15 -10 20l-85 52v14h306v-14l-85 -52c-9 -5 -11 -8 -11 -20v-531c0 -12 2 -15 11 -20l85 -52v-14zM116 858c0 40 29 70 66 70c39 0 68 -30 68 -70c0 -38 -29 -68 -68 -68c-37 0 -66 30 -66 68z" />
    <glyph glyph-name="Imacron" unicode="&#x12a;" horiz-adv-x="366" 
d="M336 0h-306v14l85 52c8 5 10 8 10 20v531c0 12 -2 15 -10 20l-85 52v14h306v-14l-85 -52c-9 -5 -11 -8 -11 -20v-531c0 -12 2 -15 11 -20l85 -52v-14zM318 801h-269v59h269v-59z" />
    <glyph glyph-name="Iogonek" unicode="&#x12e;" horiz-adv-x="366" 
d="M279 -156l9 -6c-19 -47 -60 -76 -112 -76c-50 0 -93 37 -93 92c0 56 44 111 134 146h-187v14l85 52c8 5 10 8 10 20v531c0 12 -2 15 -10 20l-85 52v14h306v-14l-85 -52c-9 -5 -11 -8 -11 -20v-531c0 -12 2 -15 11 -20l85 -52v-14h-51c-98 0 -124 -85 -124 -123
c0 -39 28 -62 58 -62c24 0 43 10 60 29z" />
    <glyph glyph-name="Itilde" unicode="&#x128;" horiz-adv-x="366" 
d="M336 0h-306v14l85 52c8 5 10 8 10 20v531c0 12 -2 15 -10 20l-85 52v14h306v-14l-85 -52c-9 -5 -11 -8 -11 -20v-531c0 -12 2 -15 11 -20l85 -52v-14zM232 774c-43 0 -83 53 -119 53c-25 0 -40 -17 -63 -50h-12c10 64 36 124 97 124c43 0 82 -53 119 -53
c24 0 39 17 62 50h13c-11 -64 -37 -124 -97 -124z" />
    <glyph glyph-name="Jacute" horiz-adv-x="331" 
d="M134 780h-14l61 158h138v-12zM224 29c0 -147 -87 -217 -226 -244l-5 13c86 38 116 120 116 221v598c0 12 -2 15 -11 20l-85 52v14h306v-14l-85 -52c-8 -5 -10 -8 -10 -20v-588z" />
    <glyph glyph-name="IJ" unicode="&#x132;" horiz-adv-x="697" 
d="M336 0h-306v14l85 52c8 5 10 8 10 20v531c0 12 -2 15 -10 20l-85 52v14h306v-14l-85 -52c-9 -5 -11 -8 -11 -20v-531c0 -12 2 -15 11 -20l85 -52v-14zM589 29c0 -147 -87 -217 -226 -244l-5 13c86 38 116 120 116 221v598c0 12 -2 15 -11 20l-85 52v14h306v-14l-85 -52
c-8 -5 -10 -8 -10 -20v-588z" />
    <glyph glyph-name="Jcircumflex" unicode="&#x134;" horiz-adv-x="331" 
d="M166 826l-140 -62l-8 9l142 159h12l142 -159l-7 -9zM224 29c0 -147 -87 -217 -226 -244l-5 13c86 38 116 120 116 221v598c0 12 -2 15 -11 20l-85 52v14h306v-14l-85 -52c-8 -5 -10 -8 -10 -20v-588z" />
    <glyph glyph-name="Kcommaaccent" unicode="&#x136;" horiz-adv-x="680" 
d="M240 365v-279c0 -12 2 -15 11 -20l85 -52v-14h-306v14l85 52c8 5 10 8 10 20v531c0 12 -2 15 -10 20l-85 52v14h306v-14l-85 -52c-9 -5 -11 -8 -11 -20v-252l235 240c11 11 12 16 2 25l-61 59v14h268v-14l-118 -66c-22 -12 -26 -14 -43 -32l-176 -179l223 -315
c13 -19 17 -23 35 -34l81 -47v-16h-184zM316 -279l-4 12c31 20 55 55 55 72c0 8 -3 10 -9 11c-27 4 -44 25 -44 55c0 33 25 58 59 58c35 0 62 -24 62 -73c0 -64 -52 -118 -119 -135z" />
    <glyph glyph-name="Lacute" unicode="&#x139;" horiz-adv-x="573" 
d="M151 765h-14l61 158h138v-12zM254 41h161c16 0 19 2 27 14l92 153h13v-208h-517v14l85 52c8 5 10 8 10 20v531c0 12 -2 15 -10 20l-85 52v14h306v-14l-85 -52c-9 -5 -11 -8 -11 -20v-561c0 -13 3 -15 14 -15z" />
    <glyph glyph-name="Lcaron" unicode="&#x13d;" horiz-adv-x="573" 
d="M538 703v-12l-111 -214h-12l9 226h114zM254 41h161c16 0 19 2 27 14l92 153h13v-208h-517v14l85 52c8 5 10 8 10 20v531c0 12 -2 15 -10 20l-85 52v14h306v-14l-85 -52c-9 -5 -11 -8 -11 -20v-561c0 -13 3 -15 14 -15z" />
    <glyph glyph-name="Lcommaaccent" unicode="&#x13b;" horiz-adv-x="573" 
d="M251 -279l-4 12c31 20 55 55 55 72c0 8 -3 10 -9 11c-27 4 -44 25 -44 55c0 33 25 58 59 58c35 0 62 -24 62 -73c0 -64 -52 -118 -119 -135zM254 41h161c16 0 19 2 27 14l92 153h13v-208h-517v14l85 52c8 5 10 8 10 20v531c0 12 -2 15 -10 20l-85 52v14h306v-14l-85 -52
c-9 -5 -11 -8 -11 -20v-561c0 -13 3 -15 14 -15z" />
    <glyph glyph-name="Ldot" unicode="&#x13f;" horiz-adv-x="573" 
d="M254 41h161c16 0 19 2 27 14l92 153h13v-208h-517v14l85 52c8 5 10 8 10 20v531c0 12 -2 15 -10 20l-85 52v14h306v-14l-85 -52c-9 -5 -11 -8 -11 -20v-561c0 -13 3 -15 14 -15zM365 384c0 40 29 70 66 70c39 0 68 -30 68 -70c0 -38 -29 -68 -68 -68c-37 0 -66 30 -66 68
z" />
    <glyph glyph-name="Lslash" unicode="&#x141;" horiz-adv-x="590" 
d="M271 41h161c16 0 20 2 27 14l91 153h14v-208h-517v14l84 52c9 5 11 8 11 20v203l-91 -38l-15 39l106 45v282c0 12 -2 15 -11 20l-84 52v14h305v-14l-85 -52c-8 -5 -10 -8 -10 -20v-234l118 51l16 -38l-134 -58v-282c0 -13 2 -15 14 -15z" />
    <glyph glyph-name="Nacute" unicode="&#x143;" horiz-adv-x="747" 
d="M351 765h-14l61 158h138v-12zM637 589v-589h-58l-400 581v-467c0 -13 2 -18 11 -25l93 -75v-14h-253v14l91 75c8 7 11 12 11 25v487c0 13 -2 16 -10 21l-91 67v14h200l359 -524v410c0 12 -2 18 -11 25l-93 75v14h253v-14l-91 -75c-8 -7 -11 -13 -11 -25z" />
    <glyph glyph-name="Ncaron" unicode="&#x147;" horiz-adv-x="747" 
d="M389 767h-12l-142 159l8 10l140 -63l141 63l7 -10zM637 589v-589h-58l-400 581v-467c0 -13 2 -18 11 -25l93 -75v-14h-253v14l91 75c8 7 11 12 11 25v487c0 13 -2 16 -10 21l-91 67v14h200l359 -524v410c0 12 -2 18 -11 25l-93 75v14h253v-14l-91 -75
c-8 -7 -11 -13 -11 -25z" />
    <glyph glyph-name="Ncommaaccent" unicode="&#x145;" horiz-adv-x="747" 
d="M327 -279l-4 12c31 20 55 55 55 72c0 8 -3 10 -9 11c-27 4 -44 25 -44 55c0 33 25 58 59 58c35 0 62 -24 62 -73c0 -64 -52 -118 -119 -135zM637 589v-589h-58l-400 581v-467c0 -13 2 -18 11 -25l93 -75v-14h-253v14l91 75c8 7 11 12 11 25v487c0 13 -2 16 -10 21l-91 67
v14h200l359 -524v410c0 12 -2 18 -11 25l-93 75v14h253v-14l-91 -75c-8 -7 -11 -13 -11 -25z" />
    <glyph glyph-name="Eng" unicode="&#x14a;" horiz-adv-x="711" 
d="M639 500v-471c0 -147 -87 -217 -226 -244l-5 13c86 38 116 120 116 221v470c0 120 -55 161 -135 161c-66 0 -121 -34 -149 -84v-480c0 -12 2 -15 11 -20l85 -52v-14h-306v14l85 52c8 5 10 8 10 20v531c0 12 -2 15 -10 20l-85 52v14h210v-77c33 51 96 92 185 92
c136 0 214 -78 214 -218z" />
    <glyph glyph-name="Obreve" unicode="&#x14e;" horiz-adv-x="736" 
d="M368 718c187 0 330 -132 330 -364c0 -223 -142 -369 -330 -369c-187 0 -329 131 -329 363c0 224 142 370 329 370zM365 676c-111 0 -192 -104 -192 -320c0 -215 80 -329 198 -329c112 0 192 103 192 320c0 215 -80 329 -198 329zM368 765c-69 0 -127 47 -122 154h12
c13 -56 58 -79 110 -79s98 23 111 79h13c5 -107 -55 -154 -124 -154z" />
    <glyph glyph-name="Ohungarumlaut" unicode="&#x150;" horiz-adv-x="736" 
d="M306 932h116v-12l-153 -152h-12zM460 932h117v-12l-153 -152h-13zM368 718c187 0 330 -132 330 -364c0 -223 -142 -369 -330 -369c-187 0 -329 131 -329 363c0 224 142 370 329 370zM365 676c-111 0 -192 -104 -192 -320c0 -215 80 -329 198 -329c112 0 192 103 192 320
c0 215 -80 329 -198 329z" />
    <glyph glyph-name="Omacron" unicode="&#x14c;" horiz-adv-x="736" 
d="M502 801h-269v59h269v-59zM368 718c187 0 330 -132 330 -364c0 -223 -142 -369 -330 -369c-187 0 -329 131 -329 363c0 224 142 370 329 370zM365 676c-111 0 -192 -104 -192 -320c0 -215 80 -329 198 -329c112 0 192 103 192 320c0 215 -80 329 -198 329z" />
    <glyph glyph-name="Oslashacute" unicode="&#x1fe;" horiz-adv-x="736" 
d="M368 718c45 0 88 -8 126 -23l40 89l39 -15l-41 -92c100 -55 166 -167 166 -323c0 -223 -142 -369 -330 -369c-47 0 -91 9 -131 25l-41 -92l-39 16l42 94c-97 56 -160 166 -160 320c0 224 142 370 329 370zM563 347c0 114 -24 200 -65 254l-235 -531
c30 -28 66 -43 108 -43c112 0 192 103 192 320zM365 676c-111 0 -192 -104 -192 -320c0 -111 22 -194 61 -248l235 529c-30 26 -64 39 -104 39zM336 780h-14l61 158h138v-12z" />
    <glyph glyph-name="Racute" unicode="&#x154;" horiz-adv-x="681" 
d="M301 765h-14l61 158h138v-12zM679 0h-163l-155 297c-7 13 -12 13 -25 13h-87v-224c0 -12 3 -15 11 -21l84 -51v-14h-305v14l85 52c8 5 10 8 10 20v531c0 12 -2 15 -10 20l-85 52v14h313c143 0 249 -61 249 -182c0 -96 -61 -160 -140 -181l139 -252c9 -13 15 -23 25 -31
l54 -43v-14zM249 647v-296h92c69 0 135 48 135 159c0 104 -64 152 -135 152h-78c-11 0 -14 -3 -14 -15z" />
    <glyph glyph-name="Rcaron" unicode="&#x158;" horiz-adv-x="681" 
d="M338 767h-12l-142 159l8 10l140 -63l141 63l7 -10zM679 0h-163l-155 297c-7 13 -12 13 -25 13h-87v-224c0 -12 3 -15 11 -21l84 -51v-14h-305v14l85 52c8 5 10 8 10 20v531c0 12 -2 15 -10 20l-85 52v14h313c143 0 249 -61 249 -182c0 -96 -61 -160 -140 -181l139 -252
c9 -13 15 -23 25 -31l54 -43v-14zM249 647v-296h92c69 0 135 48 135 159c0 104 -64 152 -135 152h-78c-11 0 -14 -3 -14 -15z" />
    <glyph glyph-name="Rcommaaccent" unicode="&#x156;" horiz-adv-x="681" 
d="M299 -279l-4 12c31 20 55 55 55 72c0 8 -3 10 -9 11c-27 4 -44 25 -44 55c0 33 25 58 59 58c35 0 62 -24 62 -73c0 -64 -52 -118 -119 -135zM679 0h-163l-155 297c-7 13 -12 13 -25 13h-87v-224c0 -12 3 -15 11 -21l84 -51v-14h-305v14l85 52c8 5 10 8 10 20v531
c0 12 -2 15 -10 20l-85 52v14h313c143 0 249 -61 249 -182c0 -96 -61 -160 -140 -181l139 -252c9 -13 15 -23 25 -31l54 -43v-14zM249 647v-296h92c69 0 135 48 135 159c0 104 -64 152 -135 152h-78c-11 0 -14 -3 -14 -15z" />
    <glyph glyph-name="Sacute" unicode="&#x15a;" horiz-adv-x="571" 
d="M268 765h-14l61 158h138v-12zM259 -15c-66 0 -137 10 -200 32v205h14l92 -172c6 -11 9 -15 21 -18c25 -5 45 -7 71 -7c103 0 168 52 168 129c0 70 -49 102 -123 133l-84 35c-79 33 -155 89 -155 195c0 125 106 201 256 201c54 0 108 -5 164 -19v-192h-13l-88 153
c-6 10 -12 14 -21 15c-13 2 -27 3 -43 3c-99 0 -154 -56 -154 -127c0 -54 32 -92 105 -123l92 -38c93 -39 169 -82 169 -190c0 -127 -100 -215 -271 -215z" />
    <glyph glyph-name="Scedilla" unicode="&#x15e;" horiz-adv-x="571" 
d="M259 -15c-66 0 -137 10 -200 32v205h14l92 -172c6 -11 9 -15 21 -18c25 -5 45 -7 71 -7c103 0 168 52 168 129c0 70 -49 102 -123 133l-84 35c-79 33 -155 89 -155 195c0 125 106 201 256 201c54 0 108 -5 164 -19v-192h-13l-88 153c-6 10 -12 14 -21 15
c-13 2 -27 3 -43 3c-99 0 -154 -56 -154 -127c0 -54 32 -92 105 -123l92 -38c93 -39 169 -82 169 -190c0 -121 -90 -206 -245 -214l-2 -53c55 7 107 -23 107 -78c0 -63 -53 -93 -113 -93c-54 0 -98 30 -112 73l9 6c23 -25 50 -34 77 -34c28 0 57 16 57 48
c0 37 -38 53 -86 42l-5 4l49 84h-7z" />
    <glyph glyph-name="Scircumflex" unicode="&#x15c;" horiz-adv-x="571" 
d="M300 826l-140 -62l-8 9l142 159h12l142 -159l-7 -9zM259 -15c-66 0 -137 10 -200 32v205h14l92 -172c6 -11 9 -15 21 -18c25 -5 45 -7 71 -7c103 0 168 52 168 129c0 70 -49 102 -123 133l-84 35c-79 33 -155 89 -155 195c0 125 106 201 256 201c54 0 108 -5 164 -19
v-192h-13l-88 153c-6 10 -12 14 -21 15c-13 2 -27 3 -43 3c-99 0 -154 -56 -154 -127c0 -54 32 -92 105 -123l92 -38c93 -39 169 -82 169 -190c0 -127 -100 -215 -271 -215z" />
    <glyph glyph-name="Scommaaccent" unicode="&#x218;" horiz-adv-x="571" 
d="M214 -279l-4 12c31 20 55 55 55 72c0 8 -3 10 -9 11c-27 4 -44 25 -44 55c0 33 25 58 59 58c35 0 62 -24 62 -73c0 -64 -52 -118 -119 -135zM259 -15c-66 0 -137 10 -200 32v205h14l92 -172c6 -11 9 -15 21 -18c25 -5 45 -7 71 -7c103 0 168 52 168 129
c0 70 -49 102 -123 133l-84 35c-79 33 -155 89 -155 195c0 125 106 201 256 201c54 0 108 -5 164 -19v-192h-13l-88 153c-6 10 -12 14 -21 15c-13 2 -27 3 -43 3c-99 0 -154 -56 -154 -127c0 -54 32 -92 105 -123l92 -38c93 -39 169 -82 169 -190
c0 -127 -100 -215 -271 -215z" />
    <glyph glyph-name="Tbar" unicode="&#x166;" horiz-adv-x="644" 
d="M619 703v-208h-14l-89 151c-9 15 -12 16 -27 16h-110v-297h145v-42h-145v-237c0 -12 2 -15 11 -20l85 -52v-14h-306v14l85 52c8 5 10 8 10 20v237h-144v42h144v297h-110c-14 0 -17 -1 -27 -16l-89 -151h-13v208h594z" />
    <glyph glyph-name="Tcaron" unicode="&#x164;" horiz-adv-x="644" 
d="M327 767h-12l-142 159l8 10l140 -63l141 63l7 -10zM619 703v-208h-14l-89 151c-9 15 -12 16 -27 16h-110v-576c0 -12 2 -15 11 -20l85 -52v-14h-306v14l85 52c8 5 10 8 10 20v576h-110c-14 0 -17 -1 -27 -16l-89 -151h-13v208h594z" />
    <glyph glyph-name="Tcommaaccent" unicode="&#x162;" horiz-adv-x="644" 
d="M266 -279l-4 12c31 20 55 55 55 72c0 8 -3 10 -9 11c-27 4 -44 25 -44 55c0 33 25 58 59 58c35 0 62 -24 62 -73c0 -64 -52 -118 -119 -135zM619 703v-208h-14l-89 151c-9 15 -12 16 -27 16h-110v-576c0 -12 2 -15 11 -20l85 -52v-14h-306v14l85 52c8 5 10 8 10 20v576
h-110c-14 0 -17 -1 -27 -16l-89 -151h-13v208h594z" />
    <glyph glyph-name="uni021A" unicode="&#x21a;" horiz-adv-x="644" 
d="M266 -279l-4 12c31 20 55 55 55 72c0 8 -3 10 -9 11c-27 4 -44 25 -44 55c0 33 25 58 59 58c35 0 62 -24 62 -73c0 -64 -52 -118 -119 -135zM619 703v-208h-14l-89 151c-9 15 -12 16 -27 16h-110v-576c0 -12 2 -15 11 -20l85 -52v-14h-306v14l85 52c8 5 10 8 10 20v576
h-110c-14 0 -17 -1 -27 -16l-89 -151h-13v208h594z" />
    <glyph glyph-name="Ubreve" unicode="&#x16c;" horiz-adv-x="724" 
d="M370 -15c-184 0 -259 93 -259 255v376c0 11 -2 15 -11 20l-84 53v14h304v-14l-84 -53c-8 -5 -10 -8 -10 -20v-361c0 -134 59 -218 169 -218c103 0 177 69 177 215v337c0 12 -3 18 -12 25l-93 75v14h254v-14l-92 -75c-8 -7 -11 -13 -11 -25v-342
c0 -154 -74 -262 -248 -262zM388 765c-69 0 -127 47 -122 154h12c13 -56 58 -79 110 -79s98 23 111 79h13c5 -107 -55 -154 -124 -154z" />
    <glyph glyph-name="Uhungarumlaut" unicode="&#x170;" horiz-adv-x="724" 
d="M370 -15c-184 0 -259 93 -259 255v376c0 11 -2 15 -11 20l-84 53v14h304v-14l-84 -53c-8 -5 -10 -8 -10 -20v-361c0 -134 59 -218 169 -218c103 0 177 69 177 215v337c0 12 -3 18 -12 25l-93 75v14h254v-14l-92 -75c-8 -7 -11 -13 -11 -25v-342
c0 -154 -74 -262 -248 -262zM326 932h116v-12l-153 -152h-12zM480 932h117v-12l-153 -152h-13z" />
    <glyph glyph-name="Umacron" unicode="&#x16a;" horiz-adv-x="724" 
d="M370 -15c-184 0 -259 93 -259 255v376c0 11 -2 15 -11 20l-84 53v14h304v-14l-84 -53c-8 -5 -10 -8 -10 -20v-361c0 -134 59 -218 169 -218c103 0 177 69 177 215v337c0 12 -3 18 -12 25l-93 75v14h254v-14l-92 -75c-8 -7 -11 -13 -11 -25v-342
c0 -154 -74 -262 -248 -262zM522 801h-269v59h269v-59z" />
    <glyph glyph-name="Uring" unicode="&#x16e;" horiz-adv-x="724" 
d="M454 863c0 37 -29 68 -66 68c-39 0 -67 -31 -67 -68c0 -38 28 -69 67 -69c37 0 66 31 66 69zM276 863c0 67 55 108 112 108c56 0 110 -41 110 -108c0 -68 -54 -108 -110 -108c-57 0 -112 40 -112 108zM370 -15c-184 0 -259 93 -259 255v376c0 11 -2 15 -11 20l-84 53v14
h304v-14l-84 -53c-8 -5 -10 -8 -10 -20v-361c0 -134 59 -218 169 -218c103 0 177 69 177 215v337c0 12 -3 18 -12 25l-93 75v14h254v-14l-92 -75c-8 -7 -11 -13 -11 -25v-342c0 -154 -74 -262 -248 -262z" />
    <glyph glyph-name="Uogonek" unicode="&#x172;" horiz-adv-x="724" 
d="M481 -156l9 -6c-19 -47 -60 -76 -111 -76s-94 37 -94 92c0 48 32 100 116 132c-4 0 -27 -1 -31 -1c-184 0 -259 93 -259 255v376c0 11 -2 15 -11 20l-84 53v14h304v-14l-84 -53c-8 -5 -10 -8 -10 -20v-361c0 -134 59 -218 169 -218c103 0 177 69 177 215v337
c0 12 -3 18 -12 25l-93 75v14h254v-14l-92 -75c-8 -7 -11 -13 -11 -25v-342c0 -141 -54 -224 -186 -267c-45 -14 -69 -59 -69 -103c0 -39 28 -62 59 -62c23 0 43 10 59 29z" />
    <glyph glyph-name="Utilde" unicode="&#x168;" horiz-adv-x="724" 
d="M370 -15c-184 0 -259 93 -259 255v376c0 11 -2 15 -11 20l-84 53v14h304v-14l-84 -53c-8 -5 -10 -8 -10 -20v-361c0 -134 59 -218 169 -218c103 0 177 69 177 215v337c0 12 -3 18 -12 25l-93 75v14h254v-14l-92 -75c-8 -7 -11 -13 -11 -25v-342
c0 -154 -74 -262 -248 -262zM437 774c-43 0 -83 53 -119 53c-25 0 -40 -17 -63 -50h-12c10 64 36 124 97 124c43 0 82 -53 119 -53c24 0 39 17 62 50h13c-11 -64 -37 -124 -97 -124z" />
    <glyph glyph-name="Wacute" unicode="&#x1e82;" horiz-adv-x="994" 
d="M472 765h-14l61 158h138v-12zM291 0l-217 615c-6 16 -8 18 -19 27l-59 47v14h281v-14l-79 -53c-7 -5 -8 -8 -4 -19l158 -466l128 355l-34 109c-5 15 -10 20 -20 28l-55 46v14h275v-14l-78 -53c-8 -5 -8 -8 -5 -19l137 -462l158 440c4 14 2 17 -9 26l-87 68v14h254v-14
l-85 -64c-13 -10 -17 -13 -23 -29l-216 -596h-54l-136 434l-156 -434h-55z" />
    <glyph glyph-name="Wcircumflex" unicode="&#x174;" horiz-adv-x="994" 
d="M503 826l-140 -62l-8 9l142 159h12l142 -159l-7 -9zM291 0l-217 615c-6 16 -8 18 -19 27l-59 47v14h281v-14l-79 -53c-7 -5 -8 -8 -4 -19l158 -466l128 355l-34 109c-5 15 -10 20 -20 28l-55 46v14h275v-14l-78 -53c-8 -5 -8 -8 -5 -19l137 -462l158 440c4 14 2 17 -9 26
l-87 68v14h254v-14l-85 -64c-13 -10 -17 -13 -23 -29l-216 -596h-54l-136 434l-156 -434h-55z" />
    <glyph glyph-name="Wdieresis" unicode="&#x1e84;" horiz-adv-x="994" 
d="M345 843c0 36 28 64 61 64s61 -28 61 -64c0 -34 -28 -62 -61 -62s-61 28 -61 62zM539 843c0 36 28 64 60 64c33 0 61 -28 61 -64c0 -34 -28 -62 -61 -62c-32 0 -60 28 -60 62zM291 0l-217 615c-6 16 -8 18 -19 27l-59 47v14h281v-14l-79 -53c-7 -5 -8 -8 -4 -19l158 -466
l128 355l-34 109c-5 15 -10 20 -20 28l-55 46v14h275v-14l-78 -53c-8 -5 -8 -8 -5 -19l137 -462l158 440c4 14 2 17 -9 26l-87 68v14h254v-14l-85 -64c-13 -10 -17 -13 -23 -29l-216 -596h-54l-136 434l-156 -434h-55z" />
    <glyph glyph-name="Wgrave" unicode="&#x1e80;" horiz-adv-x="994" 
d="M291 0l-217 615c-6 16 -8 18 -19 27l-59 47v14h281v-14l-79 -53c-7 -5 -8 -8 -4 -19l158 -466l128 355l-34 109c-5 15 -10 20 -20 28l-55 46v14h275v-14l-78 -53c-8 -5 -8 -8 -5 -19l137 -462l158 440c4 14 2 17 -9 26l-87 68v14h254v-14l-85 -64
c-13 -10 -17 -13 -23 -29l-216 -596h-54l-136 434l-156 -434h-55zM565 767h-14l-184 145v12h138z" />
    <glyph glyph-name="uni1E8A" unicode="&#x1e8a;" horiz-adv-x="676" 
d="M13 0v14l97 70c11 7 17 13 27 28l150 226l-187 272c-9 13 -14 18 -27 27l-69 52v14h278v-14l-59 -41c-10 -7 -9 -14 -2 -23l139 -213l125 190c7 10 7 16 -1 23l-76 64v14h250v-14l-97 -70c-11 -8 -18 -13 -27 -27l-147 -221l190 -278c9 -13 15 -18 28 -28l67 -51v-14
h-277v14l59 41c9 7 8 14 1 24l-140 217l-129 -195c-7 -10 -7 -16 0 -23l77 -64v-14h-250zM274 858c0 40 29 70 66 70c39 0 68 -30 68 -70c0 -38 -29 -68 -68 -68c-37 0 -66 30 -66 68z" />
    <glyph glyph-name="Ycircumflex" unicode="&#x176;" horiz-adv-x="652" 
d="M479 0h-305v14l84 52c9 5 11 8 11 20v170c0 16 -2 24 -8 35l-186 323c-9 15 -14 22 -26 31l-56 44v14h289v-14l-78 -50c-8 -6 -9 -11 -4 -21l161 -287l146 271c5 10 4 14 -3 20l-86 67v14h251v-14l-89 -66c-14 -11 -16 -13 -25 -30l-163 -302c-6 -11 -8 -18 -8 -34v-171
c0 -12 2 -15 10 -20l85 -52v-14zM345 826l-140 -62l-8 9l142 159h12l142 -159l-7 -9z" />
    <glyph glyph-name="Ygrave" unicode="&#x1ef2;" horiz-adv-x="652" 
d="M479 0h-305v14l84 52c9 5 11 8 11 20v170c0 16 -2 24 -8 35l-186 323c-9 15 -14 22 -26 31l-56 44v14h289v-14l-78 -50c-8 -6 -9 -11 -4 -21l161 -287l146 271c5 10 4 14 -3 20l-86 67v14h251v-14l-89 -66c-14 -11 -16 -13 -25 -30l-163 -302c-6 -11 -8 -18 -8 -34v-171
c0 -12 2 -15 10 -20l85 -52v-14zM407 767h-14l-184 145v12h138z" />
    <glyph glyph-name="Zacute" unicode="&#x179;" horiz-adv-x="575" 
d="M274 765h-14l61 158h138v-12zM535 0h-505v14l381 648h-236c-14 0 -16 -1 -24 -13l-89 -157h-13v211h504v-14l-383 -648h241c14 0 16 1 24 13l95 164h13z" />
    <glyph glyph-name="Zdotaccent" unicode="&#x17b;" horiz-adv-x="575" 
d="M535 0h-505v14l381 648h-236c-14 0 -16 -1 -24 -13l-89 -157h-13v211h504v-14l-383 -648h241c14 0 16 1 24 13l95 164h13zM239 858c0 40 29 70 66 70c39 0 68 -30 68 -70c0 -38 -29 -68 -68 -68c-37 0 -66 30 -66 68z" />
    <glyph glyph-name="uni01B5" unicode="&#x1b5;" horiz-adv-x="575" 
d="M97 334v41h145l169 287h-236c-14 0 -16 -1 -24 -13l-89 -157h-13v211h504v-14l-186 -314h118v-41h-142l-173 -293h241c14 0 16 1 24 13l95 164h13l-8 -218h-505v14l188 320h-121z" />
    <glyph glyph-name="aeacute" unicode="&#x1fd;" horiz-adv-x="795" 
d="M368 567h-14l61 158h138v-12zM434 297h208c-4 105 -33 163 -97 163c-58 0 -105 -55 -111 -163zM184 -11c-79 0 -139 50 -139 128c0 93 82 159 203 159c26 0 54 -3 78 -8c1 23 8 52 8 83c0 69 -36 112 -105 112c-10 0 -18 -1 -23 -2c-7 -1 -13 -4 -17 -12l-65 -118h-13
l-38 137c57 24 109 34 167 34c69 0 127 -15 159 -62c43 41 92 62 151 62c110 0 197 -60 197 -221c0 -2 0 -22 -1 -24h-313c1 -144 76 -198 159 -198c52 0 109 20 152 69l10 -8c-35 -89 -109 -132 -201 -132c-85 0 -157 36 -195 106c-27 -64 -104 -105 -174 -105zM226 50
c43 0 91 27 115 80c-9 28 -15 62 -16 101c-17 3 -33 5 -47 5c-77 0 -128 -43 -128 -106c0 -52 35 -80 76 -80z" />
    <glyph glyph-name="abreve" unicode="&#x103;" horiz-adv-x="522" 
d="M249 276c27 0 58 -4 84 -10c0 34 1 65 1 78c0 79 -36 119 -105 119c-10 0 -18 -1 -23 -2c-7 -1 -13 -4 -17 -12l-65 -118h-13l-38 137c57 24 109 34 167 34c140 0 193 -63 193 -173c0 -79 -5 -162 -5 -225c0 -35 14 -54 35 -54c15 0 29 9 39 22l9 -8
c-10 -47 -49 -75 -95 -75c-50 0 -83 33 -86 86c-27 -48 -79 -86 -147 -86c-79 0 -138 49 -138 128c0 93 83 159 204 159zM227 50c41 0 82 27 103 80c1 28 2 64 2 100c-19 4 -39 6 -54 6c-78 0 -128 -44 -128 -106c0 -52 35 -80 77 -80zM252 567c-69 0 -127 47 -122 154h12
c13 -56 58 -79 110 -79s98 23 111 79h13c5 -107 -55 -154 -124 -154z" />
    <glyph glyph-name="amacron" unicode="&#x101;" horiz-adv-x="522" 
d="M249 276c27 0 58 -4 84 -10c0 34 1 65 1 78c0 79 -36 119 -105 119c-10 0 -18 -1 -23 -2c-7 -1 -13 -4 -17 -12l-65 -118h-13l-38 137c57 24 109 34 167 34c140 0 193 -63 193 -173c0 -79 -5 -162 -5 -225c0 -35 14 -54 35 -54c15 0 29 9 39 22l9 -8
c-10 -47 -49 -75 -95 -75c-50 0 -83 33 -86 86c-27 -48 -79 -86 -147 -86c-79 0 -138 49 -138 128c0 93 83 159 204 159zM227 50c41 0 82 27 103 80c1 28 2 64 2 100c-19 4 -39 6 -54 6c-78 0 -128 -44 -128 -106c0 -52 35 -80 77 -80zM386 603h-269v59h269v-59z" />
    <glyph glyph-name="aogonek" unicode="&#x105;" horiz-adv-x="522" 
d="M249 276c27 0 58 -4 84 -10c0 34 1 65 1 78c0 79 -36 119 -105 119c-10 0 -18 -1 -23 -2c-7 -1 -13 -4 -17 -12l-65 -118h-13l-38 137c57 24 109 34 167 34c140 0 193 -63 193 -173c0 -79 -5 -162 -5 -225c0 -35 14 -54 35 -54c15 0 29 9 39 22l9 -8
c-6 -30 -24 -51 -48 -64c-51 -27 -74 -85 -74 -123c0 -39 28 -62 58 -62c24 0 43 10 59 29l10 -6c-19 -47 -60 -76 -112 -76c-50 0 -93 37 -93 92c0 50 35 100 108 135c-55 0 -86 33 -89 86c-27 -48 -79 -86 -147 -86c-79 0 -138 49 -138 128c0 93 83 159 204 159zM227 50
c41 0 82 27 103 80c1 28 2 64 2 100c-19 4 -39 6 -54 6c-78 0 -128 -44 -128 -106c0 -52 35 -80 77 -80z" />
    <glyph glyph-name="aringacute" unicode="&#x1fb;" horiz-adv-x="522" 
d="M249 276c27 0 58 -4 84 -10c0 34 1 65 1 78c0 79 -36 119 -105 119c-10 0 -18 -1 -23 -2c-7 -1 -13 -4 -17 -12l-65 -118h-13l-38 137c57 24 109 34 167 34c140 0 193 -63 193 -173c0 -79 -5 -162 -5 -225c0 -35 14 -54 35 -54c15 0 29 9 39 22l9 -8
c-10 -47 -49 -75 -95 -75c-50 0 -83 33 -86 86c-27 -48 -79 -86 -147 -86c-79 0 -138 49 -138 128c0 93 83 159 204 159zM227 50c41 0 82 27 103 80c1 28 2 64 2 100c-19 4 -39 6 -54 6c-78 0 -128 -44 -128 -106c0 -52 35 -80 77 -80zM149 665c0 30 12 55 23 78l73 149h129
v-12l-158 -118c13 7 30 11 45 11c56 0 110 -41 110 -108c0 -68 -54 -108 -110 -108c-57 0 -112 40 -112 108zM327 665c0 37 -29 68 -66 68c-39 0 -67 -31 -67 -68c0 -38 28 -69 67 -69c37 0 66 31 66 69z" />
    <glyph glyph-name="ccaron" unicode="&#x10d;" horiz-adv-x="479" 
d="M281 569h-12l-142 159l8 10l140 -63l141 63l7 -10zM150 258c0 -136 74 -199 161 -199c55 0 94 24 125 58l11 -10c-27 -69 -96 -119 -183 -119c-128 0 -225 87 -225 246c0 170 112 268 262 268c45 0 92 -7 142 -25l-44 -148h-13l-61 118c-4 8 -6 11 -12 12
c-3 0 -10 1 -16 1c-81 0 -147 -70 -147 -202z" />
    <glyph glyph-name="cacute" unicode="&#x107;" horiz-adv-x="479" 
d="M244 567h-14l61 158h138v-12zM150 258c0 -136 74 -199 161 -199c55 0 94 24 125 58l11 -10c-27 -69 -96 -119 -183 -119c-128 0 -225 87 -225 246c0 170 112 268 262 268c45 0 92 -7 142 -25l-44 -148h-13l-61 118c-4 8 -6 11 -12 12c-3 0 -10 1 -16 1
c-81 0 -147 -70 -147 -202z" />
    <glyph glyph-name="ccircumflex" unicode="&#x109;" horiz-adv-x="479" 
d="M275 628l-140 -62l-8 9l142 159h12l142 -159l-7 -9zM150 258c0 -136 74 -199 161 -199c55 0 94 24 125 58l11 -10c-27 -69 -96 -119 -183 -119c-128 0 -225 87 -225 246c0 170 112 268 262 268c45 0 92 -7 142 -25l-44 -148h-13l-61 118c-4 8 -6 11 -12 12
c-3 0 -10 1 -16 1c-81 0 -147 -70 -147 -202z" />
    <glyph glyph-name="cdotaccent" unicode="&#x10b;" horiz-adv-x="479" 
d="M150 258c0 -136 74 -199 161 -199c55 0 94 24 125 58l11 -10c-27 -69 -96 -119 -183 -119c-128 0 -225 87 -225 246c0 170 112 268 262 268c45 0 92 -7 142 -25l-44 -148h-13l-61 118c-4 8 -6 11 -12 12c-3 0 -10 1 -16 1c-81 0 -147 -70 -147 -202zM209 660
c0 40 29 70 66 70c39 0 68 -30 68 -70c0 -38 -29 -68 -68 -68c-37 0 -66 30 -66 68z" />
    <glyph glyph-name="dcaron" unicode="&#x10f;" horiz-adv-x="654" 
d="M703 703v-12l-111 -214h-12l9 226h114zM279 51c40 0 86 23 108 74v286c-21 26 -60 43 -95 43c-65 0 -138 -57 -138 -206c0 -134 58 -197 125 -197zM567 0h-169v86c-29 -61 -86 -98 -154 -98c-104 0 -204 87 -204 250c0 172 112 264 230 264c43 0 84 -13 117 -40v172
c0 10 0 14 -8 21l-58 50v12l171 33v-653c0 -10 1 -12 10 -21l65 -64v-12z" />
    <glyph glyph-name="dcroat" unicode="&#x111;" horiz-adv-x="591" 
d="M569 552h-77v-455c0 -10 1 -12 10 -21l65 -64v-12h-169v86c-29 -61 -86 -98 -154 -98c-104 0 -204 87 -204 250c0 172 112 264 230 264c43 0 84 -13 117 -40v90h-146v39h146v43c0 10 0 14 -8 21l-58 50v12l171 33v-159h77v-39zM279 51c40 0 86 23 108 74v286
c-21 26 -60 43 -95 43c-65 0 -138 -57 -138 -206c0 -134 58 -197 125 -197z" />
    <glyph glyph-name="ebreve" unicode="&#x115;" horiz-adv-x="510" 
d="M461 257h-313c1 -151 82 -198 159 -198c51 0 108 20 152 69l10 -8c-35 -89 -109 -132 -201 -132c-127 0 -229 83 -229 252c0 174 104 262 226 262c110 0 196 -60 196 -221v-24zM260 460c-60 0 -106 -55 -112 -163h209c-4 105 -34 163 -97 163zM269 567
c-69 0 -127 47 -122 154h12c13 -56 58 -79 110 -79s98 23 111 79h13c5 -107 -55 -154 -124 -154z" />
    <glyph glyph-name="ecaron" unicode="&#x11b;" horiz-adv-x="510" 
d="M461 257h-313c1 -151 82 -198 159 -198c51 0 108 20 152 69l10 -8c-35 -89 -109 -132 -201 -132c-127 0 -229 83 -229 252c0 174 104 262 226 262c110 0 196 -60 196 -221v-24zM260 460c-60 0 -106 -55 -112 -163h209c-4 105 -34 163 -97 163zM275 569h-12l-142 159l8 10
l140 -63l141 63l7 -10z" />
    <glyph glyph-name="edotaccent" unicode="&#x117;" horiz-adv-x="510" 
d="M461 257h-313c1 -151 82 -198 159 -198c51 0 108 20 152 69l10 -8c-35 -89 -109 -132 -201 -132c-127 0 -229 83 -229 252c0 174 104 262 226 262c110 0 196 -60 196 -221v-24zM260 460c-60 0 -106 -55 -112 -163h209c-4 105 -34 163 -97 163zM203 660c0 40 29 70 66 70
c39 0 68 -30 68 -70c0 -38 -29 -68 -68 -68c-37 0 -66 30 -66 68z" />
    <glyph glyph-name="emacron" unicode="&#x113;" horiz-adv-x="510" 
d="M461 257h-313c1 -151 82 -198 159 -198c51 0 108 20 152 69l10 -8c-35 -89 -109 -132 -201 -132c-127 0 -229 83 -229 252c0 174 104 262 226 262c110 0 196 -60 196 -221v-24zM260 460c-60 0 -106 -55 -112 -163h209c-4 105 -34 163 -97 163zM403 603h-269v59h269v-59z
" />
    <glyph glyph-name="eogonek" unicode="&#x119;" horiz-adv-x="510" 
d="M461 257h-313c1 -151 82 -198 159 -198c51 0 108 20 152 69l10 -8c-24 -62 -67 -96 -110 -117c-63 -31 -77 -81 -77 -122c0 -44 29 -66 59 -66c23 0 43 10 59 29l9 -6c-19 -47 -60 -76 -111 -76s-94 37 -94 92c0 51 28 102 103 137c-12 -2 -27 -3 -39 -3
c-127 0 -229 83 -229 252c0 174 104 262 226 262c110 0 196 -60 196 -221v-24zM260 460c-60 0 -106 -56 -112 -163h209c-4 105 -33 163 -97 163z" />
    <glyph glyph-name="gbreve" unicode="&#x11f;" horiz-adv-x="549" 
d="M251 -245c-101 0 -222 41 -222 125c0 50 45 89 115 106c-49 10 -84 46 -84 90c0 51 48 89 108 105c-58 19 -113 74 -113 154c0 104 90 167 205 167c53 0 95 -14 123 -29c12 -7 17 -8 27 0l112 100h12v-132h-109c22 -16 48 -55 48 -107c0 -104 -95 -168 -211 -168
c-21 0 -42 2 -59 5c-35 -8 -55 -28 -55 -50c0 -24 20 -43 87 -43h110c102 0 166 -48 166 -133c0 -116 -124 -190 -260 -190zM264 206c58 0 104 47 104 131s-47 124 -104 124c-58 0 -104 -40 -104 -124c0 -85 47 -131 104 -131zM267 -201c90 0 167 42 167 107
c0 43 -30 66 -106 69l-131 5c-19 1 -12 1 -24 2c-34 -16 -54 -46 -54 -83c0 -67 67 -100 148 -100zM276 567c-69 0 -127 47 -122 154h12c13 -56 58 -79 110 -79s98 23 111 79h13c5 -107 -55 -154 -124 -154z" />
    <glyph glyph-name="gcircumflex" unicode="&#x11d;" horiz-adv-x="549" 
d="M275 628l-140 -62l-8 9l142 159h12l142 -159l-7 -9zM251 -245c-101 0 -222 41 -222 125c0 50 45 89 115 106c-49 10 -84 46 -84 90c0 51 48 89 108 105c-58 19 -113 74 -113 154c0 104 90 167 205 167c53 0 95 -14 123 -29c12 -7 17 -8 27 0l112 100h12v-132h-109
c22 -16 48 -55 48 -107c0 -104 -95 -168 -211 -168c-21 0 -42 2 -59 5c-35 -8 -55 -28 -55 -50c0 -24 20 -43 87 -43h110c102 0 166 -48 166 -133c0 -116 -124 -190 -260 -190zM264 206c58 0 104 47 104 131s-47 124 -104 124c-58 0 -104 -40 -104 -124
c0 -85 47 -131 104 -131zM267 -201c90 0 167 42 167 107c0 43 -30 66 -106 69l-131 5c-19 1 -12 1 -24 2c-34 -16 -54 -46 -54 -83c0 -67 67 -100 148 -100z" />
    <glyph glyph-name="gcommaaccent" unicode="&#x123;" horiz-adv-x="549" 
d="M251 -245c-101 0 -222 41 -222 125c0 50 45 89 115 106c-49 10 -84 46 -84 90c0 51 48 89 108 105c-58 19 -113 74 -113 154c0 104 90 167 205 167c53 0 95 -14 123 -29c12 -7 17 -8 27 0l112 100h12v-132h-109c22 -16 48 -55 48 -107c0 -104 -95 -168 -211 -168
c-21 0 -42 2 -59 5c-35 -8 -55 -28 -55 -50c0 -24 20 -43 87 -43h110c102 0 166 -48 166 -133c0 -116 -124 -190 -260 -190zM264 206c58 0 104 47 104 131s-47 124 -104 124c-58 0 -104 -40 -104 -124c0 -85 47 -131 104 -131zM267 -201c90 0 167 42 167 107
c0 43 -30 66 -106 69l-131 5c-19 1 -12 1 -24 2c-34 -16 -54 -46 -54 -83c0 -67 67 -100 148 -100zM336 774l4 -12c-31 -20 -54 -55 -54 -72c0 -8 3 -10 9 -11c27 -4 44 -25 44 -55c0 -33 -26 -58 -60 -58c-35 0 -62 24 -62 73c0 64 53 118 119 135z" />
    <glyph glyph-name="gdotaccent" unicode="&#x121;" horiz-adv-x="549" 
d="M251 -245c-101 0 -222 41 -222 125c0 50 45 89 115 106c-49 10 -84 46 -84 90c0 51 48 89 108 105c-58 19 -113 74 -113 154c0 104 90 167 205 167c53 0 95 -14 123 -29c12 -7 17 -8 27 0l112 100h12v-132h-109c22 -16 48 -55 48 -107c0 -104 -95 -168 -211 -168
c-21 0 -42 2 -59 5c-35 -8 -55 -28 -55 -50c0 -24 20 -43 87 -43h110c102 0 166 -48 166 -133c0 -116 -124 -190 -260 -190zM264 206c58 0 104 47 104 131s-47 124 -104 124c-58 0 -104 -40 -104 -124c0 -85 47 -131 104 -131zM267 -201c90 0 167 42 167 107
c0 43 -30 66 -106 69l-131 5c-19 1 -12 1 -24 2c-34 -16 -54 -46 -54 -83c0 -67 67 -100 148 -100zM209 660c0 40 29 70 66 70c39 0 68 -30 68 -70c0 -38 -29 -68 -68 -68c-37 0 -66 30 -66 68z" />
    <glyph glyph-name="hbar" unicode="&#x127;" horiz-adv-x="612" 
d="M418 285c0 119 -44 152 -97 152c-50 0 -90 -33 -117 -84v-275c0 -11 2 -14 10 -20l71 -46v-12h-266v12l70 46c9 6 11 9 11 20v474h-78v39h78v43c0 10 -1 14 -9 21l-58 50v12l171 33v-159h147v-39h-147v-144c38 59 82 94 156 94c103 0 164 -67 164 -205
c0 -63 -2 -150 -3 -219c0 -11 2 -14 11 -20l70 -46v-12h-266v12l70 46c10 7 11 9 11 20c1 31 1 157 1 207z" />
    <glyph glyph-name="hcircumflex" unicode="&#x125;" horiz-adv-x="612" 
d="M149 824l-140 -62l-8 9l142 159h12l142 -159l-7 -9zM418 285c0 119 -44 152 -97 152c-50 0 -90 -33 -117 -84v-275c0 -11 2 -14 10 -20l71 -46v-12h-266v12l70 46c9 6 11 9 11 20v556c0 10 -1 14 -9 21l-58 50v12l171 33v-342c38 59 82 94 156 94c103 0 164 -67 164 -205
c0 -63 -2 -150 -3 -219c0 -11 2 -14 11 -20l70 -46v-12h-266v12l70 46c10 7 11 9 11 20c1 31 1 157 1 207z" />
    <glyph glyph-name="ibreve" unicode="&#x12d;" horiz-adv-x="322" 
d="M120 78v312c0 10 -1 13 -8 20l-73 67v13h185v-412c0 -11 2 -14 10 -20l71 -46v-12h-266v12l70 46c9 6 11 9 11 20zM172 567c-69 0 -127 47 -122 154h12c13 -56 58 -79 110 -79s98 23 111 79h13c5 -107 -55 -154 -124 -154z" />
    <glyph glyph-name="imacron" unicode="&#x12b;" horiz-adv-x="322" 
d="M120 78v312c0 10 -1 13 -8 20l-73 67v13h185v-412c0 -11 2 -14 10 -20l71 -46v-12h-266v12l70 46c9 6 11 9 11 20zM306 603h-269v59h269v-59z" />
    <glyph glyph-name="iogonek" unicode="&#x12f;" horiz-adv-x="322" 
d="M264 -156l9 -6c-19 -47 -60 -76 -111 -76s-94 37 -94 92c0 56 44 111 134 146h-163v12l70 46c9 6 11 9 11 20v312c0 10 -1 13 -8 20l-73 67v13h185v-412c0 -11 2 -14 10 -20l71 -46v-12h-45c-75 0 -114 -77 -114 -123c0 -39 28 -62 59 -62c23 0 43 10 59 29zM89 660
c0 41 31 71 68 71c40 0 70 -30 70 -71c0 -39 -30 -70 -70 -70c-37 0 -68 31 -68 70z" />
    <glyph glyph-name="itilde" unicode="&#x129;" horiz-adv-x="322" 
d="M120 78v312c0 10 -1 13 -8 20l-73 67v13h185v-412c0 -11 2 -14 10 -20l71 -46v-12h-266v12l70 46c9 6 11 9 11 20zM220 576c-43 0 -83 53 -119 53c-25 0 -40 -17 -63 -50h-12c10 64 36 124 97 124c43 0 82 -53 119 -53c24 0 39 17 62 50h13c-11 -64 -37 -124 -97 -124z
" />
    <glyph glyph-name="i.trk" horiz-adv-x="322" 
d="M89 660c0 41 31 71 68 71c40 0 70 -30 70 -71c0 -39 -30 -70 -70 -70c-37 0 -68 31 -68 70zM120 78v312c0 10 -1 13 -8 20l-73 67v13h185v-412c0 -11 2 -14 10 -20l71 -46v-12h-266v12l70 46c9 6 11 9 11 20z" />
    <glyph glyph-name="dotlessi" unicode="&#x131;" horiz-adv-x="322" 
d="M120 78v312c0 10 -1 13 -8 20l-73 67v13h185v-412c0 -11 2 -14 10 -20l71 -46v-12h-266v12l70 46c9 6 11 9 11 20z" />
    <glyph glyph-name="dotlessj" unicode="&#x237;" horiz-adv-x="282" 
d="M207 21c0 -177 -94 -264 -235 -266l-2 15c86 20 133 102 133 238v382c0 10 -1 13 -8 20l-73 67v13h185v-469z" />
    <glyph glyph-name="jacute" horiz-adv-x="282" 
d="M207 21c0 -177 -94 -264 -235 -266l-2 15c86 20 133 102 133 238v382c0 10 -1 13 -8 20l-73 67v13h185v-469zM123 567h-14l61 158h138v-12z" />
    <glyph glyph-name="jcircumflex" unicode="&#x135;" horiz-adv-x="282" 
d="M207 21c0 -177 -94 -264 -235 -266l-2 15c86 20 133 102 133 238v382c0 10 -1 13 -8 20l-73 67v13h185v-469zM155 628l-140 -62l-8 9l142 159h12l142 -159l-7 -9z" />
    <glyph glyph-name="ij" unicode="&#x133;" horiz-adv-x="606" 
d="M89 660c0 41 31 71 68 71c40 0 70 -30 70 -71c0 -39 -30 -70 -70 -70c-37 0 -68 31 -68 70zM120 78v312c0 10 -1 13 -8 20l-73 67v13h185v-412c0 -11 2 -14 10 -20l71 -46v-12h-266v12l70 46c9 6 11 9 11 20zM528 21c0 -177 -94 -264 -235 -266l-2 15
c86 20 133 102 133 238v382c0 10 -1 13 -8 20l-73 67v13h185v-469zM392 661c0 40 31 70 69 70s69 -30 69 -70s-30 -71 -69 -71s-69 31 -69 71z" />
    <glyph glyph-name="kcommaaccent" unicode="&#x137;" horiz-adv-x="548" 
d="M246 -271l-4 12c31 20 55 55 55 72c0 8 -3 10 -9 11c-27 4 -44 25 -44 55c0 33 25 58 59 58c35 0 62 -24 62 -73c0 -64 -52 -118 -119 -135zM557 0h-157l-165 235c-14 20 -19 24 -31 24v-181c0 -11 2 -14 10 -20l71 -46v-12h-266v12l70 46c9 6 11 9 11 20v556
c0 10 -1 14 -9 21l-58 50v12l171 33v-479l174 137c9 7 9 12 1 18l-66 51v13h220v-13l-212 -168c-6 -5 -6 -9 -2 -15l155 -221c6 -10 13 -16 24 -23l59 -38v-12z" />
    <glyph glyph-name="kgreenlandic" unicode="&#x138;" horiz-adv-x="548" 
d="M548 0h-157l-156 235c-14 20 -19 24 -31 24v-181c0 -11 2 -14 10 -20l71 -46v-12h-266v12l70 46c9 6 11 9 11 20v312c0 10 -1 14 -9 21l-72 66v13h185v-219l180 138c9 7 9 12 1 18l-64 50v13h221v-13l-221 -168c-6 -5 -6 -9 -2 -15l151 -227c6 -9 11 -15 22 -22l56 -33
v-12z" />
    <glyph glyph-name="lacute" unicode="&#x13a;" horiz-adv-x="303" 
d="M121 780h-14l61 158h138v-12zM285 0h-266v12l70 46c9 6 11 9 11 20v556c0 10 -1 14 -9 21l-58 50v12l171 33v-672c0 -11 2 -14 10 -20l71 -46v-12z" />
    <glyph glyph-name="lcaron" unicode="&#x13e;" horiz-adv-x="368" 
d="M416 703v-12l-111 -214h-12l9 226h114zM285 0h-266v12l70 46c9 6 11 9 11 20v556c0 10 -1 14 -9 21l-58 50v12l171 33v-672c0 -11 2 -14 10 -20l71 -46v-12z" />
    <glyph glyph-name="lcommaaccent" unicode="&#x13c;" horiz-adv-x="303" 
d="M97 -271l-4 12c31 20 55 55 55 72c0 8 -3 10 -9 11c-27 4 -44 25 -44 55c0 33 25 58 59 58c35 0 62 -24 62 -73c0 -64 -52 -118 -119 -135zM285 0h-266v12l70 46c9 6 11 9 11 20v556c0 10 -1 14 -9 21l-58 50v12l171 33v-672c0 -11 2 -14 10 -20l71 -46v-12z" />
    <glyph glyph-name="ldot" unicode="&#x140;" horiz-adv-x="434" 
d="M285 0h-266v12l70 46c9 6 11 9 11 20v556c0 10 -1 14 -9 21l-58 50v12l171 33v-672c0 -11 2 -14 10 -20l71 -46v-12zM301 339c0 40 29 70 66 70c39 0 68 -30 68 -70c0 -38 -29 -68 -68 -68c-37 0 -66 30 -66 68z" />
    <glyph glyph-name="lslash" unicode="&#x142;" horiz-adv-x="335" 
d="M299 0h-266v12l70 46c9 6 10 9 10 20v222l-90 -41l-15 37l105 47v291c0 10 -1 14 -8 21l-58 50v12l171 33v-363l93 41l16 -37l-109 -47v-266c0 -11 2 -14 10 -20l71 -46v-12z" />
    <glyph glyph-name="napostrophe" unicode="&#x149;" horiz-adv-x="723" 
d="M134 652c0 -88 -60 -167 -148 -184l-5 11c49 29 83 69 83 119c0 16 -4 19 -14 22c-41 10 -59 37 -59 66c0 35 27 64 67 64c41 0 76 -31 76 -98zM712 0h-266v12l70 46c10 7 11 9 11 20c1 31 1 157 1 207c0 121 -44 152 -97 152c-50 0 -90 -33 -117 -84v-275
c0 -11 2 -14 10 -20l71 -46v-12h-266v12l70 46c9 6 11 9 11 20v312c0 10 -1 13 -8 20l-73 67v13h174v-96c29 58 81 108 165 108c105 0 166 -67 166 -205c0 -63 -2 -150 -2 -219c0 -11 1 -14 10 -20l70 -46v-12z" />
    <glyph glyph-name="nacute" unicode="&#x144;" horiz-adv-x="632" 
d="M298 567h-14l61 158h138v-12zM622 0h-266v12l70 46c10 7 11 9 11 20c1 31 1 157 1 207c0 121 -44 152 -97 152c-50 0 -90 -33 -117 -84v-275c0 -11 2 -14 10 -20l71 -46v-12h-266v12l70 46c9 6 11 9 11 20v312c0 10 -1 13 -8 20l-73 67v13h174v-96c29 58 81 108 165 108
c105 0 166 -67 166 -205c0 -63 -2 -150 -2 -219c0 -11 1 -14 10 -20l70 -46v-12z" />
    <glyph glyph-name="ncaron" unicode="&#x148;" horiz-adv-x="632" 
d="M335 569h-12l-142 159l8 10l140 -63l141 63l7 -10zM622 0h-266v12l70 46c10 7 11 9 11 20c1 31 1 157 1 207c0 121 -44 152 -97 152c-50 0 -90 -33 -117 -84v-275c0 -11 2 -14 10 -20l71 -46v-12h-266v12l70 46c9 6 11 9 11 20v312c0 10 -1 13 -8 20l-73 67v13h174v-96
c29 58 81 108 165 108c105 0 166 -67 166 -205c0 -63 -2 -150 -2 -219c0 -11 1 -14 10 -20l70 -46v-12z" />
    <glyph glyph-name="eng" unicode="&#x14b;" horiz-adv-x="629" 
d="M439 8v277c0 121 -45 152 -98 152c-50 0 -90 -33 -117 -84v-275c0 -11 2 -14 10 -20l71 -46v-12h-266v12l70 46c9 6 11 9 11 20v312c0 10 -1 13 -8 20l-73 67v13h174v-96c29 58 81 108 165 108c105 0 166 -67 166 -205v-276c0 -177 -95 -264 -236 -266l-2 15
c86 20 133 102 133 238z" />
    <glyph glyph-name="ncommaaccent" unicode="&#x146;" horiz-adv-x="632" 
d="M274 -279l-4 12c31 20 55 55 55 72c0 8 -3 10 -9 11c-27 4 -44 25 -44 55c0 33 25 58 59 58c35 0 62 -24 62 -73c0 -64 -52 -118 -119 -135zM622 0h-266v12l70 46c10 7 11 9 11 20c1 31 1 157 1 207c0 121 -44 152 -97 152c-50 0 -90 -33 -117 -84v-275
c0 -11 2 -14 10 -20l71 -46v-12h-266v12l70 46c9 6 11 9 11 20v312c0 10 -1 13 -8 20l-73 67v13h174v-96c29 58 81 108 165 108c105 0 166 -67 166 -205c0 -63 -2 -150 -2 -219c0 -11 1 -14 10 -20l70 -46v-12z" />
    <glyph glyph-name="obreve" unicode="&#x14f;" horiz-adv-x="564" 
d="M279 -12c-134 0 -241 91 -241 253c0 164 110 261 247 261c133 0 240 -91 240 -253c0 -164 -110 -261 -246 -261zM285 30c81 0 121 92 121 214c0 120 -41 216 -126 216c-83 0 -123 -92 -123 -214c0 -121 41 -216 128 -216zM281 567c-69 0 -127 47 -122 154h12
c13 -56 58 -79 110 -79s98 23 111 79h13c5 -107 -55 -154 -124 -154z" />
    <glyph glyph-name="ohungarumlaut" unicode="&#x151;" horiz-adv-x="564" 
d="M219 734h116v-12l-153 -152h-12zM373 734h117v-12l-153 -152h-13zM279 -12c-134 0 -241 91 -241 253c0 164 110 261 247 261c133 0 240 -91 240 -253c0 -164 -110 -261 -246 -261zM285 30c81 0 121 92 121 214c0 120 -41 216 -126 216c-83 0 -123 -92 -123 -214
c0 -121 41 -216 128 -216z" />
    <glyph glyph-name="omacron" unicode="&#x14d;" horiz-adv-x="564" 
d="M416 603h-269v59h269v-59zM279 -12c-134 0 -241 91 -241 253c0 164 110 261 247 261c133 0 240 -91 240 -253c0 -164 -110 -261 -246 -261zM285 30c81 0 121 92 121 214c0 120 -41 216 -126 216c-83 0 -123 -92 -123 -214c0 -121 41 -216 128 -216z" />
    <glyph glyph-name="oslashacute" unicode="&#x1ff;" horiz-adv-x="568" 
d="M279 -12c-30 0 -59 5 -85 14l-38 -88l-35 15l39 87c-74 39 -122 115 -122 225c0 164 110 261 247 261c29 0 57 -5 83 -13l36 83l35 -15l-37 -83c74 -38 123 -115 123 -225c0 -164 -110 -261 -246 -261zM285 30c82 0 122 92 122 214c0 61 -13 118 -37 157l-152 -346
c18 -16 40 -25 67 -25zM157 246c0 -62 11 -117 35 -157l152 346c-17 16 -39 25 -64 25c-83 0 -123 -92 -123 -214zM250 567h-14l61 158h138v-12z" />
    <glyph glyph-name="racute" unicode="&#x155;" horiz-adv-x="445" 
d="M213 567h-14l61 158h138v-12zM349 0h-310v12l70 46c9 6 11 9 11 20v312c0 10 -1 13 -8 20l-73 67v13h174v-131c36 103 86 143 145 143c20 0 41 -6 63 -19l-37 -148h-12l-54 85c-4 6 -6 7 -12 7c-7 0 -15 -3 -25 -13c-21 -22 -43 -57 -57 -100v-226c0 -14 2 -17 13 -22
l112 -54v-12z" />
    <glyph glyph-name="rcaron" unicode="&#x159;" horiz-adv-x="445" 
d="M250 569h-12l-142 159l8 10l140 -63l141 63l7 -10zM349 0h-310v12l70 46c9 6 11 9 11 20v312c0 10 -1 13 -8 20l-73 67v13h174v-131c36 103 86 143 145 143c20 0 41 -6 63 -19l-37 -148h-12l-54 85c-4 6 -6 7 -12 7c-7 0 -15 -3 -25 -13c-21 -22 -43 -57 -57 -100v-226
c0 -14 2 -17 13 -22l112 -54v-12z" />
    <glyph glyph-name="rcommaaccent" unicode="&#x157;" horiz-adv-x="445" 
d="M123 -279l-4 12c31 20 55 55 55 72c0 8 -3 10 -9 11c-27 4 -44 25 -44 55c0 33 25 58 59 58c35 0 62 -24 62 -73c0 -64 -52 -118 -119 -135zM349 0h-310v12l70 46c9 6 11 9 11 20v312c0 10 -1 13 -8 20l-73 67v13h174v-131c36 103 86 143 145 143c20 0 41 -6 63 -19
l-37 -148h-12l-54 85c-4 6 -6 7 -12 7c-7 0 -15 -3 -25 -13c-21 -22 -43 -57 -57 -100v-226c0 -14 2 -17 13 -22l112 -54v-12z" />
    <glyph glyph-name="sacute" unicode="&#x15b;" horiz-adv-x="470" 
d="M203 567h-14l61 158h138v-12zM333 115c0 41 -33 58 -80 73l-81 27c-63 21 -116 63 -116 138c0 90 82 149 193 149c45 0 102 -9 157 -26l-38 -134h-12l-58 109c-4 7 -5 8 -13 10s-23 3 -35 3c-61 0 -105 -33 -105 -83c0 -42 40 -64 86 -78l87 -28c61 -19 108 -55 108 -127
c0 -104 -89 -160 -207 -160c-60 0 -126 14 -176 32l44 142h13l47 -109c6 -15 9 -18 18 -21c14 -4 33 -6 54 -6c58 0 113 29 114 89z" />
    <glyph glyph-name="scedilla" unicode="&#x15f;" horiz-adv-x="470" 
d="M339 -145c0 -63 -53 -93 -113 -93c-54 0 -98 30 -112 73l9 6c23 -25 50 -34 77 -34c28 0 57 16 57 48c0 37 -38 53 -86 42l-5 4l51 87c-60 1 -125 14 -174 32l44 142h13l47 -109c6 -15 9 -18 18 -21c14 -4 33 -6 54 -6c58 0 113 29 114 89c0 41 -33 58 -80 73l-81 27
c-63 21 -116 63 -116 138c0 90 82 149 193 149c45 0 102 -9 157 -26l-38 -134h-12l-58 109c-4 7 -5 8 -13 10s-23 3 -35 3c-61 0 -105 -33 -105 -83c0 -42 40 -64 86 -78l87 -28c61 -19 108 -55 108 -127c0 -100 -81 -154 -191 -159l-3 -56c55 7 107 -23 107 -78z" />
    <glyph glyph-name="scircumflex" unicode="&#x15d;" horiz-adv-x="470" 
d="M234 628l-140 -62l-8 9l142 159h12l142 -159l-7 -9zM333 115c0 41 -33 58 -80 73l-81 27c-63 21 -116 63 -116 138c0 90 82 149 193 149c45 0 102 -9 157 -26l-38 -134h-12l-58 109c-4 7 -5 8 -13 10s-23 3 -35 3c-61 0 -105 -33 -105 -83c0 -42 40 -64 86 -78l87 -28
c61 -19 108 -55 108 -127c0 -104 -89 -160 -207 -160c-60 0 -126 14 -176 32l44 142h13l47 -109c6 -15 9 -18 18 -21c14 -4 33 -6 54 -6c58 0 113 29 114 89z" />
    <glyph glyph-name="scommaaccent" unicode="&#x219;" horiz-adv-x="470" 
d="M167 -279l-4 12c31 20 55 55 55 72c0 8 -3 10 -9 11c-27 4 -44 25 -44 55c0 33 25 58 59 58c35 0 62 -24 62 -73c0 -64 -52 -118 -119 -135zM333 115c0 41 -33 58 -80 73l-81 27c-63 21 -116 63 -116 138c0 90 82 149 193 149c45 0 102 -9 157 -26l-38 -134h-12l-58 109
c-4 7 -5 8 -13 10s-23 3 -35 3c-61 0 -105 -33 -105 -83c0 -42 40 -64 86 -78l87 -28c61 -19 108 -55 108 -127c0 -104 -89 -160 -207 -160c-60 0 -126 14 -176 32l44 142h13l47 -109c6 -15 9 -18 18 -21c14 -4 33 -6 54 -6c58 0 113 29 114 89z" />
    <glyph glyph-name="tbar" unicode="&#x167;" horiz-adv-x="386" 
d="M195 664h12v-174h157v-50h-157v-77h157v-39h-157v-191c0 -51 28 -79 71 -79c34 0 63 19 82 44l11 -7c-20 -66 -74 -103 -143 -103c-78 0 -125 48 -125 139v197h-76v39h76v77h-76v50h56c16 0 18 0 27 17z" />
    <glyph glyph-name="tcaron" unicode="&#x165;" horiz-adv-x="387" 
d="M385 703v-12l-106 -168h-12l10 180h108zM195 664h12v-174h157v-50h-157v-307c0 -51 28 -79 71 -79c34 0 63 19 82 44l11 -7c-20 -66 -74 -103 -143 -103c-78 0 -125 48 -125 139v313h-76v50h56c16 0 18 0 27 17z" />
    <glyph glyph-name="tcommaaccent" unicode="&#x163;" horiz-adv-x="386" 
d="M144 -279l-4 12c31 20 55 55 55 72c0 8 -3 10 -9 11c-27 4 -44 25 -44 55c0 33 25 58 59 58c35 0 62 -24 62 -73c0 -64 -52 -118 -119 -135zM195 664h12v-174h157v-50h-157v-307c0 -51 28 -79 71 -79c34 0 63 19 82 44l11 -7c-20 -66 -74 -103 -143 -103
c-78 0 -125 48 -125 139v313h-76v50h56c16 0 18 0 27 17z" />
    <glyph glyph-name="uni021B" unicode="&#x21b;" horiz-adv-x="386" 
d="M144 -279l-4 12c31 20 55 55 55 72c0 8 -3 10 -9 11c-27 4 -44 25 -44 55c0 33 25 58 59 58c35 0 62 -24 62 -73c0 -64 -52 -118 -119 -135zM195 664h12v-174h157v-50h-157v-307c0 -51 28 -79 71 -79c34 0 63 19 82 44l11 -7c-20 -66 -74 -103 -143 -103
c-78 0 -125 48 -125 139v313h-76v50h56c16 0 18 0 27 17z" />
    <glyph glyph-name="uhungarumlaut" unicode="&#x171;" horiz-adv-x="602" 
d="M578 0h-168v96c-33 -58 -87 -108 -169 -108c-96 0 -152 62 -152 196c0 71 2 137 2 206c0 12 -1 15 -10 22l-71 65v13h186c-2 -48 -2 -243 -2 -287c0 -74 4 -150 87 -150c48 0 90 34 118 83v254c0 12 -1 15 -10 22l-71 65v13h185v-393c0 -10 1 -12 11 -21l64 -64v-12z
M226 734h116v-12l-153 -152h-12zM380 734h117v-12l-153 -152h-13z" />
    <glyph glyph-name="ubreve" unicode="&#x16d;" horiz-adv-x="602" 
d="M578 0h-168v96c-33 -58 -87 -108 -169 -108c-96 0 -152 62 -152 196c0 71 2 137 2 206c0 12 -1 15 -10 22l-71 65v13h186c-2 -48 -2 -243 -2 -287c0 -74 4 -150 87 -150c48 0 90 34 118 83v254c0 12 -1 15 -10 22l-71 65v13h185v-393c0 -10 1 -12 11 -21l64 -64v-12z
M288 567c-69 0 -127 47 -122 154h12c13 -56 58 -79 110 -79s98 23 111 79h13c5 -107 -55 -154 -124 -154z" />
    <glyph glyph-name="umacron" unicode="&#x16b;" horiz-adv-x="602" 
d="M578 0h-168v96c-33 -58 -87 -108 -169 -108c-96 0 -152 62 -152 196c0 71 2 137 2 206c0 12 -1 15 -10 22l-71 65v13h186c-2 -48 -2 -243 -2 -287c0 -74 4 -150 87 -150c48 0 90 34 118 83v254c0 12 -1 15 -10 22l-71 65v13h185v-393c0 -10 1 -12 11 -21l64 -64v-12z
M423 603h-269v59h269v-59z" />
    <glyph glyph-name="uogonek" unicode="&#x173;" horiz-adv-x="602" 
d="M578 0c-92 -1 -125 -76 -125 -123c0 -39 28 -62 58 -62c24 0 43 10 60 29l9 -6c-19 -47 -60 -76 -112 -76c-50 0 -93 37 -93 92c0 56 44 111 132 146h-97v96c-33 -58 -87 -108 -169 -108c-96 0 -152 62 -152 196c0 71 2 137 2 206c0 12 -1 15 -10 22l-71 65v13h186
c-2 -48 -2 -243 -2 -287c0 -74 4 -150 87 -150c48 0 90 34 118 83v254c0 12 -1 15 -10 22l-71 65v13h185v-393c0 -10 1 -12 11 -21l64 -64v-12z" />
    <glyph glyph-name="uring" unicode="&#x16f;" horiz-adv-x="602" 
d="M355 665c0 37 -29 68 -66 68c-39 0 -67 -31 -67 -68c0 -38 28 -69 67 -69c37 0 66 31 66 69zM177 665c0 67 55 108 112 108c56 0 110 -41 110 -108c0 -68 -54 -108 -110 -108c-57 0 -112 40 -112 108zM578 0h-168v96c-33 -58 -87 -108 -169 -108c-96 0 -152 62 -152 196
c0 71 2 137 2 206c0 12 -1 15 -10 22l-71 65v13h186c-2 -48 -2 -243 -2 -287c0 -74 4 -150 87 -150c48 0 90 34 118 83v254c0 12 -1 15 -10 22l-71 65v13h185v-393c0 -10 1 -12 11 -21l64 -64v-12z" />
    <glyph glyph-name="utilde" unicode="&#x169;" horiz-adv-x="602" 
d="M578 0h-168v96c-33 -58 -87 -108 -169 -108c-96 0 -152 62 -152 196c0 71 2 137 2 206c0 12 -1 15 -10 22l-71 65v13h186c-2 -48 -2 -243 -2 -287c0 -74 4 -150 87 -150c48 0 90 34 118 83v254c0 12 -1 15 -10 22l-71 65v13h185v-393c0 -10 1 -12 11 -21l64 -64v-12z
M337 576c-43 0 -83 53 -119 53c-25 0 -40 -17 -63 -50h-12c10 64 36 124 97 124c43 0 82 -53 119 -53c24 0 39 17 62 50h13c-11 -64 -37 -124 -97 -124z" />
    <glyph glyph-name="wacute" unicode="&#x1e83;" horiz-adv-x="784" 
d="M364 567h-14l61 158h138v-12zM167 428c-7 -5 -8 -9 -5 -17l110 -303l97 247l-19 55c-5 12 -8 17 -15 26l-38 41v13h230v-13l-63 -48c-8 -6 -9 -9 -6 -18l103 -301l118 290c3 9 3 13 -4 18l-76 59v13h196v-13l-59 -61c-8 -9 -11 -15 -16 -27l-157 -389h-61l-111 297
l-119 -297h-61l-158 410c-5 12 -8 16 -15 25l-38 42v13h232v-13z" />
    <glyph glyph-name="wcircumflex" unicode="&#x175;" horiz-adv-x="784" 
d="M395 628l-140 -62l-8 9l142 159h12l142 -159l-7 -9zM167 428c-7 -5 -8 -9 -5 -17l110 -303l97 247l-19 55c-5 12 -8 17 -15 26l-38 41v13h230v-13l-63 -48c-8 -6 -9 -9 -6 -18l103 -301l118 290c3 9 3 13 -4 18l-76 59v13h196v-13l-59 -61c-8 -9 -11 -15 -16 -27
l-157 -389h-61l-111 297l-119 -297h-61l-158 410c-5 12 -8 16 -15 25l-38 42v13h232v-13z" />
    <glyph glyph-name="wdieresis" unicode="&#x1e85;" horiz-adv-x="784" 
d="M238 645c0 36 28 64 61 64s61 -28 61 -64c0 -34 -28 -62 -61 -62s-61 28 -61 62zM432 645c0 36 28 64 60 64c33 0 61 -28 61 -64c0 -34 -28 -62 -61 -62c-32 0 -60 28 -60 62zM167 428c-7 -5 -8 -9 -5 -17l110 -303l97 247l-19 55c-5 12 -8 17 -15 26l-38 41v13h230v-13
l-63 -48c-8 -6 -9 -9 -6 -18l103 -301l118 290c3 9 3 13 -4 18l-76 59v13h196v-13l-59 -61c-8 -9 -11 -15 -16 -27l-157 -389h-61l-111 297l-119 -297h-61l-158 410c-5 12 -8 16 -15 25l-38 42v13h232v-13z" />
    <glyph glyph-name="wgrave" unicode="&#x1e81;" horiz-adv-x="784" 
d="M167 428c-7 -5 -8 -9 -5 -17l110 -303l97 247l-19 55c-5 12 -8 17 -15 26l-38 41v13h230v-13l-63 -48c-8 -6 -9 -9 -6 -18l103 -301l118 290c3 9 3 13 -4 18l-76 59v13h196v-13l-59 -61c-8 -9 -11 -15 -16 -27l-157 -389h-61l-111 297l-119 -297h-61l-158 410
c-5 12 -8 16 -15 25l-38 42v13h232v-13zM457 569h-14l-184 145v12h138z" />
    <glyph glyph-name="uni1E8B" unicode="&#x1e8b;" horiz-adv-x="523" 
d="M13 0v12l63 49c14 11 21 18 31 30l108 140l-131 180c-6 9 -12 16 -18 21l-56 45v13h231v-13l-45 -33c-10 -8 -11 -12 -4 -22l92 -128l90 117c5 7 4 13 -2 18l-63 48v13h201v-13l-64 -48c-15 -11 -21 -18 -30 -30l-108 -139l132 -181c7 -10 13 -17 19 -22l56 -45v-12h-232
v12l45 34c10 7 11 12 5 21l-93 130l-91 -118c-5 -6 -6 -13 1 -18l63 -49v-12h-200zM199 660c0 40 29 70 66 70c39 0 68 -30 68 -70c0 -38 -29 -68 -68 -68c-37 0 -66 30 -66 68z" />
    <glyph glyph-name="ycircumflex" unicode="&#x177;" horiz-adv-x="502" 
d="M73 -245c-24 0 -37 4 -47 12l37 151h12l55 -70c4 -6 7 -10 13 -10c8 0 17 8 26 21c25 34 38 61 54 103c3 8 5 14 1 23l-171 425c-5 12 -8 17 -14 25l-39 42v13h234v-13l-63 -49c-7 -6 -9 -8 -6 -17l116 -308l116 298c3 8 3 12 -3 17l-76 59v13h195v-13l-58 -62
c-8 -8 -12 -15 -17 -26l-151 -386c-25 -63 -63 -147 -109 -197c-34 -36 -65 -51 -105 -51zM274 628l-140 -62l-8 9l142 159h12l142 -159l-7 -9z" />
    <glyph glyph-name="ygrave" unicode="&#x1ef3;" horiz-adv-x="502" 
d="M73 -245c-24 0 -37 4 -47 12l37 151h12l55 -70c4 -6 7 -10 13 -10c8 0 17 8 26 21c25 34 38 61 54 103c3 8 5 14 1 23l-171 425c-5 12 -8 17 -14 25l-39 42v13h234v-13l-63 -49c-7 -6 -9 -8 -6 -17l116 -308l116 298c3 8 3 12 -3 17l-76 59v13h195v-13l-58 -62
c-8 -8 -12 -15 -17 -26l-151 -386c-25 -63 -63 -147 -109 -197c-34 -36 -65 -51 -105 -51zM335 569h-14l-184 145v12h138z" />
    <glyph glyph-name="zacute" unicode="&#x17a;" horiz-adv-x="473" 
d="M219 567h-14l61 158h138v-12zM340 52l81 127h12l-11 -179h-384v12l275 435h-142c-13 0 -15 -1 -20 -10l-80 -124h-12v177h383v-12l-276 -436h153c13 0 15 1 21 10z" />
    <glyph glyph-name="zdotaccent" unicode="&#x17c;" horiz-adv-x="473" 
d="M340 52l81 127h12l-11 -179h-384v12l275 435h-142c-13 0 -15 -1 -20 -10l-80 -124h-12v177h383v-12l-276 -436h153c13 0 15 1 21 10zM184 660c0 40 29 70 66 70c39 0 68 -30 68 -70c0 -38 -29 -68 -68 -68c-37 0 -66 30 -66 68z" />
    <glyph glyph-name="uni01B6" unicode="&#x1b6;" horiz-adv-x="472" 
d="M99 225v39h99l115 183h-142c-13 0 -15 -1 -20 -10l-80 -124h-12v177h383v-12l-135 -214h76v-39h-100l-117 -183h153c13 0 15 1 21 10l81 127h12l-11 -179h-384v12l136 213h-75z" />
    <glyph glyph-name="partialdiff" unicode="&#x2202;" horiz-adv-x="568" 
d="M530 294c0 -182 -88 -306 -247 -306c-131 0 -245 84 -245 252c0 171 119 262 235 262c54 0 106 -21 129 -68c-32 128 -93 232 -239 295l5 20c209 -40 362 -209 362 -455zM418 257c0 145 -64 203 -130 203c-87 0 -130 -85 -130 -213c0 -141 53 -217 126 -217
c76 0 134 81 134 227z" />
    <glyph glyph-name="Delta" unicode="&#x2206;" horiz-adv-x="608" 
d="M15 0l220 591c4 11 6 20 0 31l-40 70v11h139l271 -703h-590zM272 560l-191 -519h388z" />
    <glyph glyph-name="summation" unicode="&#x2211;" horiz-adv-x="602" 
d="M540 0h-511v15l268 320l-268 354v14h500v-184h-14l-88 129c-8 12 -10 14 -23 14h-219l212 -282l-260 -305h303c13 0 17 1 24 11l72 106h14z" />
    <glyph glyph-name="product" unicode="&#x220f;" horiz-adv-x="792" 
d="M762 0h-305v14l84 52c9 5 11 8 11 20v574h-312v-574c0 -12 2 -15 11 -20l85 -52v-14h-306v14l85 52c8 5 10 8 10 20v531c0 12 -2 15 -10 20l-85 52v14h732v-14l-85 -52c-8 -5 -10 -8 -10 -20v-531c0 -12 2 -15 10 -20l85 -52v-14z" />
    <glyph glyph-name="pi" unicode="&#x3c0;" horiz-adv-x="661" 
d="M623 0h-266v12l70 46c9 6 11 9 11 20v370h-214v-370c0 -11 2 -14 10 -20l71 -46v-12h-266v12l70 46c9 6 11 9 11 20v312c0 10 -1 13 -8 20l-73 67v13h584v-13l-73 -67c-7 -7 -8 -10 -8 -20v-312c0 -11 2 -14 10 -20l71 -46v-12z" />
    <glyph glyph-name="Omega" unicode="&#x2126;" horiz-adv-x="759" 
d="M711 0h-296v100c109 46 145 161 145 303c0 180 -69 273 -180 273c-112 0 -181 -93 -181 -273c0 -142 36 -257 145 -303v-100h-296v198h14l94 -144c8 -11 10 -13 24 -13h123v43c-135 41 -236 146 -236 317c0 202 153 317 313 317c159 0 312 -114 312 -317
c0 -169 -100 -275 -237 -317v-43h123c15 0 17 2 25 13l94 144h14v-198z" />
    <glyph glyph-name="integral" unicode="&#x222b;" horiz-adv-x="421" 
d="M110 -245c-41 0 -94 8 -128 20l51 139h12l47 -107c5 -12 7 -13 15 -13c34 0 53 41 53 121v628c0 116 60 175 151 175c41 0 94 -8 128 -20l-51 -139h-12l-47 107c-5 12 -7 13 -15 13c-33 0 -53 -41 -53 -121v-628c0 -116 -60 -175 -151 -175z" />
    <glyph glyph-name="zero.lf" horiz-adv-x="653" 
d="M326 678c-86 0 -146 -93 -146 -327c0 -235 60 -325 146 -325s146 90 146 323c0 236 -60 329 -146 329zM326 718c151 0 267 -118 267 -369c0 -249 -107 -364 -267 -364c-151 0 -266 115 -266 366c0 241 115 367 266 367z" />
    <glyph glyph-name="one.lf" horiz-adv-x="417" 
d="M384 0h-330v12l100 52c10 5 12 9 12 20v514c0 11 -3 14 -13 18l-107 36v13l226 53v-634c0 -11 2 -15 13 -20l99 -52v-12z" />
    <glyph glyph-name="two.lf" horiz-adv-x="535" 
d="M452 0h-420v14l145 160c126 141 170 234 170 335s-40 167 -126 167c-9 0 -23 -1 -33 -2c-12 -2 -15 -3 -20 -14l-69 -149h-13l-43 164c56 26 123 43 191 43c147 0 231 -84 231 -204c0 -151 -152 -278 -319 -423h215c24 0 26 1 39 18l55 76h14z" />
    <glyph glyph-name="three.lf" horiz-adv-x="549" 
d="M238 718c147 0 231 -70 231 -175c0 -97 -68 -146 -143 -168c95 -6 174 -71 174 -172c0 -129 -102 -218 -277 -218c-63 0 -133 10 -185 32l45 170h12l69 -145c4 -8 8 -11 16 -13c13 -3 25 -3 39 -3c98 0 164 78 164 174c0 113 -76 154 -173 151v22c92 13 145 75 145 168
c0 81 -42 135 -129 135c-10 0 -24 -1 -34 -2c-12 -2 -14 -3 -20 -14l-70 -149h-12l-43 164c56 26 123 43 191 43z" />
    <glyph glyph-name="four.lf" horiz-adv-x="608" 
d="M503 0h-263v12l68 45c9 7 12 11 12 22v91h-296v12l304 521h95v-486h45c12 0 17 1 25 12l70 110h13l-17 -169h-136v-91c0 -12 1 -14 13 -22l67 -45v-12zM320 217v384l-220 -384h220z" />
    <glyph glyph-name="five.lf" horiz-adv-x="541" 
d="M228 -15c-67 0 -134 10 -190 32l45 166h12l70 -142c4 -8 7 -11 17 -13c15 -2 30 -2 43 -2c87 0 159 70 159 186c0 92 -58 160 -168 160c-45 0 -88 -15 -119 -37h-12l8 364c110 -2 213 -2 258 -2s55 2 72 23l28 43h13l-10 -105c-5 -50 -23 -57 -67 -57s-154 1 -246 2
l-6 -214c35 21 83 40 140 40c141 0 226 -89 226 -216c0 -135 -102 -228 -273 -228z" />
    <glyph glyph-name="six.lf" horiz-adv-x="591" 
d="M342 718c48 0 119 -8 173 -30l-44 -162h-12l-70 135c-4 8 -7 13 -16 14c-11 2 -20 2 -32 2c-118 0 -169 -117 -168 -334c30 51 95 90 173 90c110 0 197 -79 197 -211c0 -143 -103 -237 -231 -237c-153 0 -252 137 -252 363c0 240 113 370 282 370zM305 379
c-55 0 -105 -32 -131 -80c10 -202 69 -274 139 -274c73 0 121 79 121 180c0 103 -49 174 -129 174z" />
    <glyph glyph-name="seven.lf" horiz-adv-x="484" 
d="M252 0h-129v13c89 231 204 508 248 594h-244c-24 0 -29 -3 -40 -15l-55 -74h-12l18 185h438v-12l-49 -62c-8 -10 -14 -20 -20 -33c-58 -138 -107 -387 -155 -596z" />
    <glyph glyph-name="eight.lf" horiz-adv-x="564" 
d="M285 -15c-130 0 -235 79 -235 179c0 87 78 147 158 176l-22 13c-64 38 -118 90 -118 176c0 120 101 189 213 189c109 0 210 -64 210 -170c0 -89 -76 -138 -149 -160l44 -22c69 -34 134 -88 134 -180c0 -110 -97 -201 -235 -201zM311 287l-77 40c-47 -30 -89 -82 -89 -155
c0 -90 61 -146 142 -146c75 0 130 55 130 128c0 63 -40 99 -106 133zM160 561c0 -56 35 -96 94 -127l63 -33c63 38 83 93 83 145c0 90 -57 131 -120 131s-120 -43 -120 -116z" />
    <glyph glyph-name="nine.lf" horiz-adv-x="591" 
d="M251 -15c-48 0 -119 7 -173 30l44 162h12l70 -135c4 -8 8 -13 17 -14c10 -2 19 -2 31 -2c118 0 169 118 168 334c-30 -51 -95 -90 -173 -90c-111 0 -197 79 -197 211c0 143 103 237 231 237c153 0 252 -137 252 -363c0 -240 -113 -370 -282 -370zM288 325
c55 0 105 31 131 79c-10 202 -70 273 -139 273c-73 0 -121 -79 -121 -180c0 -102 49 -172 129 -172z" />
    <glyph glyph-name="dollar.lf" horiz-adv-x="571" 
d="M277 -118v103h-18c-66 0 -137 10 -200 32v205h14l92 -172c6 -11 9 -15 21 -18c25 -6 45 -7 71 -7c6 0 14 0 20 1v272l-59 24c-79 33 -155 90 -155 195c0 112 85 186 214 199v103h41v-101c57 0 110 -5 165 -19v-192h-13l-88 153c-6 10 -11 13 -21 15c-12 2 -25 3 -43 3
v-270l43 -18c93 -39 169 -82 169 -190c0 -112 -77 -193 -212 -211v-107h-41zM164 551c0 -54 30 -92 113 -126v250c-73 -14 -113 -63 -113 -124zM425 154c0 65 -41 98 -107 127v-250c66 17 107 62 107 123z" />
    <glyph glyph-name="dollar.lf_alt" horiz-adv-x="571" 
d="M259 -15c-66 0 -137 10 -200 32v205h14l92 -172c6 -11 9 -15 21 -18c25 -6 45 -7 71 -7c103 0 168 52 168 129c0 70 -49 102 -123 133l-84 35c-79 33 -155 90 -155 195c0 112 85 186 214 199v103h41v-101c57 0 110 -5 165 -19v-192h-13l-88 153c-6 10 -10 13 -21 15
c-13 2 -27 3 -43 3c-99 0 -154 -56 -154 -127c0 -54 32 -92 105 -123l92 -38c93 -39 169 -82 169 -190c0 -112 -77 -194 -212 -211v-107h-41v103h-18z" />
    <glyph glyph-name="cent.lf" horiz-adv-x="489" 
d="M256 -17v101h-9c-115 7 -203 101 -203 259c0 155 87 252 212 272v103h41v-99h13c43 -1 90 -9 139 -25l-45 -152h-13l-59 118c-4 9 -6 11 -12 12s-12 2 -23 2v-420h18c57 0 97 26 126 58l11 -10c-24 -60 -78 -107 -155 -116v-103h-41zM155 366c0 -110 43 -176 101 -201
v405c-57 -22 -101 -97 -101 -204z" />
    <glyph glyph-name="cent.lf_alt" horiz-adv-x="489" 
d="M442 212l11 -10c-25 -60 -78 -107 -155 -116v-103h-41v101h-9c-115 7 -204 100 -204 257s87 253 213 274v103h41v-99h13c43 -1 90 -9 138 -25l-44 -152h-13l-61 123c-5 10 -7 11 -15 12c-6 1 -12 1 -20 1c-74 0 -141 -78 -141 -212c0 -144 73 -212 160 -212
c57 0 98 26 127 58z" />
    <glyph glyph-name="sterling.lf" horiz-adv-x="551" 
d="M453 101l57 76h13l-14 -177h-465v15l60 65c24 26 43 70 43 119c0 26 -6 50 -13 74h-88v41h77c-21 50 -45 98 -45 167c0 151 114 237 253 237c45 0 101 -9 144 -25l-37 -157h-13l-68 126c-6 11 -10 14 -26 14c-91 0 -149 -69 -149 -162c0 -69 33 -132 49 -200h139v-41
h-133c2 -14 3 -28 3 -42c-4 -75 -49 -112 -92 -145h272c17 0 22 1 33 15z" />
    <glyph glyph-name="yen.lf" horiz-adv-x="652" 
d="M129 249v41h133l-187 324c-9 15 -14 22 -26 31l-56 44v14h289v-14l-78 -50c-8 -5 -9 -11 -4 -21l161 -287l146 271c5 10 4 14 -3 20l-86 67v14h251v-14l-89 -66c-14 -11 -16 -13 -25 -30l-164 -303h133v-41h-140v-66h140v-42h-140v-55c0 -12 2 -15 10 -20l85 -52v-14
h-305v14l84 52c9 5 11 8 11 20v55h-140v42h140v66h-140z" />
    <glyph glyph-name="Euro.lf" horiz-adv-x="704" 
d="M25 391v41h79c29 169 156 286 350 286c55 0 118 -8 184 -24v-207h-13l-102 169c-8 13 -9 15 -24 17c-13 2 -33 3 -47 3c-133 0 -202 -99 -218 -244h205v-41h-208c-1 -10 -1 -24 -1 -34s0 -25 1 -34h208v-41h-205c15 -159 85 -255 219 -255c14 0 31 2 45 4
c16 3 17 3 24 14l105 173h13v-208c-58 -17 -135 -25 -192 -25c-210 0 -323 124 -346 297h-77v41h73c-1 8 -1 20 -1 29c0 13 0 26 1 39h-73z" />
    <glyph glyph-name="zero.tf" 
d="M300 678c-83 0 -140 -93 -140 -327c0 -235 57 -325 140 -325s140 90 140 323c0 236 -57 329 -140 329zM300 718c147 0 259 -118 259 -369c0 -249 -103 -364 -259 -364c-147 0 -259 115 -259 366c0 241 112 367 259 367z" />
    <glyph glyph-name="one.tf" 
d="M501 0h-349v12l109 53c10 5 12 9 12 20v513c0 11 -3 14 -13 18l-116 36v13l236 53v-633c0 -11 2 -15 12 -20l109 -53v-12z" />
    <glyph glyph-name="two.tf" 
d="M504 0h-420v14l145 160c126 141 170 234 170 335s-40 167 -126 167c-9 0 -23 -1 -33 -2c-12 -2 -15 -3 -20 -14l-69 -149h-13l-43 164c56 26 123 43 191 43c147 0 231 -84 231 -204c0 -151 -152 -278 -319 -423h215c24 0 26 1 39 18l55 76h14z" />
    <glyph glyph-name="three.tf" 
d="M280 718c147 0 231 -70 231 -175c0 -97 -68 -146 -143 -168c95 -6 174 -71 174 -172c0 -129 -102 -218 -277 -218c-63 0 -133 10 -185 32l45 170h12l69 -145c4 -8 8 -11 16 -13c13 -3 25 -3 39 -3c98 0 164 78 164 174c0 113 -76 154 -173 151v22c92 13 145 75 145 168
c0 81 -42 135 -129 135c-10 0 -24 -1 -34 -2c-12 -2 -14 -3 -20 -14l-70 -149h-12l-43 164c56 26 123 43 191 43z" />
    <glyph glyph-name="four.tf" 
d="M503 0h-263v12l68 45c9 7 12 11 12 22v91h-296v12l304 521h95v-486h45c12 0 17 1 25 12l70 110h13l-17 -169h-136v-91c0 -12 1 -14 13 -22l67 -45v-12zM320 217v384l-220 -384h220z" />
    <glyph glyph-name="five.tf" 
d="M263 -15c-67 0 -134 10 -190 32l45 166h12l70 -142c4 -8 7 -11 17 -13c15 -2 30 -2 43 -2c87 0 159 70 159 186c0 92 -58 160 -168 160c-45 0 -88 -15 -119 -37h-12l8 364c110 -2 213 -2 258 -2s55 2 72 23l28 43h13l-10 -105c-5 -50 -23 -57 -67 -57s-154 1 -246 2
l-6 -214c35 21 83 40 140 40c141 0 226 -89 226 -216c0 -135 -102 -228 -273 -228z" />
    <glyph glyph-name="six.tf" 
d="M342 718c48 0 119 -8 173 -30l-44 -162h-12l-70 135c-4 8 -7 13 -16 14c-11 2 -20 2 -32 2c-118 0 -169 -117 -168 -334c30 51 95 90 173 90c110 0 197 -79 197 -211c0 -143 -103 -237 -231 -237c-153 0 -252 137 -252 363c0 240 113 370 282 370zM305 379
c-55 0 -105 -32 -131 -80c10 -202 69 -274 139 -274c73 0 121 79 121 180c0 103 -49 174 -129 174z" />
    <glyph glyph-name="seven.tf" 
d="M319 0h-129v14c90 230 209 508 253 593h-263c-24 0 -29 -3 -40 -15l-56 -78h-12l18 189h458v-12l-49 -62c-8 -10 -13 -20 -19 -33c-63 -137 -111 -387 -161 -596z" />
    <glyph glyph-name="eight.tf" 
d="M315 -15c-130 0 -235 79 -235 179c0 87 78 147 158 176l-22 13c-64 38 -118 90 -118 176c0 120 101 189 213 189c109 0 210 -64 210 -170c0 -89 -76 -138 -149 -160l44 -22c69 -34 134 -88 134 -180c0 -110 -97 -201 -235 -201zM341 287l-77 40c-47 -30 -89 -82 -89 -155
c0 -90 61 -146 142 -146c75 0 130 55 130 128c0 63 -40 99 -106 133zM190 561c0 -56 35 -96 94 -127l63 -33c63 38 83 93 83 145c0 90 -57 131 -120 131s-120 -43 -120 -116z" />
    <glyph glyph-name="nine.tf" 
d="M259 -15c-48 0 -119 7 -173 30l44 162h12l70 -135c4 -8 8 -13 17 -14c10 -2 19 -2 31 -2c118 0 169 118 168 334c-30 -51 -95 -90 -173 -90c-111 0 -197 79 -197 211c0 143 103 237 231 237c153 0 252 -137 252 -363c0 -240 -113 -370 -282 -370zM296 325
c55 0 105 31 131 79c-10 202 -70 273 -139 273c-73 0 -121 -79 -121 -180c0 -102 49 -172 129 -172z" />
    <glyph glyph-name="cent.tf" 
d="M304 -15v99h-9c-116 7 -203 101 -203 259c0 155 87 252 212 272v103h41v-99h13c42 -1 89 -9 138 -25l-45 -152h-12l-59 118c-5 9 -8 12 -14 13s-13 2 -21 2v-421h18c56 0 97 26 125 58l12 -10c-25 -60 -79 -107 -155 -116v-101h-41zM203 366c0 -110 42 -176 101 -201v405
c-58 -22 -101 -97 -101 -204z" />
    <glyph glyph-name="cent.tf_alt" 
d="M489 212l12 -10c-25 -60 -79 -107 -156 -116v-101h-41v99h-8c-116 7 -204 100 -204 257s87 253 212 274v103h41v-99h14c42 -1 89 -9 138 -25l-45 -152h-12l-62 123c-5 10 -7 11 -14 12c-6 1 -12 1 -21 1c-73 0 -140 -78 -140 -212c0 -144 73 -212 160 -212
c56 0 98 26 126 58z" />
    <glyph glyph-name="dollar.tf" 
d="M299 -118v103h-18c-66 0 -137 10 -200 32v205h14l92 -172c6 -11 9 -15 21 -18c25 -5 46 -7 71 -7c6 0 14 0 20 1v272l-59 24c-79 33 -155 90 -155 195c0 112 86 186 214 199v103h41v-101c57 0 110 -5 165 -19v-192h-13l-88 153c-6 10 -12 16 -24 17s-22 1 -40 1v-270
l43 -18c93 -39 169 -82 169 -190c0 -112 -77 -193 -212 -211v-107h-41zM186 551c0 -54 30 -92 113 -126v250c-73 -14 -113 -63 -113 -124zM447 154c0 65 -41 98 -107 127v-250c66 17 107 62 107 123z" />
    <glyph glyph-name="dollar.tf_alt" 
d="M281 -15c-66 0 -137 10 -200 32v205h14l92 -172c6 -11 9 -15 21 -18c25 -6 46 -7 71 -7c103 0 168 52 168 129c0 70 -49 102 -123 133l-84 35c-79 33 -155 90 -155 195c0 112 86 186 214 199v103h41v-101h4c53 0 106 -5 161 -19v-192h-13l-88 153c-6 10 -11 13 -21 15
c-12 2 -27 3 -43 3c-99 0 -154 -56 -154 -127c0 -54 32 -92 106 -123l91 -38c93 -39 169 -82 169 -190c0 -112 -77 -194 -212 -211v-107h-41v103h-18z" />
    <glyph glyph-name="yen.tf" 
d="M103 249v41h132l-168 322c-8 15 -13 22 -25 31l-56 46v14h287v-14l-77 -50c-8 -6 -9 -11 -4 -21l142 -284l128 268c5 11 5 15 -2 20l-87 67v14h252v-14l-89 -66c-14 -11 -18 -13 -26 -30l-145 -303h133v-41h-140v-66h140v-42h-140v-55c0 -12 2 -15 10 -20l85 -52v-14
h-305v14l84 52c9 5 11 8 11 20v55h-140v42h140v66h-140z" />
    <glyph glyph-name="sterling.tf" 
d="M59 312h77c-19 50 -44 100 -44 169c0 151 105 237 253 237c45 0 100 -9 144 -25l-37 -157h-13l-69 126c-6 11 -9 14 -26 14c-91 0 -148 -69 -148 -162c0 -69 33 -133 49 -202h139v-39h-133c1 -14 3 -28 2 -42c-4 -75 -48 -112 -91 -145h267c19 0 29 4 38 16l57 75h13
l-14 -177h-465v15l60 65c24 26 43 70 43 119c0 26 -6 50 -13 74h-89v39z" />
    <glyph glyph-name="Euro.tf" 
d="M22 384v41h73c21 176 121 293 299 293c49 0 106 -8 169 -24v-194h-13l-97 156c-8 14 -12 16 -25 18c-11 1 -25 2 -38 2c-113 0 -159 -101 -169 -251h172v-41h-174v-61h174v-41h-172c10 -157 58 -255 167 -255c10 0 26 1 39 2c14 2 18 4 24 15l100 161h14v-195
c-56 -17 -132 -25 -180 -25c-186 0 -275 126 -292 297h-71v41h68v61h-68z" />
    <glyph glyph-name="florin.tf" 
d="M187 335h79l22 124c28 159 98 291 231 291c46 0 78 -6 113 -23l-55 -137h-12l-35 105c-5 14 -8 17 -22 17c-34 0 -68 -26 -92 -95c-8 -25 -15 -56 -26 -119l-28 -163h124v-43h-132l-38 -224c-24 -145 -91 -313 -246 -313c-37 0 -74 7 -99 23l54 136h13l35 -100
c6 -19 8 -22 21 -22c32 0 58 31 80 87c14 36 27 88 37 146l47 267h-71v43z" />
    <glyph glyph-name="zero.tosf" 
d="M300 -12c-142 0 -253 96 -253 262c0 167 114 268 253 268c142 0 253 -96 253 -262c0 -167 -114 -268 -253 -268zM300 31c86 0 135 85 135 218c0 140 -49 226 -135 226s-135 -86 -135 -219c0 -140 49 -225 135 -225z" />
    <glyph glyph-name="one.tosf" 
d="M482 0h-322v12l97 47c10 6 12 9 12 20v317c0 11 -3 15 -14 18l-103 33v12l222 59v-439c0 -11 1 -14 12 -20l96 -47v-12z" />
    <glyph glyph-name="two.tosf" 
d="M502 0h-421v15c36 35 98 89 142 129c82 76 152 156 152 232c0 63 -39 100 -103 100c-10 0 -24 -1 -34 -2c-11 -2 -13 -3 -19 -14l-65 -121h-13l-40 139c61 26 122 40 185 40c133 0 203 -65 203 -149c0 -127 -174 -223 -290 -285h219c22 0 24 0 37 18l52 73h13z" />
    <glyph glyph-name="three.tosf" 
d="M95 -157l-1 21c142 25 299 95 299 219c0 73 -58 106 -129 106c-15 0 -31 -2 -45 -5v22c79 19 158 69 158 167c0 70 -45 103 -106 103c-11 0 -23 -1 -32 -2c-9 -2 -12 -3 -18 -14l-65 -121h-12l-40 139c57 26 121 40 179 40c132 0 205 -59 205 -142
c0 -74 -61 -128 -137 -151c74 -1 156 -46 156 -140c0 -102 -83 -172 -185 -209c-54 -19 -127 -36 -188 -36c-17 0 -29 1 -39 3z" />
    <glyph glyph-name="four.tosf" 
d="M446 -148h-100v177h-287v12l284 465h103v-431h94v-46h-94v-177zM136 75h210v348z" />
    <glyph glyph-name="five.tosf" 
d="M318 -123c-55 -21 -118 -34 -187 -37c-14 0 -27 1 -38 3l-2 21c161 25 304 107 304 227c0 80 -57 116 -128 116c-43 0 -82 -14 -106 -33h-13l7 329c47 -1 177 -1 230 -1c40 0 51 7 69 29l23 28h13l-9 -91c-5 -43 -20 -57 -59 -57c-67 0 -149 0 -220 1l-6 -187
c23 17 74 38 134 38c109 0 179 -65 179 -164c0 -104 -69 -178 -191 -222z" />
    <glyph glyph-name="six.tosf" 
d="M306 -13c-150 0 -238 115 -238 278c0 248 194 399 409 399c16 0 26 -1 37 -3l1 -21c-193 -34 -337 -153 -337 -377c0 -143 55 -234 129 -234c60 0 110 61 110 171c0 109 -51 162 -118 162c-23 0 -44 -7 -66 -23l-8 11c30 37 70 61 130 61c94 0 176 -71 176 -200
c0 -133 -96 -224 -225 -224z" />
    <glyph glyph-name="seven.tosf" 
d="M290 -148h-120v12c97 228 209 465 254 551h-239c-19 0 -20 -1 -31 -15l-58 -72h-13l17 178h417v-13l-49 -67c-10 -14 -15 -24 -19 -37c-46 -142 -102 -330 -159 -537z" />
    <glyph glyph-name="eight.tosf" 
d="M298 -12c-113 0 -219 65 -219 162c0 82 77 136 154 167l-34 20c-53 30 -97 85 -97 157c0 103 91 169 199 169c103 0 189 -59 189 -150c0 -79 -67 -131 -134 -152l42 -24c64 -36 123 -81 123 -166c0 -104 -90 -183 -223 -183zM329 261l-71 41c-45 -30 -86 -78 -86 -145
c0 -76 53 -129 127 -129s122 53 122 113c0 45 -26 81 -92 120zM192 521c0 -45 26 -82 84 -115l55 -31c51 37 72 84 72 134c0 73 -47 113 -105 113s-106 -40 -106 -101z" />
    <glyph glyph-name="nine.tosf" 
d="M293 518c150 0 238 -115 238 -278c0 -248 -194 -399 -408 -399c-17 0 -27 1 -37 3l-2 21c193 34 337 153 337 377c0 143 -55 234 -129 234c-60 0 -110 -61 -110 -171c0 -109 51 -162 118 -162c23 0 44 6 66 22l8 -10c-29 -37 -70 -61 -130 -61c-94 0 -176 70 -176 200
c0 133 96 224 225 224z" />
    <glyph glyph-name="dollar.tosf" 
d="M279 -15c-69 0 -139 8 -207 32v204h14l93 -174c6 -10 8 -12 19 -15c21 -5 51 -7 81 -7v248l-48 17c-77 27 -154 82 -154 186c0 101 71 174 202 186v75h41v-73c46 0 98 -5 161 -19v-192h-14l-88 156c-6 9 -15 13 -25 14s-23 2 -34 2v-245l44 -13c90 -28 164 -72 164 -178
c0 -107 -75 -185 -208 -201v-76h-41v73zM424 147c0 62 -33 91 -104 114v-232c74 14 104 58 104 118zM172 512c0 -62 41 -97 107 -119v230c-71 -10 -107 -53 -107 -111z" />
    <glyph glyph-name="dollar.tosf_alt" 
d="M267 -15c-55 0 -131 8 -195 32v204h14l93 -174c6 -10 8 -12 19 -15c21 -5 51 -7 68 -7c114 0 158 50 158 122c0 67 -39 94 -117 119l-76 24c-78 25 -154 82 -154 186c0 101 71 174 202 186v75h41v-73c46 0 98 -5 161 -19v-192h-14l-88 156c-6 9 -15 12 -25 13
c-13 2 -28 3 -42 3c-93 0 -140 -47 -140 -113c0 -64 44 -99 115 -121l77 -24c90 -28 164 -72 164 -178c0 -107 -75 -185 -208 -201v-76h-41v73h-12z" />
    <glyph glyph-name="cent.tosf" 
d="M307 -111v100h-9c-115 8 -203 94 -203 245c0 150 87 245 212 264v103h41v-101h13c43 0 90 -7 139 -24l-45 -147h-13l-59 114c-4 9 -9 14 -15 15s-9 1 -20 1v-399c2 -1 17 -1 18 -1c57 0 97 26 126 58l11 -10c-24 -60 -78 -107 -155 -116v-102h-41zM206 258
c0 -103 43 -164 101 -188v385c-57 -21 -101 -95 -101 -197z" />
    <glyph glyph-name="cent.tosf_alt" 
d="M95 234c0 150 87 244 212 263v104h41v-100h13c43 0 90 -8 139 -25l-45 -147h-13l-61 118c-5 10 -11 13 -18 13h-16c-74 0 -141 -73 -141 -202c0 -137 73 -199 160 -199c57 0 97 26 126 58l11 -10c-24 -60 -78 -107 -155 -116v-102h-41v100h-9c-115 8 -203 94 -203 245z
" />
    <glyph glyph-name="sterling.tosf" 
d="M64 306h69c-18 39 -37 82 -37 141c0 134 105 217 233 217c54 0 108 -10 148 -25l-37 -157h-13l-69 125c-6 12 -9 15 -28 15c-79 0 -130 -58 -130 -145c0 -59 31 -116 47 -171h141v-42h-132c2 -13 3 -28 3 -42c-3 -68 -47 -104 -91 -136h266c17 0 23 1 34 15l57 76h13
l-14 -177h-462v15l64 65c24 25 42 63 42 108c0 27 -8 51 -16 76h-88v42z" />
    <glyph glyph-name="yen.tosf" 
d="M432 0h-305v14l84 52c9 5 11 8 11 20v57h-139v41h139v62h-139v41h115l-145 278c-9 16 -15 22 -26 32l-47 43v14h269v-14l-68 -49c-8 -6 -9 -10 -4 -21l137 -269l132 256c4 8 3 13 -4 19l-83 64v14h248v-14l-88 -64c-15 -11 -18 -14 -27 -31l-134 -258h118v-41h-139v-62
h139v-41h-139v-57c0 -12 1 -15 10 -20l85 -52v-14z" />
    <glyph glyph-name="Euro.tosf" 
d="M400 -15c-188 0 -278 115 -301 268h-75v41h70c-1 11 -1 25 -1 37c0 9 0 20 1 31h-70v41h75c26 153 124 261 307 261c41 0 107 -5 166 -23v-200h-13l-96 161c-6 11 -12 15 -25 17c-11 2 -26 3 -34 3c-118 0 -175 -92 -191 -219h206v-41h-210v-27c0 -13 1 -29 2 -41h208
v-41h-204c19 -136 73 -226 192 -226c9 0 18 0 27 2c18 3 21 5 27 16l99 165h13v-202c-53 -16 -129 -23 -173 -23z" />
    <glyph glyph-name="uni2070" unicode="&#x2070;" horiz-adv-x="346" 
d="M172 679c-40 0 -63 -48 -63 -155c0 -109 23 -153 63 -153s63 45 63 152c0 109 -23 156 -63 156zM172 711c92 0 155 -61 155 -188s-61 -185 -155 -185c-91 0 -155 58 -155 185c0 125 64 188 155 188z" />
    <glyph glyph-name="uni2074" unicode="&#x2074;" horiz-adv-x="346" 
d="M294 346h-168v12l36 20c6 3 7 6 7 12v42h-155v7l161 264h77v-239h18c6 0 11 1 14 6l35 49h12l-10 -87h-69v-42c0 -6 1 -9 7 -12l35 -20v-12zM169 464v167l-100 -167h100z" />
    <glyph glyph-name="uni2075" unicode="&#x2075;" horiz-adv-x="346" 
d="M148 338c-40 0 -78 6 -111 18l33 105h12l40 -83c4 -7 10 -7 24 -7c37 0 72 29 72 78c0 46 -30 76 -84 76c-24 0 -46 -6 -65 -14h-8l7 191c36 -2 136 -2 161 -2c21 0 29 2 39 13l13 14h11l-6 -54c-4 -33 -18 -39 -53 -39c-20 0 -84 1 -134 1l-4 -87c24 9 51 16 85 16
c72 0 128 -38 128 -109c0 -72 -61 -117 -160 -117z" />
    <glyph glyph-name="uni2077" unicode="&#x2077;" horiz-adv-x="346" 
d="M193 346h-104v11c48 99 116 221 152 279h-145c-10 0 -13 -1 -18 -7l-30 -34h-12l12 108h262v-11l-35 -46c-6 -8 -9 -14 -12 -24c-22 -73 -50 -179 -70 -276z" />
    <glyph glyph-name="uni2076" unicode="&#x2076;" horiz-adv-x="346" 
d="M195 711c29 0 72 -5 105 -18l-34 -94h-10l-42 73c-4 6 -8 6 -19 6c-50 0 -76 -48 -78 -145c18 21 53 34 89 34c61 0 109 -39 109 -107c0 -73 -57 -122 -137 -122c-94 0 -149 70 -149 183c0 124 67 190 166 190zM170 528c-21 0 -40 -9 -53 -26c3 -98 31 -132 62 -132
c33 0 52 38 52 80c0 45 -21 78 -61 78z" />
    <glyph glyph-name="uni2078" unicode="&#x2078;" horiz-adv-x="346" 
d="M169 339c-62 0 -135 32 -135 89c0 41 40 72 83 85l-8 4c-36 18 -66 48 -66 94c0 62 57 101 127 101c63 0 124 -30 124 -85c0 -44 -43 -66 -79 -76l21 -9c42 -20 76 -48 76 -95c0 -64 -63 -108 -143 -108zM175 484l-38 19c-23 -13 -39 -38 -39 -68c0 -36 31 -63 74 -63
c40 0 66 24 66 49c0 27 -22 42 -63 63zM111 637c0 -27 21 -44 51 -59l35 -17c24 20 35 39 35 63c0 33 -24 55 -62 55c-34 0 -59 -19 -59 -42z" />
    <glyph glyph-name="uni2079" unicode="&#x2079;" horiz-adv-x="346" 
d="M150 338c-29 0 -72 4 -105 18l33 94h11l41 -73c4 -6 9 -6 20 -6c49 0 75 47 77 144c-17 -20 -53 -34 -89 -34c-60 0 -109 40 -109 108c0 73 57 122 138 122c94 0 148 -70 148 -183c0 -124 -66 -190 -165 -190zM175 521c19 0 40 9 52 25c-3 97 -30 133 -61 133
c-33 0 -53 -38 -53 -80c0 -46 21 -78 62 -78z" />
    <glyph glyph-name="parenleft.subs" horiz-adv-x="249" 
d="M135 176c0 -101 25 -191 80 -243l-5 -9c-91 40 -155 141 -155 252s64 212 155 252l5 -9c-55 -52 -80 -142 -80 -243z" />
    <glyph glyph-name="parenright.subs" horiz-adv-x="249" 
d="M114 176c0 101 -25 191 -80 243l5 9c91 -40 155 -141 155 -252s-64 -212 -155 -252l-5 9c55 52 80 142 80 243z" />
    <glyph glyph-name="uni2080" unicode="&#x2080;" horiz-adv-x="346" 
d="M172 333c-40 0 -63 -48 -63 -155c0 -108 23 -153 63 -153s63 45 63 152c0 109 -23 156 -63 156zM172 365c92 0 155 -61 155 -188s-61 -185 -155 -185c-91 0 -155 58 -155 185c0 125 64 188 155 188z" />
    <glyph glyph-name="uni2081" unicode="&#x2081;" horiz-adv-x="346" 
d="M292 0h-232v11l69 38c4 2 5 5 5 10v230c0 4 -1 7 -6 9l-67 31v10l156 28v-308c0 -6 1 -8 5 -10l70 -38v-11z" />
    <glyph glyph-name="uni2082" unicode="&#x2082;" horiz-adv-x="346" 
d="M149 332c-13 0 -16 -2 -20 -10l-43 -80h-12l-31 100c34 14 77 23 121 23c91 0 132 -42 132 -100c0 -81 -86 -139 -174 -200h119c14 0 17 1 26 11l27 35h12l-17 -111h-251v12l68 74c58 66 101 118 101 178c0 44 -22 68 -58 68z" />
    <glyph glyph-name="uni2083" unicode="&#x2083;" horiz-adv-x="346" 
d="M162 365c89 0 134 -37 134 -89c0 -51 -40 -78 -88 -86c58 -5 101 -36 101 -88c0 -64 -56 -110 -159 -110c-41 0 -87 7 -116 18l36 105h11l41 -82c4 -8 10 -8 22 -8c48 0 74 40 74 76c0 50 -30 73 -86 76v13c55 8 78 42 78 84c0 36 -23 58 -61 58c-13 0 -18 -1 -22 -7
l-44 -83h-12l-31 101c34 13 79 22 122 22z" />
    <glyph glyph-name="uni2084" unicode="&#x2084;" horiz-adv-x="346" 
d="M294 0h-168v12l36 20c6 4 7 7 7 13v41h-155v7l161 264h77v-239h18c6 0 11 1 14 6l35 49h12l-10 -87h-69v-41c0 -7 1 -9 7 -13l35 -20v-12zM169 118v167l-100 -167h100z" />
    <glyph glyph-name="uni2085" unicode="&#x2085;" horiz-adv-x="346" 
d="M148 -7c-40 0 -78 6 -111 18l33 105h12l40 -83c4 -7 10 -7 24 -7c37 0 72 29 72 78c0 46 -30 76 -84 76c-24 0 -46 -6 -65 -14h-8l7 191c36 -2 136 -2 161 -2c21 0 29 2 39 13l13 14h11l-6 -54c-4 -33 -18 -39 -53 -39c-20 0 -84 1 -134 1l-4 -87c24 9 51 16 85 16
c72 0 128 -38 128 -109c0 -72 -61 -117 -160 -117z" />
    <glyph glyph-name="uni2086" unicode="&#x2086;" horiz-adv-x="346" 
d="M195 365c29 0 72 -4 105 -18l-34 -94h-10l-42 73c-4 6 -8 6 -19 6c-50 0 -75 -47 -78 -143c19 20 54 33 89 33c61 0 109 -40 109 -108c0 -73 -57 -122 -137 -122c-94 0 -149 70 -149 183c0 124 67 190 166 190zM170 182c-21 0 -40 -9 -53 -25c3 -98 31 -133 62 -133
c33 0 52 38 52 80c0 46 -21 78 -61 78z" />
    <glyph glyph-name="uni2087" unicode="&#x2087;" horiz-adv-x="346" 
d="M193 0h-104v11c48 99 116 221 152 279h-145c-10 0 -13 -1 -18 -6l-30 -34h-12l12 107h262v-10l-35 -47c-6 -8 -9 -14 -12 -24c-23 -73 -50 -179 -70 -276z" />
    <glyph glyph-name="uni2088" unicode="&#x2088;" horiz-adv-x="346" 
d="M169 -8c-62 0 -135 32 -135 90c0 40 40 71 83 84l-8 4c-36 19 -66 49 -66 94c0 62 57 101 127 101c63 0 124 -29 124 -85c0 -44 -43 -66 -79 -75l21 -10c42 -20 76 -48 76 -95c0 -63 -63 -108 -143 -108zM175 137l-38 19c-23 -12 -39 -38 -39 -67c0 -37 31 -63 74 -63
c40 0 66 23 66 49s-22 41 -63 62zM111 290c0 -26 21 -44 51 -59l35 -17c24 20 35 39 35 64c0 33 -24 55 -62 55c-34 0 -59 -19 -59 -43z" />
    <glyph glyph-name="uni2089" unicode="&#x2089;" horiz-adv-x="346" 
d="M150 -8c-29 0 -72 5 -105 18l33 94h11l41 -73c4 -6 9 -6 20 -6c49 0 75 46 77 142c-18 -19 -54 -31 -89 -31c-60 0 -109 39 -109 107c0 73 57 122 138 122c94 0 148 -70 148 -183c0 -124 -66 -190 -165 -190zM175 175c19 0 40 9 52 26c-3 97 -30 132 -61 132
c-33 0 -53 -38 -53 -80c0 -45 21 -78 62 -78z" />
    <glyph glyph-name="parenleft.sups" unicode="&#x207d;" horiz-adv-x="249" 
d="M135 512c0 -101 25 -191 80 -243l-5 -9c-91 40 -155 141 -155 252s64 212 155 252l5 -9c-55 -52 -80 -142 -80 -243z" />
    <glyph glyph-name="parenright.sups" unicode="&#x207e;" horiz-adv-x="249" 
d="M114 512c0 101 -25 191 -80 243l5 9c91 -40 155 -141 155 -252s-64 -212 -155 -252l-5 9c55 52 80 142 80 243z" />
    <glyph glyph-name="uni2153" unicode="&#x2153;" horiz-adv-x="758" 
d="M574 365c89 0 134 -37 134 -89c0 -51 -40 -78 -88 -86c58 -5 101 -36 101 -88c0 -64 -56 -110 -159 -110c-41 0 -87 7 -116 18l36 105h11l41 -82c4 -8 10 -8 22 -8c48 0 74 40 74 76c0 50 -30 73 -86 76v13c55 8 78 42 78 84c0 36 -23 58 -61 58c-13 0 -18 -1 -22 -7
l-44 -83h-12l-31 101c34 13 79 22 122 22zM621 694l-448 -709l-38 25l449 708zM292 346h-232v10l69 38c4 3 5 6 5 11v230c0 4 -1 7 -6 9l-67 31v10l156 27v-307c0 -6 1 -8 5 -11l70 -38v-10z" />
    <glyph glyph-name="uni2155" unicode="&#x2155;" horiz-adv-x="758" 
d="M560 -7c-40 0 -78 6 -111 18l33 105h12l40 -83c4 -7 10 -7 24 -7c37 0 72 29 72 78c0 46 -30 76 -84 76c-24 0 -46 -6 -65 -14h-8l7 191c36 -2 136 -2 161 -2c21 0 29 2 39 13l13 14h11l-6 -54c-4 -33 -18 -39 -53 -39c-20 0 -84 1 -134 1l-4 -87c24 9 51 16 85 16
c72 0 128 -38 128 -109c0 -72 -61 -117 -160 -117zM292 346h-232v10l69 38c4 3 5 6 5 11v230c0 4 -1 7 -6 9l-67 31v10l156 27v-307c0 -6 1 -8 5 -11l70 -38v-10zM621 694l-448 -709l-38 25l449 708z" />
    <glyph glyph-name="uni2154" unicode="&#x2154;" horiz-adv-x="758" 
d="M574 365c89 0 134 -37 134 -89c0 -51 -40 -78 -88 -86c58 -5 101 -36 101 -88c0 -64 -56 -110 -159 -110c-41 0 -87 7 -116 18l36 105h11l41 -82c4 -8 10 -8 22 -8c48 0 74 40 74 76c0 50 -30 73 -86 76v13c55 8 78 42 78 84c0 36 -23 58 -61 58c-13 0 -18 -1 -22 -7
l-44 -83h-12l-31 101c34 13 79 22 122 22zM149 678c-13 0 -16 -3 -20 -10l-43 -80h-12l-31 99c34 14 77 24 121 24c91 0 132 -42 132 -101c0 -80 -86 -139 -174 -199h119c14 0 18 0 26 11l27 35h12l-17 -111h-251v12l68 74c59 65 101 118 101 178c0 44 -22 68 -58 68z
M621 694l-448 -709l-38 25l449 708z" />
    <glyph glyph-name="onehalf" unicode="&#xbd;" horiz-adv-x="758" 
d="M561 332c-13 0 -16 -2 -20 -10l-43 -80h-12l-31 100c34 14 77 23 121 23c91 0 132 -42 132 -100c0 -81 -86 -139 -174 -200h119c14 0 17 1 26 11l27 35h12l-17 -111h-251v12l68 74c58 66 101 118 101 178c0 44 -22 68 -58 68zM292 346h-232v10l69 38c4 3 5 6 5 11v230
c0 4 -1 7 -6 9l-67 31v10l156 27v-307c0 -6 1 -8 5 -11l70 -38v-10zM621 694l-448 -709l-38 25l449 708z" />
    <glyph glyph-name="onequarter" unicode="&#xbc;" horiz-adv-x="758" 
d="M292 346h-232v10l69 38c4 3 5 6 5 11v230c0 4 -1 7 -6 9l-67 31v10l156 27v-307c0 -6 1 -8 5 -11l70 -38v-10zM621 694l-448 -709l-38 25l449 708zM706 0h-168v12l36 20c6 4 7 7 7 13v41h-155v7l161 264h77v-239h18c6 0 11 1 14 6l35 49h12l-10 -87h-69v-41
c0 -7 1 -9 7 -13l35 -20v-12zM581 118v167l-100 -167h100z" />
    <glyph glyph-name="threequarters" unicode="&#xbe;" horiz-adv-x="758" 
d="M162 711c89 0 134 -37 134 -89c0 -51 -40 -78 -88 -86c58 -5 101 -36 101 -88c0 -64 -56 -110 -159 -110c-41 0 -87 7 -116 18l36 104h11l41 -81c4 -8 10 -8 22 -8c48 0 74 40 74 75c0 51 -30 74 -86 77v13c55 8 78 42 78 84c0 36 -23 58 -61 58c-13 0 -19 -1 -22 -7
l-44 -83h-12l-31 100c34 14 79 23 122 23zM621 694l-448 -709l-38 25l449 708zM706 0h-168v12l36 20c6 4 7 7 7 13v41h-155v7l161 264h77v-239h18c6 0 11 1 14 6l35 49h12l-10 -87h-69v-41c0 -7 1 -9 7 -13l35 -20v-12zM581 118v167l-100 -167h100z" />
    <glyph glyph-name="uni2156" unicode="&#x2156;" horiz-adv-x="758" 
d="M149 678c-13 0 -16 -3 -20 -10l-43 -80h-12l-31 99c34 14 77 24 121 24c91 0 132 -42 132 -101c0 -80 -86 -139 -174 -199h119c14 0 18 0 26 11l27 35h12l-17 -111h-251v12l68 74c59 65 101 118 101 178c0 44 -22 68 -58 68zM560 -7c-40 0 -78 6 -111 18l33 105h12
l40 -83c4 -7 10 -7 24 -7c37 0 72 29 72 78c0 46 -30 76 -84 76c-24 0 -46 -6 -65 -14h-8l7 191c36 -2 136 -2 161 -2c21 0 29 2 39 13l13 14h11l-6 -54c-4 -33 -18 -39 -53 -39c-20 0 -84 1 -134 1l-4 -87c24 9 51 16 85 16c72 0 128 -38 128 -109
c0 -72 -61 -117 -160 -117zM621 694l-448 -709l-38 25l449 708z" />
    <glyph glyph-name="uni2157" unicode="&#x2157;" horiz-adv-x="758" 
d="M162 711c89 0 134 -37 134 -89c0 -51 -40 -78 -88 -86c58 -5 101 -36 101 -88c0 -64 -56 -110 -159 -110c-41 0 -87 7 -116 18l36 104h11l41 -81c4 -8 10 -8 22 -8c48 0 74 40 74 75c0 51 -30 74 -86 77v13c55 8 78 42 78 84c0 36 -23 58 -61 58c-13 0 -19 -1 -22 -7
l-44 -83h-12l-31 100c34 14 79 23 122 23zM560 -7c-40 0 -78 6 -111 18l33 105h12l40 -83c4 -7 10 -7 24 -7c37 0 72 29 72 78c0 46 -30 76 -84 76c-24 0 -46 -6 -65 -14h-8l7 191c36 -2 136 -2 161 -2c21 0 29 2 39 13l13 14h11l-6 -54c-4 -33 -18 -39 -53 -39
c-20 0 -84 1 -134 1l-4 -87c24 9 51 16 85 16c72 0 128 -38 128 -109c0 -72 -61 -117 -160 -117zM621 694l-448 -709l-38 25l449 708z" />
    <glyph glyph-name="uni2158" unicode="&#x2158;" horiz-adv-x="758" 
d="M294 346h-168v12l36 20c6 3 7 6 7 12v42h-155v7l161 264h77v-239h18c6 0 11 1 14 6l35 49h12l-10 -87h-69v-42c0 -6 1 -9 7 -12l35 -20v-12zM169 464v167l-100 -167h100zM560 -7c-40 0 -78 6 -111 18l33 105h12l40 -83c4 -7 10 -7 24 -7c37 0 72 29 72 78
c0 46 -30 76 -84 76c-24 0 -46 -6 -65 -14h-8l7 191c36 -2 136 -2 161 -2c21 0 29 2 39 13l13 14h11l-6 -54c-4 -33 -18 -39 -53 -39c-20 0 -84 1 -134 1l-4 -87c24 9 51 16 85 16c72 0 128 -38 128 -109c0 -72 -61 -117 -160 -117zM621 694l-448 -709l-38 25l449 708z" />
    <glyph glyph-name="uni2159" unicode="&#x2159;" horiz-adv-x="758" 
d="M292 346h-232v10l69 38c4 3 5 6 5 11v230c0 4 -1 7 -6 9l-67 31v10l156 27v-307c0 -6 1 -8 5 -11l70 -38v-10zM607 365c29 0 72 -4 105 -18l-34 -94h-10l-42 73c-4 6 -8 6 -19 6c-50 0 -75 -47 -78 -143c19 20 54 33 89 33c61 0 109 -40 109 -108
c0 -73 -57 -122 -137 -122c-94 0 -149 70 -149 183c0 124 67 190 166 190zM582 182c-21 0 -40 -9 -53 -25c3 -98 31 -133 62 -133c33 0 52 38 52 80c0 46 -21 78 -61 78zM621 694l-448 -709l-38 25l449 708z" />
    <glyph glyph-name="uni215A" unicode="&#x215a;" horiz-adv-x="758" 
d="M148 338c-40 0 -78 6 -111 18l33 105h12l40 -83c4 -7 10 -7 24 -7c37 0 72 29 72 78c0 46 -30 76 -84 76c-24 0 -46 -6 -65 -14h-8l7 191c36 -2 136 -2 161 -2c21 0 29 2 39 13l13 14h11l-6 -54c-4 -33 -18 -39 -53 -39c-20 0 -84 1 -134 1l-4 -87c24 9 51 16 85 16
c72 0 128 -38 128 -109c0 -72 -61 -117 -160 -117zM607 365c29 0 72 -4 105 -18l-34 -94h-10l-42 73c-4 6 -8 6 -19 6c-50 0 -75 -47 -78 -143c19 20 54 33 89 33c61 0 109 -40 109 -108c0 -73 -57 -122 -137 -122c-94 0 -149 70 -149 183c0 124 67 190 166 190zM582 182
c-21 0 -40 -9 -53 -25c3 -98 31 -133 62 -133c33 0 52 38 52 80c0 46 -21 78 -61 78zM621 694l-448 -709l-38 25l449 708z" />
    <glyph glyph-name="uni215B" unicode="&#x215b;" horiz-adv-x="758" 
d="M581 -8c-62 0 -135 32 -135 90c0 40 40 71 83 84l-8 4c-36 19 -66 49 -66 94c0 62 57 101 127 101c63 0 124 -29 124 -85c0 -44 -43 -66 -79 -75l21 -10c42 -20 76 -48 76 -95c0 -63 -63 -108 -143 -108zM587 137l-38 19c-23 -12 -39 -38 -39 -67c0 -37 31 -63 74 -63
c40 0 66 23 66 49s-22 41 -63 62zM523 290c0 -26 21 -44 51 -59l35 -17c24 20 35 39 35 64c0 33 -24 55 -62 55c-34 0 -59 -19 -59 -43zM292 346h-232v10l69 38c4 3 5 6 5 11v230c0 4 -1 7 -6 9l-67 31v10l156 27v-307c0 -6 1 -8 5 -11l70 -38v-10zM621 694l-448 -709
l-38 25l449 708z" />
    <glyph glyph-name="uni215D" unicode="&#x215d;" horiz-adv-x="758" 
d="M581 -8c-62 0 -135 32 -135 90c0 40 40 71 83 84l-8 4c-36 19 -66 49 -66 94c0 62 57 101 127 101c63 0 124 -29 124 -85c0 -44 -43 -66 -79 -75l21 -10c42 -20 76 -48 76 -95c0 -63 -63 -108 -143 -108zM587 137l-38 19c-23 -12 -39 -38 -39 -67c0 -37 31 -63 74 -63
c40 0 66 23 66 49s-22 41 -63 62zM523 290c0 -26 21 -44 51 -59l35 -17c24 20 35 39 35 64c0 33 -24 55 -62 55c-34 0 -59 -19 -59 -43zM621 694l-448 -709l-38 25l449 708zM148 338c-40 0 -78 6 -111 18l33 105h12l40 -83c4 -7 10 -7 24 -7c37 0 72 29 72 78
c0 46 -30 76 -84 76c-24 0 -46 -6 -65 -14h-8l7 191c36 -2 136 -2 161 -2c21 0 29 2 39 13l13 14h11l-6 -54c-4 -33 -18 -39 -53 -39c-20 0 -84 1 -134 1l-4 -87c24 9 51 16 85 16c72 0 128 -38 128 -109c0 -72 -61 -117 -160 -117z" />
    <glyph glyph-name="uni215C" unicode="&#x215c;" horiz-adv-x="758" 
d="M581 -8c-62 0 -135 32 -135 90c0 40 40 71 83 84l-8 4c-36 19 -66 49 -66 94c0 62 57 101 127 101c63 0 124 -29 124 -85c0 -44 -43 -66 -79 -75l21 -10c42 -20 76 -48 76 -95c0 -63 -63 -108 -143 -108zM587 137l-38 19c-23 -12 -39 -38 -39 -67c0 -37 31 -63 74 -63
c40 0 66 23 66 49s-22 41 -63 62zM523 290c0 -26 21 -44 51 -59l35 -17c24 20 35 39 35 64c0 33 -24 55 -62 55c-34 0 -59 -19 -59 -43zM160 711c89 0 134 -37 134 -89c0 -51 -40 -78 -88 -86c58 -5 101 -36 101 -88c0 -64 -56 -110 -159 -110c-41 0 -87 7 -116 18l36 104
h11l41 -81c4 -8 10 -8 22 -8c48 0 74 40 74 75c0 51 -30 74 -86 77v13c55 8 78 42 78 84c0 36 -23 58 -61 58c-13 0 -19 -1 -22 -7l-44 -83h-12l-31 100c34 14 79 23 122 23zM621 694l-448 -709l-38 25l449 708z" />
    <glyph glyph-name="uni215E" unicode="&#x215e;" horiz-adv-x="758" 
d="M581 -8c-62 0 -135 32 -135 90c0 40 40 71 83 84l-8 4c-36 19 -66 49 -66 94c0 62 57 101 127 101c63 0 124 -29 124 -85c0 -44 -43 -66 -79 -75l21 -10c42 -20 76 -48 76 -95c0 -63 -63 -108 -143 -108zM587 137l-38 19c-23 -12 -39 -38 -39 -67c0 -37 31 -63 74 -63
c40 0 66 23 66 49s-22 41 -63 62zM523 290c0 -26 21 -44 51 -59l35 -17c24 20 35 39 35 64c0 33 -24 55 -62 55c-34 0 -59 -19 -59 -43zM621 694l-448 -709l-38 25l449 708zM223 346h-104v11c48 99 116 221 152 279h-145c-10 0 -13 -1 -18 -7l-30 -34h-12l12 108h262v-11
l-35 -46c-6 -8 -9 -14 -12 -24c-22 -73 -50 -179 -70 -276z" />
    <glyph glyph-name="backslash.case" horiz-adv-x="391" 
d="M318 -101l-297 886l52 15l297 -885z" />
    <glyph glyph-name="bar.case" horiz-adv-x="335" 
d="M196 -150h-57v974h57v-974z" />
    <glyph glyph-name="braceleft.case" horiz-adv-x="377" 
d="M273 -104c-84 0 -156 44 -156 154c0 2 3 65 18 213c6 55 -26 85 -85 86v15c59 1 91 31 85 85c-18 179 -18 207 -18 214c0 112 72 154 156 154c22 0 44 -3 64 -9v-14c-98 -1 -133 -48 -133 -113c0 -10 1 -53 17 -219c6 -61 -21 -92 -87 -104v-3c66 -12 93 -44 87 -105
c-16 -166 -17 -208 -17 -217c0 -69 38 -114 133 -115v-14c-20 -5 -42 -8 -64 -8z" />
    <glyph glyph-name="braceright.case" horiz-adv-x="377" 
d="M104 -104c-21 0 -44 3 -64 8v14c95 1 133 46 133 115c0 9 -2 51 -17 217c-5 61 21 93 88 105v3c-67 12 -93 43 -88 104c15 166 17 209 17 219c0 65 -35 112 -133 113v14c20 6 43 9 64 9c84 0 156 -42 156 -154c0 -7 -1 -35 -18 -214c-5 -54 26 -84 85 -85v-15
c-59 -1 -90 -31 -85 -86c15 -148 18 -211 18 -213c0 -110 -72 -154 -156 -154z" />
    <glyph glyph-name="bracketleft.case" horiz-adv-x="377" 
d="M337 -96l-212 -9v921l212 -8v-14l-122 -34c-11 -3 -14 -7 -14 -18v-771c0 -11 3 -16 14 -18l122 -35v-14z" />
    <glyph glyph-name="bracketright.case" horiz-adv-x="377" 
d="M253 -105l-213 9v14l123 35c10 2 13 7 13 18v771c0 11 -3 15 -13 18l-123 34v14l213 8v-921z" />
    <glyph glyph-name="emdash.case" horiz-adv-x="1050" 
d="M1020 328h-990v58h990v-58z" />
    <glyph glyph-name="endash.case" horiz-adv-x="550" 
d="M520 328h-490v58h490v-58z" />
    <glyph glyph-name="guillemotleft.case" horiz-adv-x="444" 
d="M218 160l-184 196v9l184 196l10 -9l-91 -192l91 -191zM389 160l-184 196v9l184 196l10 -9l-91 -192l91 -191z" />
    <glyph glyph-name="guillemotright.case" horiz-adv-x="444" 
d="M239 356l-184 -196l-9 9l90 191l-91 192l10 9l184 -196v-9zM410 356l-184 -196l-9 9l90 191l-90 192l9 9l184 -196v-9z" />
    <glyph glyph-name="guilsinglleft.case" horiz-adv-x="273" 
d="M218 160l-184 196v9l184 196l10 -9l-91 -192l91 -191z" />
    <glyph glyph-name="guilsinglright.case" horiz-adv-x="273" 
d="M239 356l-184 -196l-9 9l90 191l-91 192l10 9l184 -196v-9z" />
    <glyph glyph-name="hyphen.case" horiz-adv-x="403" 
d="M58 323v69h287v-69h-287z" />
    <glyph glyph-name="parenleft.case" horiz-adv-x="377" 
d="M178 355c0 -195 52 -347 160 -442l-8 -13c-162 70 -246 239 -246 455c0 217 84 386 246 456l8 -13c-108 -95 -160 -247 -160 -443z" />
    <glyph glyph-name="parenright.case" horiz-adv-x="377" 
d="M199 356c0 195 -51 347 -159 442l8 13c161 -70 246 -239 246 -455c0 -217 -85 -386 -246 -456l-8 13c108 95 159 247 159 443z" />
    <glyph glyph-name="slash.case" horiz-adv-x="391" 
d="M370 785l-297 -886l-52 16l297 885z" />
    <glyph glyph-name="questiondown.case" horiz-adv-x="432" 
d="M240 484h12c17 -19 28 -39 28 -68c0 -38 -22 -71 -59 -107l-43 -40c-33 -32 -54 -67 -54 -118c0 -71 45 -126 121 -126c12 0 23 1 34 3c12 4 14 7 21 19l60 124h12l52 -138c-59 -32 -128 -47 -190 -47c-135 0 -220 72 -220 175c0 65 34 110 79 149l93 80
c34 29 59 63 54 94zM245 712c41 0 73 -33 73 -74c0 -42 -32 -75 -73 -75c-42 0 -73 33 -73 75c0 41 31 74 73 74z" />
    <glyph glyph-name="exclamdown.case" horiz-adv-x="289" 
d="M138 508h13l70 -508h-154zM219 638c0 -42 -31 -75 -73 -75c-41 0 -73 33 -73 75c0 41 32 74 73 74c42 0 73 -33 73 -74z" />
    <glyph glyph-name="plus.case" 
d="M272 132v193h-192v54h192v193h56v-193h192v-54h-192v-193h-56z" />
    <glyph glyph-name="multiply.case" 
d="M462 140l-163 163l-162 -162l-38 38l162 162l-163 163l40 40l163 -163l162 162l38 -38l-162 -162l163 -163z" />
    <glyph glyph-name="minus.case" 
d="M520 325h-440v54h440v-54z" />
    <glyph glyph-name="notequal.case" 
d="M520 239h-254l-57 -101l-44 25l42 76h-127v54h157l68 121h-225v54h255l60 107l45 -27l-45 -80h125v-54h-156l-68 -121h224v-54z" />
    <glyph glyph-name="approxequal.case" 
d="M413 392c-89 0 -152 71 -223 71c-43 0 -72 -23 -91 -53l-44 30c26 42 70 77 132 77c89 0 152 -71 222 -71c44 0 73 23 92 54l44 -31c-27 -42 -71 -77 -132 -77zM413 215c-89 0 -152 71 -223 71c-43 0 -72 -23 -91 -54l-44 31c26 42 70 77 132 77c89 0 152 -71 222 -71
c44 0 73 23 92 53l44 -30c-27 -42 -71 -77 -132 -77z" />
    <glyph glyph-name="divide.case" 
d="M235 500c0 40 27 65 65 65s64 -25 64 -64c0 -40 -26 -67 -64 -67s-65 26 -65 66zM520 325h-440v54h440v-54zM235 204c0 40 27 66 65 66s64 -25 64 -65s-26 -66 -64 -66s-65 25 -65 65z" />
    <glyph glyph-name="plusminus.case" 
d="M273 244v145h-193v55h193v141h56v-141h191v-55h-191v-145h-56zM520 126h-440v55h440v-55z" />
    <glyph glyph-name="lessequal.case" 
d="M486 262l-406 144v12l406 145l19 -52l-283 -97v-4l283 -97zM520 126h-440v55h440v-55z" />
    <glyph glyph-name="greaterequal.case" 
d="M114 262l-19 51l283 97v4l-283 97l19 52l406 -145v-12zM520 126h-440v55h440v-55z" />
    <glyph glyph-name="uni00AD.case" horiz-adv-x="0" 
 />
    <glyph glyph-name="less.case" 
d="M477 165l-398 182v12l398 182l20 -50l-302 -137v-2l302 -137z" />
    <glyph glyph-name="equal.case" 
d="M520 414h-440v54h440v-54zM520 239h-440v54h440v-54z" />
    <glyph glyph-name="greater.case" 
d="M123 165l-20 51l302 137v2l-302 137l20 50l398 -182v-12z" />
    <glyph glyph-name="a.smcp" horiz-adv-x="576" 
d="M-8 0v12l76 62c10 8 14 12 18 23l140 350c4 10 4 15 -1 24l-32 54v12h127l188 -459c4 -12 8 -16 17 -23l53 -43v-12h-253v12l65 49c6 5 7 8 4 16l-35 89h-200l-28 -71c-4 -10 -2 -15 8 -24l70 -59v-12h-217zM258 418l-83 -211h167z" />
    <glyph glyph-name="b.smcp" horiz-adv-x="567" 
d="M30 537h278c112 0 191 -45 191 -133c0 -70 -55 -114 -132 -120c92 -11 156 -54 156 -135c0 -95 -84 -149 -211 -149h-282v12l72 47c8 6 10 9 10 20v380c0 10 -2 13 -10 19l-72 47v12zM294 41c70 0 113 33 113 108c0 77 -50 105 -115 105h-72v-202c0 -10 2 -11 11 -11h63z
M220 486v-193h69c52 0 95 28 95 107c0 65 -37 96 -94 96h-58c-10 0 -12 -2 -12 -10z" />
    <glyph glyph-name="c.smcp" horiz-adv-x="552" 
d="M328 -11c-197 0 -289 122 -289 280c0 161 107 279 295 279c43 0 99 -5 154 -18v-179h-12l-93 142c-6 9 -8 10 -19 12s-23 2 -33 2c-118 0 -168 -95 -168 -235c0 -149 51 -242 169 -242c10 0 22 0 33 2s13 3 18 11l96 145h10v-180c-49 -13 -113 -19 -161 -19z" />
    <glyph glyph-name="d.smcp" horiz-adv-x="619" 
d="M278 41c96 0 177 65 177 233c0 145 -60 222 -171 222h-52c-9 0 -11 -2 -11 -11v-433c0 -10 2 -11 11 -11h46zM30 537h266c175 0 285 -96 285 -260c0 -194 -155 -277 -299 -277h-252v12l72 47c8 6 10 9 10 20v380c0 10 -2 13 -10 19l-72 47v12z" />
    <glyph glyph-name="e.smcp" horiz-adv-x="548" 
d="M402 175h-12l-51 65c-8 9 -11 10 -22 10h-96v-198c0 -10 2 -11 11 -11h141c12 0 14 1 21 11l82 124h12v-176h-458v12l72 47c8 6 10 9 10 20v380c0 10 -2 13 -10 19l-72 47v12h453v-175h-12l-78 123c-6 9 -9 11 -20 11h-141c-9 0 -11 -1 -11 -11v-196h96c11 0 14 1 22 11
l51 64h12v-189z" />
    <glyph glyph-name="f.smcp" horiz-adv-x="506" 
d="M30 525v12h453v-175h-12l-78 123c-6 9 -9 11 -20 11h-141c-9 0 -11 -1 -11 -11v-196h96c11 0 14 1 22 11l51 64h12v-189h-12l-51 65c-8 9 -11 10 -22 10h-96v-173c0 -9 2 -12 10 -16l97 -49v-12h-298v12l72 47c8 6 10 9 10 20v380c0 10 -2 13 -10 19z" />
    <glyph glyph-name="g.smcp" horiz-adv-x="602" 
d="M515 161v-172l-98 14c-29 -7 -63 -14 -106 -14c-181 0 -272 115 -272 283c0 159 105 276 307 276c48 0 107 -4 165 -18v-179h-12l-92 142c-5 8 -9 11 -19 12c-9 1 -25 2 -40 2c-126 0 -186 -86 -186 -233c0 -155 51 -243 171 -243c23 0 41 2 60 7c13 3 14 6 14 16v108
c0 10 -2 13 -10 19l-65 45v12h259v-12l-65 -44c-8 -6 -11 -10 -11 -21z" />
    <glyph glyph-name="h.smcp" horiz-adv-x="682" 
d="M570 459v-380c0 -11 2 -14 10 -20l72 -47v-12h-272v12l71 47c9 6 10 9 10 20v174h-240v-174c0 -11 1 -14 10 -20l71 -47v-12h-272v12l72 47c8 6 10 9 10 20v380c0 10 -2 13 -10 19l-72 47v12h272v-12l-71 -47c-9 -6 -10 -9 -10 -19v-164h240v164c0 10 -1 13 -10 19
l-71 47v12h272v-12l-72 -47c-8 -6 -10 -9 -10 -19z" />
    <glyph glyph-name="i.smcp" horiz-adv-x="333" 
d="M221 459v-380c0 -11 1 -14 10 -20l71 -47v-12h-272v12l72 47c8 6 10 9 10 20v380c0 10 -2 13 -10 19l-72 47v12h272v-12l-71 -47c-9 -6 -10 -9 -10 -19z" />
    <glyph glyph-name="j.smcp" horiz-adv-x="293" 
d="M201 459v-426c0 -121 -76 -178 -201 -198l-4 13c72 30 97 93 97 174v437c0 10 -2 13 -10 19l-72 47v12h272v-12l-71 -47c-9 -6 -11 -9 -11 -19z" />
    <glyph glyph-name="k.smcp" horiz-adv-x="584" 
d="M221 276v-197c0 -11 1 -14 10 -20l71 -47v-12h-272v12l72 47c8 6 10 9 10 20v380c0 10 -2 13 -10 19l-72 47v12h272v-12l-71 -47c-9 -6 -10 -9 -10 -19v-182l183 177c8 8 8 13 1 19l-53 52v12h233v-12l-94 -53c-18 -10 -25 -14 -40 -28l-131 -125l180 -233
c12 -16 16 -21 30 -30l69 -44v-12h-164z" />
    <glyph glyph-name="l.smcp" horiz-adv-x="495" 
d="M30 0v12l72 47c8 6 10 9 10 20v380c0 10 -2 13 -10 19l-72 47v12h272v-12l-71 -47c-9 -6 -10 -9 -10 -19v-407c0 -10 2 -11 11 -11h122c14 0 16 1 23 11l80 129h12v-181h-439z" />
    <glyph glyph-name="m.smcp" horiz-adv-x="778" 
d="M116 97v355c0 11 -3 14 -11 21l-74 52v12h191l175 -384l162 384h189v-12l-72 -47c-8 -6 -10 -9 -10 -19v-380c0 -11 2 -14 10 -20l72 -47v-12h-271v12l71 47c9 6 11 9 11 20v351l-182 -430h-20l-197 432v-335c0 -12 2 -15 11 -22l77 -63v-12h-221v12l77 63
c10 7 12 10 12 22z" />
    <glyph glyph-name="n.smcp" horiz-adv-x="638" 
d="M542 438v-438h-61l-319 429v-330c0 -13 3 -17 12 -24l77 -63v-12h-221v12l77 63c9 7 11 11 11 24v349c0 11 -2 14 -10 21l-78 56v12h180l287 -387v288c0 13 -2 16 -11 24l-77 63v12h221v-12l-77 -63c-9 -7 -11 -11 -11 -24z" />
    <glyph glyph-name="o.smcp" horiz-adv-x="626" 
d="M313 548c157 0 274 -99 274 -277c0 -173 -116 -282 -275 -282c-157 0 -273 100 -273 277c0 173 115 282 274 282zM310 507c-87 0 -146 -74 -146 -235c0 -162 58 -241 151 -241c87 0 146 72 146 234s-59 242 -151 242z" />
    <glyph glyph-name="p.smcp" horiz-adv-x="538" 
d="M287 197h-66v-120c0 -9 2 -12 9 -16l98 -50v-11h-298v12l72 47c8 6 10 9 10 20v380c0 10 -2 13 -10 19l-72 47v12h271c124 0 212 -53 212 -163c0 -111 -97 -177 -226 -177zM221 484v-246h62c68 0 115 45 115 131s-43 127 -109 127h-56c-10 0 -12 -1 -12 -12z" />
    <glyph glyph-name="q.smcp" horiz-adv-x="626" 
d="M313 548c157 0 274 -99 274 -277c0 -173 -116 -282 -275 -282c-20 0 -39 2 -58 5l-51 -46l173 -39c31 -7 63 -12 95 -12c40 0 66 10 90 31l32 29l12 -6l-24 -45c-30 -56 -66 -87 -136 -87c-36 0 -73 7 -115 17l-171 39c-17 4 -33 7 -45 7s-24 -3 -34 -8l-7 10l142 119
c-105 33 -176 124 -176 263c0 173 115 282 274 282zM310 507c-87 0 -146 -74 -146 -235c0 -162 58 -241 151 -241c87 0 146 72 146 234s-59 242 -151 242z" />
    <glyph glyph-name="r.smcp" horiz-adv-x="583" 
d="M112 79v380c0 10 -2 13 -10 19l-72 47v12h272c120 0 208 -45 208 -139c0 -69 -44 -114 -113 -134c6 -9 18 -31 22 -37l91 -158c6 -11 12 -20 22 -27l41 -31v-11h-147l-121 223c-7 12 -10 12 -21 12h-64v-156c0 -11 2 -14 11 -20l70 -47v-12h-271v12l72 47c8 6 10 9 10 20
zM220 486v-211h68c55 0 106 35 106 115c0 75 -48 106 -105 106h-56c-11 0 -13 -1 -13 -10z" />
    <glyph glyph-name="s.smcp" horiz-adv-x="495" 
d="M226 -11c-49 0 -113 8 -166 24v170h13l80 -135c5 -9 8 -10 18 -13c17 -5 35 -6 55 -6c82 0 132 35 132 89c0 49 -42 72 -99 95l-68 26c-68 27 -131 70 -131 153c0 97 87 156 216 156c43 0 89 -5 138 -15v-159h-12l-76 117c-6 9 -9 13 -18 15c-10 2 -22 3 -35 3
c-77 0 -120 -36 -120 -85c0 -40 28 -69 86 -91l74 -29c76 -29 140 -63 140 -151c0 -97 -84 -164 -227 -164z" />
    <glyph glyph-name="t.smcp" horiz-adv-x="546" 
d="M521 537v-182h-12l-78 127c-8 13 -12 14 -23 14h-81v-417c0 -11 2 -15 10 -20l72 -47v-12h-272v12l71 47c9 6 11 9 11 20v417h-81c-11 0 -15 -1 -23 -14l-78 -127h-12v182h496z" />
    <glyph glyph-name="u.smcp" horiz-adv-x="615" 
d="M98 184v273c0 11 -1 14 -10 20l-71 48v12h271v-12l-71 -48c-8 -6 -10 -9 -10 -20v-264c0 -100 48 -156 135 -156c81 0 137 49 137 154v249c0 12 -2 14 -11 22l-78 63v12h221v-12l-77 -63c-9 -7 -11 -10 -11 -22v-252c0 -116 -62 -199 -209 -199c-149 0 -216 67 -216 195z
" />
    <glyph glyph-name="v.smcp" horiz-adv-x="551" 
d="M479 440l-176 -440h-58l-180 460c-5 12 -7 15 -17 23l-52 43v11h252v-12l-65 -49c-6 -5 -7 -8 -4 -16l127 -334l128 316c4 10 2 15 -8 23l-69 60v12h216v-12l-75 -61c-11 -9 -14 -12 -19 -24z" />
    <glyph glyph-name="w.smcp" horiz-adv-x="826" 
d="M584 0h-57l-109 322l-122 -322h-57l-174 460c-5 12 -7 15 -17 23l-52 43v11h252v-12l-65 -49c-6 -5 -7 -8 -4 -16l121 -334l98 257l-24 72c-4 13 -9 20 -18 28l-48 43v11h244v-12l-65 -48c-6 -5 -7 -8 -4 -16l105 -331l120 312c4 11 2 15 -8 23l-69 60v12h217v-12
l-75 -61c-11 -9 -14 -12 -19 -24z" />
    <glyph glyph-name="x.smcp" horiz-adv-x="564" 
d="M235 255l-147 201c-6 9 -12 14 -22 22l-62 47v12h248v-12l-52 -40c-6 -5 -6 -11 -1 -18l104 -149l97 130c6 9 7 14 1 20l-64 57v12h217v-12l-87 -62c-8 -5 -13 -11 -24 -25l-116 -153l150 -204c6 -9 12 -15 22 -22l61 -47v-12h-248v12l52 40c7 6 6 10 0 19l-106 150
l-98 -132c-6 -9 -7 -14 -1 -20l64 -57v-12h-216v12l86 62c7 6 14 11 24 25z" />
    <glyph glyph-name="y.smcp" horiz-adv-x="544" 
d="M400 0h-259v11l67 42c6 4 8 6 8 15v127c0 14 -2 19 -7 27l-142 239c-6 10 -13 16 -23 24l-49 41v11h264v-11l-70 -46c-7 -5 -8 -9 -3 -18l118 -204l111 192c4 6 2 11 -3 16l-69 59v12h216v-12l-74 -56c-13 -10 -17 -14 -25 -28l-129 -218c-4 -8 -6 -14 -6 -26v-129
c0 -9 2 -11 8 -15l67 -42v-11z" />
    <glyph glyph-name="z.smcp" horiz-adv-x="495" 
d="M456 0h-425v11l304 485h-175c-12 0 -14 0 -21 -9l-79 -137h-13v187h424v-11l-303 -485h176c13 0 16 1 22 9l84 144h12z" />
    <glyph glyph-name="zero.smcp" horiz-adv-x="574" 
d="M286 507c-67 0 -111 -66 -111 -239c0 -174 44 -237 111 -237c68 0 113 63 113 235c0 175 -45 241 -113 241zM286 548c132 0 229 -89 229 -282c0 -190 -92 -277 -229 -277c-130 0 -227 87 -227 279c0 185 97 280 227 280z" />
    <glyph glyph-name="one.smcp" horiz-adv-x="366" 
d="M149 76v364c0 9 -2 11 -9 14l-90 40v12l204 43v-473c0 -10 2 -13 10 -19l75 -45v-12h-274v12l74 45c8 6 10 9 10 19z" />
    <glyph glyph-name="two.smcp" horiz-adv-x="465" 
d="M189 507c-10 0 -17 -1 -26 -3c-8 -2 -10 -4 -14 -11l-60 -120h-12l-39 142c48 21 106 33 164 33c125 0 192 -64 192 -154c0 -117 -117 -211 -254 -316h165c20 0 23 3 34 18l48 62h12l-17 -158h-350v11l113 120c91 97 136 179 136 261c0 73 -31 115 -92 115z" />
    <glyph glyph-name="three.smcp" horiz-adv-x="477" 
d="M212 548c124 0 192 -54 192 -133c0 -75 -56 -114 -118 -129c78 -5 142 -55 142 -131c0 -98 -84 -166 -230 -166c-56 0 -118 9 -160 25l48 146h12l55 -117c3 -6 7 -9 13 -10c9 -2 18 -2 29 -2c74 0 119 54 119 120c0 85 -56 117 -134 117v17c76 11 115 60 115 129
c0 57 -33 93 -96 93c-10 0 -18 0 -27 -2c-8 -2 -10 -3 -14 -11l-60 -117h-12l-39 138c48 21 106 33 165 33z" />
    <glyph glyph-name="four.smcp" horiz-adv-x="518" 
d="M445 0h-265v12l71 43c9 6 11 9 11 20v55h-238v10l246 397h94v-365h36c10 0 13 1 19 8l56 78h11l-13 -128h-109v-55c0 -11 2 -14 11 -20l70 -43v-12zM262 172v272l-166 -272h166z" />
    <glyph glyph-name="five.smcp" horiz-adv-x="466" 
d="M198 -11c-56 0 -113 8 -160 25l44 146h13l55 -118c3 -6 7 -10 15 -11c10 -1 21 -1 30 -1c63 0 118 46 118 130c0 71 -45 121 -130 121c-36 0 -67 -10 -93 -26h-12l8 279c87 -2 181 -2 219 -2c36 0 45 3 59 19l23 27h12l-9 -79c-6 -45 -21 -53 -62 -53
c-33 0 -125 1 -198 2l-5 -146c30 14 68 25 114 25c113 0 188 -64 188 -164c0 -105 -87 -174 -229 -174z" />
    <glyph glyph-name="six.smcp" horiz-adv-x="517" 
d="M300 548c40 0 100 -5 146 -24l-40 -143h-12l-58 114c-3 6 -5 8 -12 10c-8 2 -16 2 -25 2c-90 0 -129 -81 -130 -237c26 36 76 62 134 62c93 0 167 -60 167 -162c0 -109 -85 -181 -195 -181c-132 0 -216 104 -216 276c0 184 96 283 241 283zM267 283
c-41 0 -78 -22 -98 -55c7 -148 55 -199 107 -199c54 0 88 56 88 128c0 74 -36 126 -97 126z" />
    <glyph glyph-name="seven.smcp" horiz-adv-x="408" 
d="M222 0h-122v12c74 168 167 371 209 443h-195c-18 0 -23 -1 -30 -10l-52 -65h-12l16 157h364v-12l-44 -53c-7 -9 -13 -17 -17 -29c-39 -109 -82 -287 -117 -443z" />
    <glyph glyph-name="eight.smcp" horiz-adv-x="488" 
d="M246 -11c-103 0 -197 47 -197 133c0 69 62 114 128 136l-16 7c-53 28 -98 70 -98 136c0 93 85 147 181 147c91 0 176 -47 176 -128c0 -69 -61 -104 -119 -121l34 -15c58 -26 109 -69 109 -139c0 -88 -84 -156 -198 -156zM263 215l-56 27c-40 -21 -74 -58 -74 -111
c0 -63 50 -101 115 -101c60 0 104 35 104 85c0 47 -34 72 -89 100zM148 429c0 -40 29 -69 77 -92l47 -23c51 27 68 66 68 107c0 59 -44 86 -97 86c-51 0 -95 -29 -95 -78z" />
    <glyph glyph-name="nine.smcp" horiz-adv-x="526" 
d="M227 -11c-40 0 -100 6 -146 24l40 143h13l57 -114c3 -6 6 -8 12 -10c9 -2 17 -2 25 -2c90 0 130 81 131 236c-26 -36 -77 -61 -135 -61c-92 0 -166 60 -166 162c0 110 85 181 194 181c133 0 216 -104 216 -276c0 -184 -96 -283 -241 -283zM260 254c41 0 78 21 98 54
c-7 149 -54 200 -106 200c-54 0 -89 -56 -89 -128c0 -74 36 -126 97 -126z" />
    <glyph glyph-name="dollar.smcp" horiz-adv-x="492" 
d="M225 -11c-49 0 -113 8 -166 24v170h13l80 -135c6 -8 8 -10 18 -13c17 -5 35 -6 55 -6h11v192l-46 18c-68 27 -130 70 -130 153c0 86 69 144 176 154v72h41v-70c42 0 88 -5 136 -15v-159h-12l-76 117c-6 9 -9 13 -18 15s-19 2 -30 2v-191l35 -13c76 -29 140 -63 140 -151
c0 -84 -64 -146 -175 -160v-78h-41v74h-11zM357 118c0 43 -32 66 -80 86v-170c50 12 80 42 80 84zM152 424c0 -39 26 -67 84 -90v172c-54 -10 -84 -42 -84 -82z" />
    <glyph glyph-name="dollar.smcp_alt" horiz-adv-x="492" 
d="M225 -11c-49 0 -113 8 -166 24v170h13l80 -135c5 -9 10 -12 20 -14c19 -4 33 -5 53 -5c82 0 132 35 132 89c0 49 -42 73 -100 95l-67 26c-68 27 -130 70 -130 153c0 86 69 143 176 154v72h41v-70c42 0 88 -5 136 -15v-159h-12l-76 117c-6 9 -9 13 -18 15
c-10 2 -22 3 -35 3c-77 0 -120 -36 -120 -85c0 -40 28 -69 86 -91l74 -29c76 -29 140 -63 140 -151c0 -84 -64 -146 -175 -160v-78h-41v74h-11z" />
    <glyph glyph-name="cent.smcp" horiz-adv-x="416" 
d="M213 -22v77h-14c-87 0 -156 78 -156 194c0 120 72 191 170 207v80h41v-76h7c39 0 79 -6 121 -20l-40 -116h-10l-51 88c-4 7 -9 11 -17 11h-10v-309c4 -1 9 -1 14 -1c48 0 82 20 106 45l10 -7c-22 -50 -64 -87 -130 -95v-78h-41zM142 270c0 -75 28 -124 71 -145v290
c-40 -19 -71 -67 -71 -145z" />
    <glyph glyph-name="cent.smcp_alt" horiz-adv-x="416" 
d="M213 -22v77c-2 0 -7 1 -8 1c-89 8 -162 75 -162 193c0 120 72 191 170 207v80h41v-76h8c38 0 78 -6 120 -20l-40 -116h-10l-52 88c-4 7 -7 8 -14 9c-6 1 -10 1 -16 1c-57 -2 -108 -55 -108 -152c0 -105 55 -157 126 -157c48 0 82 20 106 45l10 -7
c-22 -50 -64 -87 -130 -95v-78h-41z" />
    <glyph glyph-name="sterling.smcp" horiz-adv-x="466" 
d="M44 241h60c-18 36 -36 76 -36 129c0 112 92 176 209 176c41 0 86 -6 123 -20l-25 -128h-11l-63 105c-5 9 -9 10 -21 10c-70 0 -113 -52 -113 -121c0 -53 26 -102 38 -151h107v-41h-101c0 -5 0 -11 -1 -16c-2 -57 -41 -85 -77 -110h220c15 0 24 4 31 13l46 58h11l-13 -145
h-386v11l53 57c20 21 34 53 34 88c0 15 -3 29 -8 44h-77v41z" />
    <glyph glyph-name="yen.smcp" horiz-adv-x="544" 
d="M95 201v41h102l-130 219c-6 10 -13 16 -23 24l-49 41v11h264v-11l-70 -46c-7 -5 -8 -9 -3 -18l118 -204l110 189c4 8 4 14 -1 18l-70 60v12h216v-11l-74 -57c-13 -10 -15 -12 -23 -25l-120 -202h105v-41h-122v-48h122v-41h-122v-44c0 -9 2 -11 8 -15l67 -42v-11h-259v11
l67 42c6 4 8 6 8 15v44h-121v41h121v48h-121z" />
    <glyph glyph-name="Euro.smcp" horiz-adv-x="591" 
d="M26 301v41h59c28 122 128 206 286 206c43 0 100 -5 154 -18v-179h-11l-93 142c-6 9 -7 10 -18 12s-24 2 -34 2c-97 0 -149 -65 -163 -165h172v-41h-176c-1 -9 -1 -20 -1 -29c0 -11 0 -23 1 -33h176v-41h-172c15 -106 66 -167 164 -167c9 0 22 0 32 1c12 2 14 3 19 11
l96 145h10v-180c-49 -13 -114 -19 -161 -19c-167 0 -258 87 -283 209h-57v41h51v30c0 11 0 21 1 32h-52z" />
    <glyph glyph-name="zero.smcpt" 
d="M299 507c-67 0 -112 -66 -112 -239c0 -174 45 -237 112 -237c68 0 113 63 113 235c0 175 -45 241 -113 241zM299 548c131 0 228 -89 228 -282c0 -190 -91 -277 -228 -277c-130 0 -227 87 -227 279c0 185 97 280 227 280z" />
    <glyph glyph-name="one.smcpt" 
d="M260 76v364c0 9 -2 11 -10 14l-89 40v12l204 43v-473c0 -10 2 -13 10 -19l74 -45v-12h-274v12l74 45c9 6 11 9 11 19z" />
    <glyph glyph-name="two.smcpt" 
d="M274 507c-10 0 -16 0 -25 -2s-11 -5 -15 -12l-60 -119h-11l-40 141c48 21 106 33 165 33c124 0 191 -64 191 -154c0 -117 -117 -211 -253 -316h164c20 0 23 3 34 18l48 62h12l-17 -158h-350v11l113 120c92 96 136 179 136 261c0 73 -30 115 -92 115z" />
    <glyph glyph-name="three.smcpt" 
d="M278 548c123 0 191 -54 191 -133c0 -75 -55 -114 -117 -129c78 -5 142 -55 142 -131c0 -98 -84 -166 -230 -166c-56 0 -118 9 -160 25l48 144h12l54 -115c3 -7 7 -9 14 -10c9 -2 18 -2 28 -2c74 0 120 54 120 120c0 85 -56 117 -134 117v17c75 11 114 60 114 129
c0 57 -32 93 -96 93c-10 0 -18 0 -26 -2s-10 -3 -14 -11l-59 -115h-12l-40 136c48 21 105 33 165 33z" />
    <glyph glyph-name="four.smcpt" 
d="M409 130v-55c0 -11 2 -14 10 -20l71 -43v-12h-265v12l71 43c8 6 11 9 11 20v55h-238v10l246 397h94v-365h36c9 0 13 1 19 8l56 78h10l-12 -128h-109zM307 172v272l-167 -272h167z" />
    <glyph glyph-name="five.smcpt" 
d="M265 -11c-57 0 -114 8 -160 25l44 144h12l56 -116c3 -6 6 -10 14 -11c11 -1 22 -1 31 -1c63 0 118 46 118 130c0 71 -45 121 -130 121c-36 0 -67 -10 -93 -26h-13l9 279c86 -2 181 -2 219 -2c35 0 45 3 59 19l23 27h12l-10 -79c-5 -45 -20 -53 -61 -53
c-34 0 -125 1 -198 2l-5 -146c29 14 68 25 114 25c113 0 187 -64 187 -164c0 -105 -86 -174 -228 -174z" />
    <glyph glyph-name="six.smcpt" 
d="M336 548c40 0 100 -5 146 -24l-40 -141h-13l-57 112c-3 6 -6 8 -12 10c-9 2 -17 2 -25 2c-90 0 -130 -81 -131 -237c26 36 77 62 135 62c92 0 166 -60 166 -162c0 -109 -85 -181 -194 -181c-133 0 -216 104 -216 276c0 184 96 283 241 283zM303 283
c-41 0 -78 -22 -98 -55c7 -148 54 -199 106 -199c54 0 89 56 89 128c0 74 -36 126 -97 126z" />
    <glyph glyph-name="seven.smcpt" 
d="M312 0h-122v12c73 168 167 371 208 443h-197c-18 0 -22 -2 -30 -10l-49 -62h-12l15 154h364v-12l-43 -53c-7 -9 -14 -17 -18 -29c-38 -109 -82 -287 -116 -443z" />
    <glyph glyph-name="eight.smcpt" 
d="M299 -11c-102 0 -196 55 -196 135c0 66 62 112 127 134l-16 7c-54 24 -97 70 -97 136c0 93 85 147 180 147c91 0 176 -47 176 -128c0 -69 -60 -104 -118 -121l33 -15c59 -27 109 -69 109 -139c0 -88 -83 -156 -198 -156zM316 215l-56 27c-40 -21 -74 -58 -74 -111
c0 -63 50 -101 115 -101c60 0 104 35 104 85c0 47 -33 73 -89 100zM201 429c0 -40 29 -68 78 -92l47 -23c50 27 67 66 67 107c0 59 -43 86 -96 86c-51 0 -96 -27 -96 -78z" />
    <glyph glyph-name="nine.smcpt" 
d="M264 -11c-40 0 -100 6 -146 24l40 141h13l57 -112c3 -6 6 -8 12 -10c9 -2 17 -2 25 -2c90 0 130 81 131 236c-26 -36 -77 -61 -135 -61c-92 0 -166 60 -166 162c0 110 85 181 194 181c133 0 216 -104 216 -276c0 -184 -96 -283 -241 -283zM297 254c41 0 78 21 98 54
c-7 149 -54 200 -106 200c-54 0 -89 -56 -89 -128c0 -74 36 -126 97 -126z" />
    <glyph glyph-name="dollar.smcpt" 
d="M279 -11c-49 0 -113 8 -166 24v170h13l80 -135c6 -8 8 -10 18 -13c17 -5 35 -6 55 -6h11v192l-46 18c-68 27 -130 70 -130 153c0 86 69 144 176 154v72h41v-70c42 0 88 -5 136 -15v-159h-12l-76 117c-6 9 -9 13 -18 15s-19 2 -30 2v-191l35 -13c76 -29 140 -63 140 -151
c0 -84 -64 -146 -175 -160v-78h-41v74h-11zM411 118c0 43 -32 66 -80 86v-170c50 12 80 42 80 84zM206 424c0 -39 26 -67 84 -90v172c-54 -10 -84 -42 -84 -82z" />
    <glyph glyph-name="dollar.smcpt_alt" 
d="M279 -11c-49 0 -113 8 -166 24v170h13l80 -135c5 -9 10 -12 20 -14c19 -4 33 -5 53 -5c82 0 132 35 132 89c0 49 -42 73 -100 95l-67 26c-68 27 -130 70 -130 153c0 86 69 143 176 154v72h41v-70c42 0 88 -5 136 -15v-159h-12l-76 117c-6 9 -9 13 -18 15
c-10 2 -22 3 -35 3c-77 0 -120 -36 -120 -85c0 -40 28 -69 86 -91l74 -29c76 -29 140 -63 140 -151c0 -84 -64 -146 -175 -160v-78h-41v74h-11z" />
    <glyph glyph-name="cent.smcpt" 
d="M298 -22v77h-14c-87 0 -156 78 -156 194c0 120 72 191 170 207v80h41v-76h7c39 0 79 -6 121 -20l-40 -116h-10l-51 88c-4 7 -9 11 -17 11h-10v-309c4 -1 9 -1 14 -1c48 0 82 20 106 45l10 -7c-22 -50 -64 -87 -130 -95v-78h-41zM227 270c0 -75 28 -124 71 -145v290
c-40 -19 -71 -67 -71 -145z" />
    <glyph glyph-name="cent.smcpt_alt" 
d="M298 -22v77c-2 0 -7 1 -8 1c-89 8 -162 75 -162 193c0 120 72 191 170 207v80h41v-76h8c38 0 78 -6 120 -20l-40 -116h-10l-52 88c-4 7 -7 8 -14 9c-6 1 -10 1 -16 1c-57 -2 -108 -55 -108 -152c0 -105 55 -157 126 -157c48 0 82 20 106 45l10 -7
c-22 -50 -64 -87 -130 -95v-78h-41z" />
    <glyph glyph-name="sterling.smcpt" 
d="M101 241h60c-18 36 -36 76 -36 129c0 112 92 176 209 176c41 0 86 -6 123 -20l-25 -128h-11l-63 105c-5 9 -9 10 -21 10c-70 0 -113 -52 -113 -121c0 -53 26 -102 38 -151h107v-41h-101c0 -5 0 -11 -1 -16c-2 -57 -41 -85 -77 -110h220c15 0 24 4 31 13l46 58h11
l-13 -145h-386v11l53 57c20 21 34 53 34 88c0 15 -3 29 -8 44h-77v41z" />
    <glyph glyph-name="yen.smcpt" 
d="M117 201v41h102l-130 219c-6 10 -13 16 -23 24l-49 41v11h264v-11l-70 -46c-7 -5 -8 -9 -3 -18l118 -204l110 189c4 8 4 14 -1 18l-70 60v12h216v-11l-74 -57c-13 -10 -15 -12 -23 -25l-120 -202h105v-41h-122v-48h122v-41h-122v-44c0 -9 2 -11 8 -15l67 -42v-11h-259v11
l67 42c6 4 8 6 8 15v44h-121v41h121v48h-121z" />
    <glyph glyph-name="Euro.smcpt" 
d="M49 301v41h59c28 122 128 206 286 206c43 0 100 -5 154 -18v-179h-11l-93 142c-6 9 -7 10 -18 12s-24 2 -34 2c-97 0 -149 -65 -163 -165h172v-41h-176c-1 -9 -1 -20 -1 -29c0 -11 0 -23 1 -33h176v-41h-172c15 -106 66 -167 164 -167c9 0 22 0 32 1c12 2 14 3 19 11
l96 145h10v-180c-49 -13 -114 -19 -161 -19c-167 0 -258 87 -283 209h-57v41h51v30c0 11 0 21 1 32h-52z" />
    <glyph glyph-name="percent.smcp" horiz-adv-x="670" 
d="M184 -15l-37 24l345 545l37 -23zM182 288c31 0 50 31 50 114c0 87 -19 121 -50 121c-33 0 -52 -34 -52 -120c0 -84 19 -115 52 -115zM182 548c74 0 127 -47 127 -146c0 -97 -52 -141 -127 -141c-76 0 -128 44 -128 141c0 98 52 146 128 146zM489 255
c-33 0 -52 -34 -52 -120c0 -84 19 -115 52 -115c31 0 50 31 50 114c0 87 -19 121 -50 121zM489 280c74 0 127 -47 127 -146c0 -97 -51 -141 -127 -141s-128 44 -128 141c0 98 52 146 128 146z" />
    <glyph glyph-name="perthousand.smcp" horiz-adv-x="972" 
d="M529 531l-345 -546l-37 24l345 545zM182 548c74 0 127 -47 127 -146c0 -97 -52 -141 -127 -141c-76 0 -128 44 -128 141c0 98 52 146 128 146zM182 523c-33 0 -52 -34 -52 -120c0 -84 19 -115 52 -115c31 0 50 31 50 114c0 87 -19 121 -50 121zM489 255
c-33 0 -52 -34 -52 -120c0 -84 19 -115 52 -115c31 0 50 31 50 114c0 87 -19 121 -50 121zM489 280c74 0 127 -47 127 -146c0 -97 -51 -141 -127 -141s-128 44 -128 141c0 98 52 146 128 146zM791 255c-33 0 -52 -34 -52 -120c0 -84 19 -115 52 -115c31 0 50 31 50 114
c0 87 -19 121 -50 121zM791 280c74 0 127 -47 127 -146c0 -97 -51 -141 -127 -141s-128 44 -128 141c0 98 52 146 128 146z" />
    <glyph glyph-name="ampersand.smcp" horiz-adv-x="629" 
d="M205 -9c-97 0 -161 55 -161 131c0 65 48 116 122 140c-41 47 -58 91 -58 133c0 81 60 137 152 137c83 0 139 -46 139 -110c0 -58 -48 -106 -126 -136l135 -144c22 29 41 54 56 84c4 7 6 11 6 15s-2 6 -6 10l-65 55v9h189v-9l-58 -49c-13 -11 -17 -13 -24 -25
c-26 -46 -49 -79 -75 -112c38 -36 68 -53 97 -53c40 0 70 29 73 74h11c1 -10 2 -21 2 -32c0 -74 -48 -118 -120 -118c-49 0 -85 20 -128 61c-45 -38 -97 -61 -161 -61zM238 36c36 0 71 14 103 39l-156 167c-36 -25 -55 -57 -55 -100c0 -65 46 -106 108 -106zM254 305
c54 35 71 75 71 115c0 54 -30 80 -66 80c-41 0 -68 -33 -68 -76c0 -34 17 -74 63 -119z" />
    <glyph glyph-name="exclam.smcp" horiz-adv-x="284" 
d="M150 193h-12l-63 344h138zM71 63c0 41 31 74 71 74c41 0 72 -33 72 -74c0 -40 -31 -73 -72 -73c-40 0 -71 33 -71 73z" />
    <glyph glyph-name="exclamdown.smcp" horiz-adv-x="284" 
d="M138 345h12l63 -345h-138zM71 474c0 41 31 73 71 73c41 0 72 -32 72 -73s-31 -73 -72 -73c-40 0 -71 32 -71 73z" />
    <glyph glyph-name="question.smcp" horiz-adv-x="437" 
d="M84 385h-12l-50 126c53 26 125 38 180 38c126 0 206 -44 206 -126c0 -56 -35 -91 -80 -122l-88 -60c-28 -19 -43 -45 -43 -70h-12c-18 11 -31 27 -31 57c0 24 19 53 53 79l48 36c32 24 49 53 49 86c0 45 -38 80 -113 80c-12 0 -28 -1 -37 -3c-11 -3 -13 -5 -18 -15z
M116 63c0 41 31 74 71 74c41 0 72 -33 72 -74c0 -40 -31 -73 -72 -73c-40 0 -71 33 -71 73z" />
    <glyph glyph-name="questiondown.smcp" horiz-adv-x="437" 
d="M353 155h12l50 -126c-53 -26 -125 -39 -179 -39c-127 0 -207 44 -207 127c0 55 35 90 80 121l88 60c28 19 43 48 43 73h12c18 -14 31 -29 31 -59c0 -25 -19 -53 -53 -79l-48 -37c-31 -24 -49 -52 -49 -85c0 -45 38 -81 113 -81c12 0 28 1 38 3s12 5 17 16zM321 476
c0 -41 -31 -73 -71 -73c-41 0 -72 32 -72 73s31 73 72 73c40 0 71 -32 71 -73z" />
    <glyph glyph-name="aacute.smcp" horiz-adv-x="576" 
d="M225 603h-14l61 158h138v-12zM-8 0v12l76 62c10 8 14 12 18 23l140 350c4 10 4 15 -1 24l-32 54v12h127l188 -459c4 -12 8 -16 17 -23l53 -43v-12h-253v12l65 49c6 5 7 8 4 16l-35 89h-200l-28 -71c-4 -10 -2 -15 8 -24l70 -59v-12h-217zM258 418l-83 -211h167z" />
    <glyph glyph-name="agrave.smcp" horiz-adv-x="576" 
d="M-8 0v12l76 62c10 8 14 12 18 23l140 350c4 10 4 15 -1 24l-32 54v12h127l188 -459c4 -12 8 -16 17 -23l53 -43v-12h-253v12l65 49c6 5 7 8 4 16l-35 89h-200l-28 -71c-4 -10 -2 -15 8 -24l70 -59v-12h-217zM258 418l-83 -211h167zM332 605h-14l-184 145v12h138z" />
    <glyph glyph-name="acircumflex.smcp" horiz-adv-x="576" 
d="M264 664l-140 -62l-8 9l142 159h12l142 -159l-7 -9zM-8 0v12l76 62c10 8 14 12 18 23l140 350c4 10 4 15 -1 24l-32 54v12h127l188 -459c4 -12 8 -16 17 -23l53 -43v-12h-253v12l65 49c6 5 7 8 4 16l-35 89h-200l-28 -71c-4 -10 -2 -15 8 -24l70 -59v-12h-217zM258 418
l-83 -211h167z" />
    <glyph glyph-name="adieresis.smcp" horiz-adv-x="576" 
d="M106 681c0 36 28 64 61 64s61 -28 61 -64c0 -34 -28 -62 -61 -62s-61 28 -61 62zM300 681c0 36 28 64 60 64c33 0 61 -28 61 -64c0 -34 -28 -62 -61 -62c-32 0 -60 28 -60 62zM-8 0v12l76 62c10 8 14 12 18 23l140 350c4 10 4 15 -1 24l-32 54v12h127l188 -459
c4 -12 8 -16 17 -23l53 -43v-12h-253v12l65 49c6 5 7 8 4 16l-35 89h-200l-28 -71c-4 -10 -2 -15 8 -24l70 -59v-12h-217zM258 418l-83 -211h167z" />
    <glyph glyph-name="atilde.smcp" horiz-adv-x="576" 
d="M-8 0v12l76 62c10 8 14 12 18 23l140 350c4 10 4 15 -1 24l-32 54v12h127l188 -459c4 -12 8 -16 17 -23l53 -43v-12h-253v12l65 49c6 5 7 8 4 16l-35 89h-200l-28 -71c-4 -10 -2 -15 8 -24l70 -59v-12h-217zM258 418l-83 -211h167zM313 612c-43 0 -83 53 -119 53
c-25 0 -40 -17 -63 -50h-12c10 64 36 124 97 124c43 0 82 -53 119 -53c24 0 39 17 62 50h13c-11 -64 -37 -124 -97 -124z" />
    </font>
</defs>
</svg>
